**ABCDEFGHIJKLMNOPQRSTUVWXYZabcdefghijklmnopqrstuvwxyz**************************
**PARASOLID !"#$%&'()*+,-./:;<=>?@[\]^_`{|}~0123456789**************************
**PART1;
MC=;
MC_MODEL=;
MC_ID=unknown;
OS=Windows;
OS_RELEASE=;
FRU=;
APPL=Autodesk Inventor 2024;
SITE=unknown;
USER=unknown;
FORMAT=text;
GUISE=transmit;
KEY=DC23[L][FD1];
FILE=C:\Users\juanj\Documents\Documentos\Unisabana\Shell\C23[1stD]\MasterCam Files\DC23[L][FD1].x_t;
DATE=2023-Jul-19 16:24:14;
**PART2;
SCH=SCH_3500195_35002;
USFLD_SIZE=0;
**PART3;
**END_OF_HEADER*****************************************************************
T51 : TRANSMIT FILE created by modeller version 350019517 SCH_3500195_350020 176
 2 1 2 0 0 0 0 2 3 12 2 4 0 0 0 0 0 0 0 0 0 1e3 1e-8 0 3 0 1 0 2 1 4 0 0 0 5 0 0
 6 0 7 0 0 0 0 0 0 0 12 3 452 8 9 0 0 0 0 0 0 0 1e3 1e-8 0 0 2 1 0 1 1 10 0 11 1
2 13 0 0 14 15 16 0 0 0 0 0 0 0 81 1 8 452 17 3 18 0 0 0 19 70 9 0 4 T3 0 0 6 20
 1 20 20 13 10 194 0 3 0 21 0 0 22 0 50 11 341 0 21 23 0 0 +-.02715 0 .0185 0 0
 -1 1 0 0 30 12 451 0 3 24 0 25 +.02435 -.0433365929003395 -.0490229940586394 12
45307063645474e-31 -.999459863081191 .03286308095306725 29 13 243 0 16 26 0 -.01
31 0 520474889637625e-33 19 14 1 0 3 22 0 27 0 V0 16 15 187 0 ?28 0 29 30 0 0 3
 18 16 180 0 31 0 32 13 ?3 17 31 0 33 31 31 16 34 35 0 34 +18 32 175 0 36 16 37
 26 ?3 17 36 0 38 36 36 32 39 40 0 39 +18 37 170 0 41 32 42 43 ?3 29 26 242 0 32
 43 13 -.01385 -4440892098500625e-33 -.012 29 43 241 0 37 44 26 .02115 -44408920
98500625e-33 -.012 29 44 240 0 42 45 43 .02435 0 -.0255 18 42 149 0 46 37 47 44
 ?3 29 45 239 0 47 48 44 .02435 0 .0185 18 47 147 0 28 42 49 45 ?3 29 48 238 0 4
9 50 45 .02435 -.07185 .0185 18 49 141 0 51 47 52 48 ?3 29 50 237 0 52 53 48 -.0
275388888888889 -.07185 -.001489189182737776 18 52 138 0 54 49 55 50 ?3 29 53 23
6 0 55 56 50 -.02565 -.07185 -.003486100377805715 18 55 136 0 57 52 58 53 ?3 29
 56 235 0 58 59 53 .03131104415481675 -.051902378265873 -.0487413438310592 18 58
 132 0 60 55 61 56 ?3 29 59 234 0 61 62 56 .02435 -.0433365929003395 -.049022994
0586394 18 61 128 0 63 58 64 59 ?3 29 62 233 0 64 65 59 -.00995 -.07185 -.043 18
 64 122 0 66 61 67 62 ?3 29 65 232 0 67 68 62 .03935 -.061915463532124 -.0484121
05165406 18 67 115 0 69 64 70 65 ?3 29 68 231 0 70 71 65 .03935 -.04333659290033
95 -.0490229940586394 18 70 110 0 72 67 73 68 ?3 29 71 230 0 73 74 68 .033861044
15481675 -.048693755230289 -.02875265376386525 18 73 106 0 75 70 76 71 ?3 29 74
 229 0 76 77 71 .03935 -.0612690442342945 -.02875265376386525 18 76 102 0 78 73
 79 74 ?3 29 77 228 0 79 80 74 .03935 -.04286798311965155 -.02875265376386525 18
 79 100 0 81 76 82 77 ?3 29 80 227 0 82 83 77 .03035 0 -.0255 18 82 94 0 84 79 8
5 80 ?3 29 83 226 0 85 86 80 .03035 -.0433365929003395 -.0490229940586394 18 85
 92 0 87 82 88 83 ?3 29 86 225 0 88 89 83 .03035 -.04286798311965155 -.028752653
76386525 18 88 90 0 90 85 91 86 ?3 29 89 224 0 91 92 86 .03035 -.061269044234294
5 -.02875265376386525 18 91 88 0 93 88 94 89 ?3 29 92 223 0 94 95 89 .03035 -.06
1915463532124 -.048412105165406 18 94 86 0 96 91 97 92 ?3 29 95 222 0 97 98 92 .
02435 -.07185 -.0480854492503115 18 97 81 0 99 94 100 95 1e-5 3 29 98 221 0 100
 101 95 .011126890384598 -.0718500000005064 -.056 18 100 76 0 102 97 103 98 1e-5
 3 29 101 220 0 103 104 98 -.00995 -.07785 -.043 18 103 72 0 105 100 106 101 ?3
 29 104 219 0 106 107 101 -.02565 -.07785 -.003486100377805715 18 106 68 0 108 1
03 109 104 ?3 29 107 218 0 109 110 104 -.0275388888888889 -.07785 -.001489189182
737776 18 109 66 0 111 106 112 107 ?3 29 110 217 0 112 113 107 .03035 -.07785 .0
245 18 112 63 0 114 109 115 110 ?3 29 113 216 0 115 116 110 .03035 -.07785 -.047
8881642036558 18 115 61 0 117 112 118 113 ?3 29 116 215 0 118 119 113 .02435 -.0
7785 -.0478881642036558 18 118 59 0 120 115 121 116 1e-5 3 29 119 214 0 121 122
 116 .01102316858346402 -.0778500000005492 -.056 18 121 57 0 123 118 124 119 1e-
5 3 29 122 213 0 124 125 119 -.02565 -.07785 -.041 18 124 52 0 126 121 127 122 ?
3 29 125 212 0 127 128 122 -.01065 -.07785 -.056 18 127 50 0 129 124 130 125 ?3
 29 128 211 0 130 131 125 -.01065 -.07185 -.056 18 130 48 0 132 127 133 128 ?3 2
9 131 210 0 133 134 128 -.02565 -.07185 -.041 18 133 47 0 135 130 136 131 ?3 29
 134 209 0 136 137 131 -.03415 -.07785 .0245 18 136 42 0 138 133 139 134 ?3 29 1
37 208 0 139 140 134 -.03415 -.07785 .0055 18 139 40 0 141 136 142 137 ?3 29 140
 207 0 142 143 137 -.03415 -.07185 .0055 18 142 38 0 144 139 145 140 ?3 29 143 2
06 0 145 146 140 -.03415 -.07185 .0185 18 145 36 0 147 142 148 143 ?3 29 146 205
 0 148 149 143 -.03415 0 .0185 18 148 34 0 150 145 151 146 ?3 29 149 204 0 151 1
52 146 .02115 .006 -.012 18 151 30 0 153 148 154 149 ?3 29 152 203 0 154 155 149
 -.01385 .006 -.012 18 154 27 0 156 151 157 152 ?3 29 155 202 0 157 158 152 -.00
46 .006 0 18 157 24 0 159 154 160 155 ?3 29 158 201 0 160 161 155 .03035 .006 -.
0255 18 160 20 0 162 157 163 158 ?3 29 161 200 0 163 164 158 .03035 .006 .0245 1
8 163 18 0 165 160 166 161 ?3 29 164 199 0 166 167 161 -.03415 .006 .0245 18 166
 16 0 168 163 169 164 ?3 29 167 198 0 169 170 164 -.03415 0 -.0105 18 169 11 0 1
71 166 172 167 ?3 29 170 197 0 172 173 167 -.01915 0 -.0255 18 172 9 0 174 169 1
75 170 ?3 29 173 196 0 175 176 170 -.01915 .006 -.0255 18 175 7 0 177 172 178 17
3 ?3 29 176 195 0 178 0 173 -.03415 .006 -.0105 18 178 6 0 179 175 0 176 ?3 17 1
79 0 180 181 168 178 182 183 0 184 +15 180 32 0 181 185 0 17 181 0 180 186 179 1
69 184 187 0 188 -17 168 0 180 179 189 166 190 191 0 192 +17 182 0 193 194 195 1
66 179 183 0 0 -16 183 15 0 ?179 196 187 197 0 0 3 17 184 0 198 199 188 178 181
 187 0 195 +15 198 4 0 199 200 0 17 199 0 198 201 184 175 195 202 0 0 +17 188 0
 198 184 201 169 203 204 0 0 +16 187 12 0 ?184 183 204 205 0 0 3 17 195 0 193 18
2 177 178 199 202 0 0 -15 193 14 0 195 206 0 17 177 0 193 195 207 175 208 209 0
 210 -16 202 5 0 ?199 211 0 212 0 0 3 16 211 8 0 ?201 204 202 213 0 0 3 31 212 2
44 0 202 0 213 0 +-.01915 .006 -.0105 0 -1 0 -.707106781186548 0 -.7071067811865
48 .015 30 213 245 0 211 212 214 0 +-.01915 .006 -.0255 0 -1 0 31 214 246 0 204
 213 205 0 +-.01915 0 -.0105 0 1 0 -.707106781186548 0 -.707106781186548 .015 16
 204 10 0 ?188 187 211 214 0 0 3 30 205 247 0 187 214 197 0 +-.03415 0 -.0105 0
 1 0 30 197 248 0 183 205 215 0 +-.03415 .006 .0245 0 0 -1 30 215 249 0 196 197
 216 0 +-.03415 .006 .0245 1 0 0 16 196 17 0 ?194 217 183 215 0 0 3 30 216 250 0
 217 215 218 0 +.03035 .006 -.0255 0 0 1 16 217 19 0 ?219 209 196 216 0 0 3 30 2
18 251 0 209 216 220 0 +-.01915 .006 -.0255 1 0 0 16 209 21 0 ?208 221 217 218 0
 0 3 31 220 252 0 221 218 222 0 +-.00885 .006 0 0 -1 0 1 0 0 .00425 16 221 23 0
 ?159 223 209 220 0 0 3 31 222 253 0 223 220 224 0 +-.01985 .006 -.012 0 -1 0 1
 0 0 .006 16 223 26 0 ?156 225 221 222 0 0 3 31 224 254 0 225 222 226 0 +.01515
 .006 -.012 0 -1 0 1 0 0 .006 16 225 29 0 ?153 227 223 224 0 0 3 30 226 255 0 22
7 224 228 0 +-.03415 0 -.0105 0 0 1 16 227 33 0 ?186 229 225 226 0 0 3 30 228 25
6 0 229 226 230 0 +-.03415 0 .0185 0 -1 0 16 229 35 0 ?231 232 227 228 0 0 3 30
 230 257 0 232 228 233 0 +-.03415 -.07185 .0185 0 0 -1 16 232 37 0 ?234 235 229
 230 0 0 3 30 233 258 0 235 230 236 0 +-.03415 -.07785 .0055 0 1 0 16 235 39 0 ?
237 238 232 233 0 0 3 30 236 259 0 238 233 239 0 +-.03415 -.07785 .0245 0 0 -1 1
6 238 41 0 ?240 191 235 236 0 0 3 30 239 260 0 191 236 241 0 +-.03415 -.07785 .0
245 0 1 0 16 191 43 0 ?168 242 238 239 0 0 3 31 241 261 0 242 239 243 0 +-.01065
 -.07185 -.041 0 -1 0 -.707106781186548 0 -.707106781186548 .015 16 242 46 0 ?24
4 245 191 241 0 0 3 30 243 262 0 245 241 246 0 +-.01065 -.07185 -.056 0 -1 0 16
 245 49 0 ?247 248 242 243 0 0 3 31 246 263 0 248 243 249 0 +-.01065 -.07785 -.0
41 0 1 0 -.707106781186548 0 -.707106781186548 .015 16 248 51 0 ?250 251 245 246
 0 0 3 30 249 264 0 251 246 252 0 +-.02565 -.07785 -.041 0 1 0 16 251 53 0 ?253
 254 248 249 0 0 3 30 252 268 0 255 249 256 0 +.03035 -.07785 -.0478881642036558
 0 0 1 16 255 62 0 ?257 258 259 252 0 0 3 30 256 269 0 258 252 260 0 +.03035 -.0
7785 .0245 -1 0 0 16 258 64 0 ?138 261 255 256 0 0 3 31 260 270 0 261 256 262 0
 +-.02715 -.07785 .0055 0 1 0 -.707106781186548 0 -.707106781186548 .007 16 261
 65 0 ?141 263 258 260 0 0 3 31 262 271 0 263 260 264 0 +-.02765 -.07785 -.00348
6100377805715 0 1 0 -1 0 0 .002 16 263 67 0 ?265 266 261 262 0 0 3 30 264 272 0
 266 262 267 0 +-.02565 -.07785 -.003486100377805715 0 0 -1 16 266 69 0 ?126 268
 263 264 0 0 3 31 267 273 0 268 264 269 0 +-.01265 -.07785 -.043 0 1 0 1 0 0 .00
27 16 268 71 0 ?105 270 266 267 0 0 3 30 269 278 0 271 267 272 0 +.03035 -.07785
 -.0478881642036558 0 .999459863081191 -.0328630809530668 16 271 85 0 ?273 274 2
75 269 0 0 3 30 272 279 0 274 269 276 0 +.03035 -.061915463532124 -.048412105165
406 -1806151481267855e-31 .03286308095306715 .999459863081191 16 274 87 0 ?277 2
78 271 272 0 0 3 30 276 280 0 278 272 279 0 +.03035 -.04286798311965155 -.028752
65376386525 -1930711308802385e-31 -1 0 16 278 89 0 ?280 281 274 276 0 0 3 30 279
 281 0 281 276 282 0 +.03035 -.04286798311965155 -.02875265376386525 0 -.0231118
2751057935 -.999732886039627 16 281 91 0 ?283 284 278 279 0 0 3 30 282 282 0 284
 279 285 0 +.03035 0 -.0255 0 -.878875411468366 -.477051371569468 16 284 93 0 ?2
86 287 281 282 0 0 3 30 285 283 0 287 282 288 0 +.03035 .006 -.0255 0 -1 -592118
946466751e-30 16 287 95 0 ?289 290 284 285 0 0 3 30 288 284 0 290 285 291 0 +.03
035 .006 .0245 0 -1 0 16 290 96 0 ?114 292 287 288 0 0 3 30 291 285 0 292 288 29
3 0 +.03035 -.04286798311965155 -.02875265376386525 1 789491928622334e-30 0 16 2
92 99 0 ?294 295 290 291 0 0 3 30 293 286 0 295 291 296 0 +.03935 -.061269044234
2945 -.02875265376386525 -1 0 0 16 295 101 0 ?93 297 292 293 0 0 3 30 296 287 0
 297 293 298 0 +.03935 -.04286798311965155 -.02875265376386525 0 -1 0 16 297 103
 0 ?299 300 295 296 0 0 3 32 298 288 0 300 296 301 0 +.03386104415481675 -.05124
51333237911 -.02875265376386525 0 0 -1 0 -1 0 .002551378093502145 .00255 16 300
 105 0 ?75 302 297 298 0 0 3 30 301 289 0 302 298 303 0 +.03935 -.04333659290033
95 -.0490229940586394 0 .0231118275105797 .999732886039627 16 302 109 0 ?81 304
 300 301 0 0 3 30 303 290 0 304 301 305 0 +.03035 -.0433365929003395 -.049022994
0586394 1 0 0 16 304 111 0 ?306 307 302 303 0 0 3 30 305 291 0 307 303 308 0 +.0
3935 -.0612690442342945 -.02875265376386525 0 -.03286308095306715 -.999459863081
191 16 307 114 0 ?309 310 304 305 0 0 3 30 308 292 0 310 305 311 0 +.03935 -.061
915463532124 -.048412105165406 0 .999459863081191 -.0328630809530675 16 310 116
 0 ?72 312 307 308 0 0 3 31 311 293 0 312 308 313 0 +-.01265 -.07185 -.043 0 -1
 0 1 0 0 .0027 16 312 121 0 ?66 314 310 311 0 0 3 30 313 294 0 314 311 315 0 +.0
3935 -.061915463532124 -.048412105165406 -1 0 0 16 314 126 0 ?96 316 312 313 0 0
 3 30 315 296 0 317 313 318 0 +.02435 -.0433365929003395 -.0490229940586394 1 0
 0 16 317 129 0 ?87 319 316 315 0 0 3 31 318 297 0 319 315 320 0 +.0338610441548
1675 -.051902378265873 -.0487413438310592 0 .0328630809530672 .999459863081191 -
1 0 0 .00255 16 319 131 0 ?60 321 317 318 0 0 3 30 320 298 0 321 318 322 0 +-.02
565 -.07185 -.041 0 0 1 16 321 135 0 ?323 324 319 320 0 0 3 31 322 299 0 324 320
 325 0 +-.02765 -.07185 -.003486100377805715 0 1 0 -1 0 0 .002 16 324 137 0 ?326
 327 321 322 0 0 3 31 325 300 0 327 322 328 0 +-.02715 -.07185 .0055 0 -1 0 -.70
7106781186548 0 -.707106781186548 .007 16 327 139 0 ?329 330 324 325 0 0 3 30 32
8 301 0 330 325 331 0 +-.03415 -.07185 .0185 1 0 0 16 330 140 0 ?332 333 327 328
 0 0 3 30 331 303 0 334 328 335 0 +.02435 0 .0185 0 -1 0 16 334 146 0 ?51 336 33
3 331 0 0 3 30 335 304 0 336 331 337 0 +.02435 0 -.0255 0 0 1 16 336 148 0 ?338
 339 334 335 0 0 3 30 337 305 0 339 335 340 0 +.02435 0 -.0255 0 -.8788754114683
66 -.477051371569468 16 339 150 0 ?63 341 336 337 0 0 3 30 340 306 0 341 337 342
 0 +.02435 0 -.0255 1 0 -59211894646675e-29 16 341 158 0 ?84 343 339 340 0 0 3 3
0 342 307 0 343 340 344 0 +-.0275388888888889 -.07785 -.001489189182737776 0 1 0
 16 343 161 0 ?54 345 341 342 0 0 3 30 344 308 0 345 342 346 0 +-.02565 -.07185
 -.003486100377805715 0 -1 0 16 345 162 0 ?108 347 343 344 0 0 3 31 346 309 0 34
7 344 348 0 +.01515 0 -.012 0 1 0 1 0 0 .006 16 347 169 0 ?41 40 345 346 0 0 3 3
1 348 310 0 40 346 349 0 +-.01985 0 -.012 0 1 0 1 0 0 .006 16 40 174 0 ?36 35 34
7 348 0 0 3 31 349 311 0 35 348 350 0 +-.00885 0 0 0 1 0 1 0 0 .00425 16 35 179
 0 ?31 29 40 349 0 0 3 30 350 312 0 29 349 30 0 +.02435 0 -.0255 -1 0 0 16 29 18
4 0 ?174 15 35 350 0 0 3 30 30 313 0 15 350 351 0 +-.03415 0 .0185 1 0 0 133 351
 428 0 352 30 353 0 +353 .02435 -.07785 -.0478881642036558 .01102316858347334 -.
0778500000005493 -.056 0 1 17 352 0 354 355 120 121 356 357 351 358 +137 353 429
 0 3 351 359 360 +361 362 0 ?133 359 430 0 356 353 363 0 +363 .01102316858346402
 -.07785 -.056 .02435 -.07785 -.0478881642036558 0 1 141 360 351 360 360 353 124
 361 320 0 364 365 366 367 +368 369 134 362 0 0 0 0 0 0 +370 371 136 370 2 3 2 2
 5 FFF1 372 373 374 135 371 2 0 45 6 372 1 2.07769142146971 .653506218751807 2.0
8213368089654 0 2.100343550302645 127 2 373 3 3 128 2 374 0 1 14 364 78 375 ?376
 377 354 10 361 +0 0 376 377 27 50 365 319 0 376 378 361 0 +-.02565 -.07785 -.05
6 0 0 -1 1 0 0 50 366 321 0 377 361 379 0 +.03035 .006 -.0645 1 0 0 0 -1 0 141 3
67 353 380 380 361 126 368 FF3 3 5 4 1 5 3 2 FFF2 3 381 382 383 384 385 125 369
 0 1 1.476952771044646 2.100343550302645 0 1 1.476952771044646 2.100343550302645
 2 BBBBBBBB????0 0 0 0 45 60 381 .0111309935576375 -.0716170244690127 -.056 .011
09437651756226 -.0736946713643895 -.056 .01105844031808504 -.0757723298718946 -.
056 .01102316858347334 -.0778500000005493 -.056 .0134424050291054 -.071657761442
4943 -.056 .01341681001823624 -.0737350978477434 -.0560000338815884 .01339198866
206402 -.0758124451656658 -.0559999641054731 .0133676474405045 -.077889801235070
4 -.056 .01883893580245425 -.071752871436418 -.0547342091217977 .018839247404388
7 -.0738294848276599 -.0547218584287879 .0188401887402381 -.0759061046970087 -.0
547095646812493 .01884154843361475 -.0779827293570359 -.054697124684775 .0228942
3211754015 -.0718243431326031 -.0508022540370059 .02290145698114095 -.0739001900
425808 -.0507546355635537 .02290838020376945 -.0759760398588762 -.05070660248690
14 .0229160698186083 -.0780519007981511 -.0506588121566822 .02435 -.07185 -.0480
854492503115 .02435 -.073925403073941 -.0480172082515995 .02435 -.07600081774746
94 -.0479489668714834 .02435 -.0780762440295969 -.0478807251096667 127 3 382 4 1
 4 127 2 383 4 4 128 3 384 0 .4285714285714285 1 128 2 385 1.476952771044646 2.1
00343550302645 141 380 386 367 367 361 137 386 442 0 3 387 388 389 +361 390 0 ?1
33 387 441 0 391 392 386 0 +386 .011126890384598 -.07185 -.056 .02435 -.07185 -.
0480854492503115 0 1 133 388 443 0 102 386 393 0 +393 .02435 -.07185 -.048085449
2503115 .011126890384598 -.07185 -.056 0 1 141 389 387 389 389 386 134 390 0 0 0
 0 0 0 +394 395 136 394 2 3 2 2 5 FFF1 396 397 398 135 395 2 0 45 6 396 21977620
2096151e-25 1.500253934135825 .65390013179761 1.481620450554102 1 1.476952771044
646 127 2 397 3 3 128 2 398 0 1 17 102 0 399 132 99 100 391 400 388 355 -137 393
 444 0 3 388 401 402 +403 404 0 ?133 401 446 0 270 393 405 0 +405 .0111268903845
98 -.0718500000005064 -.056 -.01065 -.07185 -.056 0 .021776890384598 141 402 388
 402 402 393 50 403 328 0 406 407 408 409 +-.02715 -.07185 -.0645 0 1 0 0 0 1 13
4 404 0 0 0 0 0 0 +410 411 136 410 2 9 2 5 5 FFF1 412 413 414 135 411 2 0 45 18
 412 .01641455074968855 .0515 .0146212098054483 .0505387608752814 .0131479632605
2092 .0491337719272358 .01167579556826914 .0477298118470949 .01062984591093036 .
0459825723963487 .00958492347390575 .0442370488980337 .00904226312492253 .042274
23881436455 .00849999999675115 .040312865483936 .0085 .038276890384598 127 5 413
 3 2 2 2 3 128 5 414 0 .25 .5 .75 1 14 406 133 415 ?416 417 418 10 403 +0 0 416
 417 27 50 407 327 0 416 419 403 0 +.03035 -.0621596843793689 -.0484040749785321
 0 -.0328630809530672 -.999459863081191 0 .999459863081191 -.0328630809530672 50
 408 329 0 417 403 420 0 +.02435 -.035925 -.023 -1 0 0 0 0 1 141 409 393 409 409
 403 14 417 144 421 ?406 422 423 10 408 +0 0 406 422 27 50 420 330 0 422 408 424
 0 +.03969970927672785 -.061915463532124 -.048412105165406 0 -.999459863081191 .
03286308095306725 -1 0 0 14 422 151 425 ?417 426 427 10 420 +0 0 417 426 27 51 4
24 331 0 426 420 428 0 +.03386104415481675 -.051902378265873 -.0487413438310592
 0 -.03286308095306725 -.999459863081191 .00255 -1 0 0 14 426 153 429 ?422 430 4
31 10 424 -0 0 422 430 27 50 428 332 0 430 424 432 0 +.03135 0 -.0255 0 .4770513
71569468 -.878875411468366 0 -.878875411468366 -.477051371569468 14 430 156 433
 ?426 434 435 10 428 +0 0 426 434 27 51 432 333 0 434 428 436 0 +-.02765 -.03742
5 -.003486100377805715 0 1 0 .002 -1 0 0 14 434 159 437 ?430 438 439 10 432 -0 0
 430 438 27 50 436 334 0 438 432 440 0 +-.02565 -.07185 -.0505 -1 0 0 0 0 1 14 4
38 163 441 ?434 442 443 10 436 +0 0 434 442 27 51 440 335 0 442 436 444 0 +-.027
15 -.037425 .0055 0 1 0 .007 -.707106781186548 0 -.707106781186548 14 442 165 44
5 ?438 446 447 10 440 +0 0 438 446 27 51 444 336 0 446 440 448 0 +.01515 .006 -.
012 0 1 0 .006 1 0 0 14 446 167 449 ?442 450 451 10 444 -0 0 442 450 27 51 448 3
37 0 450 444 452 0 +-.01985 .006 -.012 0 1 0 .006 1 0 0 14 450 172 453 ?446 454
 455 10 448 -0 0 446 454 27 51 452 338 0 454 448 456 0 +-.00885 .006 0 0 1 0 .00
425 1 0 0 14 454 177 457 ?450 458 459 10 452 -0 0 450 458 27 50 456 339 0 458 45
2 23 0 +.03415 0 -.0255 0 0 -1 -1 0 0 14 458 182 460 ?454 461 462 10 456 +0 0 45
4 461 27 50 23 340 0 461 456 11 0 +0 0 0 0 -1 0 0 0 1 14 461 185 463 ?458 21 33
 10 23 +0 0 458 21 27 81 1 463 424 464 461 465 0 460 466 467 14 21 191 466 ?461
 0 468 10 11 +0 0 461 0 27 15 33 190 0 31 461 38 13 27 2 0 0 0 0 0 0 14 21 15 38
 189 0 36 461 469 15 469 188 0 41 461 470 17 41 0 469 41 41 37 471 347 0 471 +15
 470 186 0 203 461 0 17 203 0 470 46 171 172 188 204 0 201 -17 46 0 470 338 203
 42 174 29 0 472 -17 171 0 470 203 150 169 186 227 0 181 -17 201 0 198 188 199 1
72 210 211 0 0 +17 210 0 462 208 174 175 201 211 0 199 -15 462 183 0 210 458 0 1
7 208 0 462 289 210 160 177 209 0 207 +17 174 0 462 210 472 172 46 29 0 203 +17
 472 0 462 174 289 42 84 341 0 473 -17 289 0 462 472 208 82 162 287 0 474 +17 84
 0 435 286 473 82 472 341 0 289 +17 473 0 435 84 475 42 63 339 0 476 -15 435 157
 0 473 430 0 17 475 0 435 473 286 61 87 317 0 477 -17 63 0 423 478 476 61 473 33
9 0 475 +17 476 0 423 63 479 42 338 336 0 0 -15 423 145 0 478 417 0 17 479 0 423
 476 480 47 51 334 0 0 -17 338 0 470 150 46 47 476 336 0 479 +17 150 0 470 171 3
38 148 28 15 0 481 -17 28 0 468 51 481 47 150 15 0 338 +17 481 0 468 28 147 148
 231 229 0 186 -15 468 192 0 147 21 0 17 147 0 468 481 51 145 332 330 0 482 -17
 231 0 180 234 186 145 481 229 0 0 +17 186 0 180 231 181 148 171 227 0 0 +17 234
 0 180 483 231 142 482 232 0 0 +17 483 0 180 189 234 139 237 235 0 0 -17 482 0 3
99 332 144 145 234 232 0 231 -15 399 134 0 484 406 0 17 332 0 399 99 482 49 147
 330 0 0 +17 144 0 399 482 485 142 329 327 0 237 -17 485 0 399 144 323 52 326 32
4 0 0 -17 329 0 447 111 237 52 144 327 0 485 +17 237 0 447 329 141 142 483 235 0
 234 +15 447 166 0 111 442 0 17 141 0 447 237 111 139 486 261 0 240 +17 111 0 44
7 141 329 109 54 343 0 487 -17 486 0 488 265 240 109 141 261 0 0 -17 240 0 488 4
86 138 139 189 238 0 483 +15 488 55 0 489 490 0 17 138 0 488 240 257 136 491 258
 0 190 +17 189 0 180 168 483 136 240 238 0 0 -17 257 0 488 138 492 112 493 255 0
 0 +17 491 0 494 165 190 112 138 258 0 257 -17 190 0 494 491 192 136 168 191 0 1
89 -15 494 118 0 491 495 0 17 192 0 494 190 165 166 194 196 0 182 -17 165 0 494
 192 491 163 114 290 0 219 -17 194 0 193 207 182 163 192 196 0 0 +17 207 0 193 1
77 194 160 219 217 0 0 -17 219 0 496 114 162 163 207 217 0 194 +15 496 84 0 273
 377 0 17 114 0 496 493 219 112 165 290 0 491 +17 162 0 496 219 474 160 289 287
 0 208 -17 474 0 496 162 283 82 286 284 0 0 -17 283 0 496 474 497 85 498 281 0 0
 +17 286 0 435 475 84 85 474 284 0 283 +17 497 0 496 283 277 88 280 278 0 0 -17
 498 0 499 294 500 88 283 281 0 497 -15 499 108 0 294 501 0 17 294 0 499 502 498
 79 90 292 0 0 +17 500 0 499 498 502 85 306 304 0 286 -17 502 0 499 500 294 70 8
1 302 0 0 -17 306 0 503 504 87 70 500 304 0 502 +15 503 125 0 306 416 0 17 504 0
 503 96 306 67 72 310 0 309 -17 87 0 503 306 477 85 475 317 0 500 +17 477 0 503
 87 505 61 478 316 0 0 -17 505 0 503 477 506 97 120 275 0 391 +17 478 0 423 480
 63 97 477 316 0 505 +16 316 127 0 ?478 317 314 24 0 0 3 133 24 450 0 316 507 12
 0 +12 .02435 -.0433365929003395 -.0490229940586394 .02435 -.07185 -.04808544925
03115 0 .02852881656673815 30 507 449 0 3 508 24 509 +.02435 -.07185 .0185 53355
7063712968e-31 0 -1 133 508 448 0 333 405 507 0 +507 .02435 -.07185 .0185 .02435
 -.07185 -.0480854492503115 0 .0665854492503115 141 509 508 509 509 507 16 333 1
42 0 ?99 334 330 508 0 0 3 30 405 447 0 3 401 508 510 +.011126890384598 -.071850
0000005064 -.056 -1 2325483619043745e-26 0 141 510 401 510 510 405 17 99 0 399 1
02 332 97 480 333 0 478 +17 480 0 423 479 478 49 99 333 0 332 -17 506 0 503 505
 117 118 492 259 0 356 -17 120 0 354 352 391 118 505 275 0 506 -16 275 82 0 ?505
 271 400 511 0 0 3 17 391 0 354 120 355 97 102 400 387 0 +15 354 79 0 352 364 0
 17 355 0 354 391 352 100 123 512 0 513 +16 400 80 0 1e-5 391 275 512 0 0 0 3 16
 512 77 0 ?355 400 270 514 0 0 3 16 270 75 0 ?132 512 268 401 0 0 3 133 514 437
 0 512 515 516 0 +516 .01102316858349362 -.0778500000005497 -.056 .0111268903846
078 -.0718500000005066 -.056 6.28256230686797 6.28318530717959 30 515 436 0 3 51
7 514 518 +.02435 -.07785 -.0478881642036558 1 0 0 31 516 438 0 3 514 519 520 +9
.64188852042464 -.241337553576446 -.056 0 0 -1 -.999845181272243 .01759583719733
495 0 9.63225288317684 133 519 439 0 254 516 392 0 +392 -.01065 -.07785 -.056 .0
1102316858346402 -.0778500000005492 -.056 0 .021673168583464 141 520 514 520 520
 516 16 254 56 0 ?358 357 251 519 0 0 3 30 392 440 0 3 519 387 521 +-.01065 -.07
785 -.056 1 -253397508171793e-25 0 141 521 519 521 521 392 17 358 0 488 356 489
 121 129 254 0 0 +16 357 58 0 1e-5 352 259 254 0 0 0 3 16 259 60 0 ?492 255 357
 517 0 0 3 17 492 0 488 257 356 115 506 259 0 0 +133 517 435 0 259 522 515 0 +51
5 .02435 -.07785 -.0478881642036558 .03035 -.07785 -.0478881642036558 0 .006 30
 522 434 0 3 511 517 523 +.02435 -.07785 -.0478881642036558 0 .999459863081191 -
.03286308095306695 133 511 433 0 275 363 522 0 +522 .02435 -.07785 -.04788816420
36558 .02435 -.07185 -.0480854492503115 0 .00600324257294622 141 523 511 523 523
 522 137 363 431 0 3 359 511 524 +378 525 0 ?141 524 359 524 524 363 50 378 318
 0 490 526 365 527 +.03035 -.07785 -.0645 0 -1 0 -1 0 0 134 525 0 0 0 0 0 0 +528
 529 136 528 2 9 2 5 5 FFF1 530 531 532 135 529 2 0 45 18 530 .019326831416536 -
.0085 .0172635037753374 -.00849999999710348 .01527582333175865 -.009057214128661
16 .01328957820374154 -.00961402589266686 .01152578536541286 -.0106874581539828
 .00976370093571462 -.01175985068948768 .00835532758657772 -.01326961266208522 .
00694797080960591 -.01477828487961306 .006 -.01661183579634415 127 5 531 3 2 2 2
 3 128 5 532 0 .25 .5 .75 1 14 490 54 533 ?534 376 535 10 378 +0 0 534 376 27 51
 526 317 0 534 536 378 0 +-.01065 -.07485 -.041 0 1 0 .015 -.707106781186548 0 -
.707106781186548 141 527 363 527 527 378 14 534 44 537 ?185 490 538 10 526 +0 0
 185 490 27 50 536 316 0 185 539 526 0 +-.03415 0 -.0255 -1 0 0 0 0 1 14 185 31
 540 ?206 534 180 10 536 +0 0 206 534 27 50 539 315 0 206 541 536 0 +-.03415 .00
6 -.0645 0 1 0 1 0 0 14 206 13 542 ?200 185 543 10 539 +0 0 200 185 27 51 541 31
4 0 200 0 539 0 +-.01915 0 -.0105 0 1 0 .015 -.707106781186548 0 -.7071067811865
48 14 200 3 544 ?0 206 198 10 541 +0 0 0 206 27 81 1 544 346 464 200 545 0 0 542
 546 80 1 464 547 548 8015 0 0 0 0 3 5 0 0 0 FFFFTFFFFFFFFFFF2 81 2 545 345 547
 200 549 544 0 550 551 552 81 1 542 349 464 206 550 0 544 540 553 83 1 546 0 81
 2 550 348 547 206 554 542 545 555 556 557 81 1 540 352 464 185 555 0 542 537 55
8 83 1 553 0 81 2 555 351 547 185 559 540 550 560 561 562 81 1 537 355 464 534 5
60 0 540 533 563 83 1 558 0 81 2 560 354 547 534 564 537 555 565 566 567 81 1 53
3 358 464 490 565 0 537 568 569 83 1 563 0 81 2 565 357 547 490 570 533 560 571
 572 573 81 1 568 361 464 376 571 0 533 375 574 83 1 569 0 14 376 73 568 ?490 36
4 575 10 365 +0 0 490 364 27 81 2 571 360 547 376 576 568 565 577 578 579 81 1 3
75 364 464 364 577 0 568 580 581 83 1 574 0 81 2 577 363 547 364 582 375 571 583
 584 585 81 1 580 367 464 377 583 0 375 586 587 83 1 581 0 14 377 83 580 ?364 58
8 496 10 366 +0 0 364 588 27 81 2 583 366 547 377 589 580 577 590 591 592 81 1 5
86 370 464 588 590 0 580 593 594 83 1 587 0 14 588 97 586 ?377 501 595 10 379 +0
 0 377 501 27 81 2 590 369 547 588 596 586 583 597 598 599 81 1 593 373 464 501
 597 0 586 600 601 83 1 594 0 14 501 107 593 ?588 602 499 10 603 +0 0 588 602 27
 81 2 597 372 547 501 604 593 590 605 606 607 81 1 600 376 464 602 605 0 593 608
 609 83 1 601 0 14 602 112 600 ?501 495 610 10 611 +0 0 501 495 27 81 2 605 375
 547 602 612 600 597 613 614 615 81 1 608 379 464 495 613 0 600 616 617 83 1 609
 0 14 495 117 608 ?602 618 494 10 619 +0 0 602 618 27 81 2 613 378 547 495 620 6
08 605 621 622 623 81 1 616 382 464 618 621 0 608 624 625 83 1 617 0 14 618 119
 616 ?495 416 626 10 419 -0 0 495 416 27 81 2 621 381 547 618 627 616 613 628 62
9 630 81 1 624 385 464 416 628 0 616 415 631 83 1 625 0 14 416 124 624 ?618 406
 632 10 407 +0 0 618 406 27 81 2 628 384 547 416 633 624 621 634 635 636 81 1 41
5 388 464 406 634 0 624 421 637 83 1 631 0 81 2 634 387 547 406 638 415 628 639
 640 641 81 1 421 391 464 417 639 0 415 425 642 83 1 637 0 81 2 639 390 547 417
 643 421 634 644 645 646 81 1 425 394 464 422 644 0 421 429 647 83 1 642 0 81 2
 644 393 547 422 648 425 639 649 650 651 81 1 429 397 464 426 649 0 425 433 652
 83 1 647 0 81 2 649 396 547 426 653 429 644 654 655 656 81 1 433 400 464 430 65
4 0 429 437 657 83 1 652 0 81 2 654 399 547 430 658 433 649 659 660 661 81 1 437
 403 464 434 659 0 433 441 662 83 1 657 0 81 2 659 402 547 434 663 437 654 664 6
65 666 81 1 441 406 464 438 664 0 437 445 667 83 1 662 0 81 2 664 405 547 438 66
8 441 659 669 670 671 81 1 445 409 464 442 669 0 441 449 672 83 1 667 0 81 2 669
 408 547 442 673 445 664 674 675 676 81 1 449 412 464 446 674 0 445 453 677 83 1
 672 0 81 2 674 411 547 446 678 449 669 679 680 681 81 1 453 415 464 450 679 0 4
49 457 682 83 1 677 0 81 2 679 414 547 450 683 453 674 684 685 686 81 1 457 418
 464 454 684 0 453 460 687 83 1 682 0 81 2 684 417 547 454 688 457 679 689 690 6
91 81 1 460 421 464 458 689 0 457 463 692 83 1 687 0 81 2 689 420 547 458 693 46
0 684 465 694 695 83 1 692 0 80 2 547 696 697 8014 0 0 0 0 3 5 0 0 0 FFFFTFFFFFF
FFFFF2 1 81 1 693 419 698 458 0 689 688 699 700 81 2 465 423 547 461 699 463 689
 701 702 703 83 4 694 .99998468160538 0 .99998468160538 .99998468160538 82 1 695
 1 81 1 699 422 698 461 0 465 693 704 705 81 2 701 426 547 21 704 466 465 0 706
 707 83 4 702 .99998468160538 0 .99998468160538 .99998468160538 82 1 703 1 81 1
 704 425 698 21 0 701 699 0 708 81 1 466 427 464 21 701 0 463 0 709 83 4 706 .99
998468160538 0 .99998468160538 .99998468160538 82 1 707 1 83 1 709 0 80 1 698 0
 710 8001 0 0 0 0 3 5 0 0 0 FFFFTFTFFFFFFFFF2 83 3 708 .996078431372549 .9960784
31372549 1 79 15 710 SDL/TYSA_COLOUR83 3 705 .996078431372549 .996078431372549 1
 81 1 688 416 698 454 0 684 683 693 711 83 3 700 .996078431372549 .9960784313725
49 1 81 1 683 413 698 450 0 679 678 688 712 83 3 711 .996078431372549 .996078431
372549 1 81 1 678 410 698 446 0 674 673 683 713 83 3 712 .996078431372549 .99607
8431372549 1 81 1 673 407 698 442 0 669 668 678 714 83 3 713 .996078431372549 .9
96078431372549 1 81 1 668 404 698 438 0 664 663 673 715 83 3 714 .99607843137254
9 .996078431372549 1 81 1 663 401 698 434 0 659 658 668 716 83 3 715 .9960784313
72549 .996078431372549 1 81 1 658 398 698 430 0 654 653 663 717 83 3 716 .996078
431372549 .996078431372549 1 81 1 653 395 698 426 0 649 648 658 718 83 3 717 .99
6078431372549 .996078431372549 1 81 1 648 392 698 422 0 644 643 653 719 83 3 718
 .996078431372549 .996078431372549 1 81 1 643 389 698 417 0 639 638 648 720 83 3
 719 .996078431372549 .996078431372549 1 81 1 638 386 698 406 0 634 633 643 721
 83 3 720 .996078431372549 .996078431372549 1 81 1 633 383 698 416 0 628 627 638
 722 83 3 721 .996078431372549 .996078431372549 1 81 1 627 380 698 618 0 621 620
 633 723 83 3 722 .996078431372549 .996078431372549 1 81 1 620 377 698 495 0 613
 612 627 724 83 3 723 .996078431372549 .996078431372549 1 81 1 612 374 698 602 0
 605 604 620 725 83 3 724 .996078431372549 .996078431372549 1 81 1 604 371 698 5
01 0 597 596 612 726 83 3 725 .996078431372549 .996078431372549 1 81 1 596 368 6
98 588 0 590 589 604 727 83 3 726 .996078431372549 .996078431372549 1 81 1 589 3
65 698 377 0 583 582 596 728 83 3 727 .996078431372549 .996078431372549 1 81 1 5
82 362 698 364 0 577 576 589 729 83 3 728 .996078431372549 .996078431372549 1 81
 1 576 359 698 376 0 571 570 582 730 83 3 729 .996078431372549 .996078431372549
 1 81 1 570 356 698 490 0 565 564 576 731 83 3 730 .996078431372549 .99607843137
2549 1 81 1 564 353 698 534 0 560 559 570 732 83 3 731 .996078431372549 .9960784
31372549 1 81 1 559 350 698 185 0 555 554 564 733 83 3 732 .996078431372549 .996
078431372549 1 81 1 554 347 698 206 0 550 549 559 734 83 3 733 .996078431372549
 .996078431372549 1 81 1 549 344 698 200 0 545 0 554 735 83 3 734 .9960784313725
49 .996078431372549 1 83 3 735 .996078431372549 .996078431372549 1 79 21 697 SDL
/TYSA_REFLECTIVITY83 4 690 .99998468160538 0 .99998468160538 .99998468160538 82
 1 691 1 83 4 685 .99998468160538 0 .99998468160538 .99998468160538 82 1 686 1 8
3 4 680 .99998468160538 0 .99998468160538 .99998468160538 82 1 681 1 83 4 675 .9
9998468160538 0 .99998468160538 .99998468160538 82 1 676 1 83 4 670 .99998468160
538 0 .99998468160538 .99998468160538 82 1 671 1 83 4 665 .99998468160538 0 .999
98468160538 .99998468160538 82 1 666 1 83 4 660 .99998468160538 0 .9999846816053
8 .99998468160538 82 1 661 1 83 4 655 .99998468160538 0 .99998468160538 .9999846
8160538 82 1 656 1 83 4 650 .99998468160538 0 .99998468160538 .99998468160538 82
 1 651 1 83 4 645 .99998468160538 0 .99998468160538 .99998468160538 82 1 646 1 8
3 4 640 .99998468160538 0 .99998468160538 .99998468160538 82 1 641 1 83 4 635 .9
9998468160538 0 .99998468160538 .99998468160538 82 1 636 1 15 632 130 0 60 416 5
03 17 60 0 632 60 60 58 736 319 0 736 +17 736 0 431 736 736 58 60 319 0 0 -15 43
1 155 0 736 426 737 15 737 154 0 738 426 0 17 738 0 737 738 738 73 75 300 0 0 -1
7 75 0 595 75 75 73 738 300 0 738 +15 595 104 0 75 588 739 15 739 98 0 90 588 0
 17 90 0 739 280 740 88 294 292 0 498 -17 280 0 739 741 90 91 497 278 0 277 +17
 740 0 739 90 741 79 299 297 0 294 -17 741 0 739 740 280 76 93 295 0 0 -17 299 0
 610 309 81 76 740 297 0 741 +15 610 113 0 299 602 0 17 309 0 610 72 299 67 78 3
07 0 0 +17 81 0 610 299 72 79 502 302 0 740 +17 72 0 610 81 309 70 504 310 0 306
 +17 78 0 427 93 69 76 309 307 0 299 -15 427 152 0 93 422 0 17 93 0 427 742 78 9
1 741 295 0 280 +17 69 0 427 78 742 67 96 314 0 504 -17 742 0 427 69 93 94 277 2
74 0 273 -17 96 0 503 117 504 94 69 314 0 742 +17 117 0 503 506 96 115 273 271 0
 493 -17 273 0 496 277 493 94 117 271 0 0 +17 493 0 496 273 114 115 257 255 0 49
2 -17 277 0 496 497 273 91 742 274 0 0 +83 4 629 .99998468160538 0 .999984681605
38 .99998468160538 82 1 630 1 15 626 123 0 743 618 744 51 419 326 0 618 619 407
 0 +-.01265 -.07785 -.043 0 -1 0 .0027 1 0 0 50 619 325 0 495 611 419 0 +-.03415
 -.07785 .0245 0 0 1 0 1 0 50 611 324 0 602 603 619 0 +.03935 -.0526064729678386
 -.0426787927820115 1 0 0 0 0 -1 50 603 323 0 501 379 611 0 +.02435 -.0433365929
003395 -.0490229940586394 0 .999732886039627 -.02311182751057955 0 .023111827510
57955 .999732886039627 50 379 322 0 588 366 603 0 +.03935 -.0411509175498727 -.0
2875265376386525 0 0 1 0 -1 0 17 743 0 626 743 743 103 105 268 0 0 -15 744 120 0
 745 618 0 17 745 0 744 745 745 64 66 312 0 0 -17 66 0 418 66 66 64 745 312 0 74
5 +15 418 143 0 66 406 399 17 105 0 535 105 105 103 743 268 0 743 +15 535 70 0 1
05 490 488 83 4 622 .99998468160538 0 .99998468160538 .99998468160538 82 1 623 1
 83 4 614 .99998468160538 0 .99998468160538 .99998468160538 82 1 615 1 83 4 606
 .99998468160538 0 .99998468160538 .99998468160538 82 1 607 1 83 4 598 .99998468
160538 0 .99998468160538 .99998468160538 82 1 599 1 83 4 591 .99998468160538 0 .
99998468160538 .99998468160538 82 1 592 1 83 4 584 .99998468160538 0 .9999846816
0538 .99998468160538 82 1 585 1 83 4 578 .99998468160538 0 .99998468160538 .9999
8468160538 82 1 579 1 15 575 74 0 746 376 0 17 746 0 575 513 129 130 247 245 0 2
44 -17 513 0 575 123 746 100 132 270 0 0 -17 129 0 575 746 123 127 358 254 0 489
 -17 247 0 538 250 244 127 746 245 0 0 +17 244 0 538 247 253 130 484 242 0 0 +15
 538 45 0 244 534 0 17 253 0 538 244 250 133 747 251 0 484 +17 484 0 399 323 132
 133 244 242 0 0 -17 323 0 399 485 484 55 135 321 0 0 +17 132 0 399 484 102 130
 513 270 0 746 +17 135 0 443 747 57 133 323 321 0 253 -15 443 164 0 747 438 0 17
 747 0 443 748 135 124 253 251 0 250 -17 57 0 443 135 748 55 108 345 0 326 -17 7
48 0 443 57 747 106 126 266 0 265 -17 108 0 439 487 326 106 57 345 0 748 +17 326
 0 439 108 54 55 485 324 0 323 +15 439 160 0 487 434 0 17 54 0 439 326 487 52 11
1 343 0 329 +17 487 0 439 54 108 109 265 263 0 486 -17 265 0 488 126 486 106 487
 263 0 0 +17 126 0 488 489 265 124 748 266 0 747 +17 489 0 488 358 126 127 250 2
48 0 247 -17 250 0 538 253 247 124 489 248 0 0 +17 123 0 575 129 513 121 355 512
 0 352 -83 4 572 .99998468160538 0 .99998468160538 .99998468160538 82 1 573 1 83
 4 566 .99998468160538 0 .99998468160538 .99998468160538 82 1 567 1 83 4 561 .99
998468160538 0 .99998468160538 .99998468160538 82 1 562 1 83 4 556 .999984681605
38 0 .99998468160538 .99998468160538 82 1 557 1 83 4 551 .99998468160538 0 .9999
8468160538 .99998468160538 82 1 552 1 79 21 548 SDL/TYSA_TRANSLUCENCY15 543 28 0
 153 206 749 17 153 0 543 153 153 151 750 225 0 750 +15 749 25 0 156 206 751 17
 156 0 749 156 156 154 752 223 0 752 +15 751 22 0 159 206 193 17 159 0 751 159 1
59 157 753 221 0 753 +17 753 0 459 753 753 157 159 221 0 0 -15 459 181 0 753 454
 754 15 754 178 0 34 454 0 17 34 0 754 34 34 16 31 35 0 0 -17 752 0 455 752 752
 154 156 223 0 0 -15 455 176 0 752 450 755 15 755 173 0 39 450 0 17 39 0 755 39
 39 32 36 40 0 0 -17 750 0 451 750 750 151 153 225 0 0 -15 451 171 0 750 446 756
 15 756 168 0 471 446 0 17 471 0 756 471 471 37 41 347 0 0 -17 356 0 488 492 358
 118 352 357 359 0 -141 518 517 518 518 515 17 51 0 468 147 28 49 479 334 0 480
 +83 1 467 0 19 22 193 0 3 0 14 10 0 S0 141 25 24 25 25 12 74 20 20 6 0 0 757 18
 704 701 466 8 0 0 0 0 0 0 0 0 0 0 0 0 0 0 81 1 757 342 758 3 0 18 0 0 759 81 1
 18 343 760 3 757 8 0 0 761 80 1 760 464 762 8041 0 0 0 0 3 5 0 0 0 TTTFFFFFFFFF
FFFF2 83 1 761 0 79 23 762 SDL/TYSA_TRANSLUCENCY_280 1 758 698 763 8040 0 0 0 0
 3 5 0 0 0 TTTFFFFFFFFFFFFF2 83 3 759 .996078431372549 .996078431372549 1 79 17
 763 SDL/TYSA_COLOUR_280 1 17 764 765 8017 0 0 0 0 0 0 0 0 0 TTTTTTTTTTTTTFTF3 8
4 6 19 Solid179 13 765 SDL/TYSA_NAME13 4 3 0 2 0 0 0 7 6 0 29 5 4 0 7 0 0 0 0 -.
0255 19 6 1 0 2 0 0 4 0 V0 18 7 2 0 0 0 0 5 ?4 1 0 
