**ABCDEFGHIJKLMNOPQRSTUVWXYZabcdefghijklmnopqrstuvwxyz**************************
**PARASOLID !"#$%&'()*+,-./:;<=>?@[\]^_`{|}~0123456789**************************
**PART1;
MC=;
MC_MODEL=;
MC_ID=unknown;
OS=Windows;
OS_RELEASE=;
FRU=;
APPL=Autodesk Inventor 2024;
SITE=unknown;
USER=unknown;
FORMAT=text;
GUISE=transmit;
KEY=C23[i3][R][1];
FILE=C:\Users\juanj\Documents\Documentos\Unisabana\Shell\C23 DESING\A23[F]\PFA23[F]\C23[i3][R][1].x_t;
DATE=2023-Jun-09 11:28:41;
**PART2;
SCH=SCH_3500195_35002;
USFLD_SIZE=0;
**PART3;
**END_OF_HEADER*****************************************************************
T51 : TRANSMIT FILE created by modeller version 350019517 SCH_3500195_350020 176
 19 1 19 0 0 0 0 2 3 4 5 6 7 8 9 10 11 12 13 14 15 16 17 18 19 20 12 2 4 0 0 0 0
 0 0 0 0 0 1e3 1e-8 0 3 0 1 0 2 1 21 0 0 0 22 0 0 23 0 24 0 0 0 0 0 0 0 12 3 4 0
 0 0 0 0 0 0 0 0 1e3 1e-8 0 4 2 1 0 2 1 25 0 0 0 26 0 0 27 0 28 0 0 0 0 0 0 0 12
 4 4 0 0 0 0 0 0 0 0 0 1e3 1e-8 0 5 3 1 0 2 1 29 0 0 0 30 0 0 31 0 32 0 0 0 0 0
 0 0 12 5 4 0 0 0 0 0 0 0 0 0 1e3 1e-8 0 6 4 1 0 2 1 33 0 0 0 34 0 0 35 0 36 0 0
 0 0 0 0 0 12 6 4 0 0 0 0 0 0 0 0 0 1e3 1e-8 0 7 5 1 0 2 1 37 0 0 0 38 0 0 39 0
 40 0 0 0 0 0 0 0 12 7 4 0 0 0 0 0 0 0 0 0 1e3 1e-8 0 8 6 1 0 2 1 41 0 0 0 42 0
 0 43 0 44 0 0 0 0 0 0 0 12 8 4 0 0 0 0 0 0 0 0 0 1e3 1e-8 0 9 7 1 0 2 1 45 0 0
 0 46 0 0 47 0 48 0 0 0 0 0 0 0 12 9 4 0 0 0 0 0 0 0 0 0 1e3 1e-8 0 10 8 1 0 2 1
 49 0 0 0 50 0 0 51 0 52 0 0 0 0 0 0 0 12 10 4 0 0 0 0 0 0 0 0 0 1e3 1e-8 0 11 9
 1 0 2 1 53 0 0 0 54 0 0 55 0 56 0 0 0 0 0 0 0 12 11 12 57 58 0 0 0 0 0 0 0 1e3
 1e-8 0 12 10 1 0 2 1 59 0 0 60 61 0 0 62 0 63 0 0 0 0 0 0 0 12 12 12 64 65 0 0
 0 0 0 0 0 1e3 1e-8 0 13 11 1 0 2 1 66 0 0 67 68 0 0 69 0 70 0 0 0 0 0 0 0 12 13
 7 71 72 0 0 0 0 0 0 0 1e3 1e-8 0 14 12 1 0 2 1 73 0 0 74 0 0 0 75 0 0 0 0 0 0 0
 0 0 12 14 12 76 77 0 0 0 0 0 0 0 1e3 1e-8 0 15 13 1 0 2 1 78 0 0 79 80 0 0 81 0
 82 0 0 0 0 0 0 0 12 15 12 83 84 0 0 0 0 0 0 0 1e3 1e-8 0 16 14 1 0 2 1 85 0 0 8
6 87 0 0 88 0 89 0 0 0 0 0 0 0 12 16 4 0 0 0 0 0 0 0 0 0 1e3 1e-8 0 17 15 1 0 2
 1 90 0 0 0 91 0 0 92 0 93 0 0 0 0 0 0 0 12 17 4 0 0 0 0 0 0 0 0 0 1e3 1e-8 0 18
 16 1 0 2 1 94 0 0 0 95 0 0 96 0 97 0 0 0 0 0 0 0 12 18 4 0 0 0 0 0 0 0 0 0 1e3
 1e-8 0 19 17 1 0 2 1 98 0 0 0 99 0 0 100 0 101 0 0 0 0 0 0 0 12 19 4 0 0 0 0 0
 0 0 0 0 1e3 1e-8 0 20 18 1 0 2 1 102 0 0 0 103 0 0 104 0 105 0 0 0 0 0 0 0 12 2
0 434 106 107 0 0 0 0 0 0 0 1e3 1e-8 0 0 19 1 0 1 1 108 0 109 110 111 0 0 112 11
3 114 0 0 0 0 0 0 0 81 1 106 434 115 20 116 0 0 0 117 70 107 0 4 T20 0 0 6 20 1
 118 118 13 108 195 0 20 0 119 0 0 120 0 50 109 338 0 119 121 0 0 +4440892098500
63e-32 -.0305 -.057 0 0 -1 -1 0 0 30 110 307 0 113 122 0 0 +-.0255 -.027 -.057 1
 0 0 29 111 242 0 114 123 0 .0255 -.027 -.057 19 112 1 0 20 120 0 124 0 V0 16 11
3 190 0 ?125 0 126 110 0 0 20 18 114 180 0 125 0 127 111 ?20 17 125 0 128 129 13
0 114 131 113 0 132 +18 127 177 0 133 114 134 123 ?20 17 133 0 135 136 137 127 1
38 126 0 139 +18 134 171 0 140 127 141 142 ?20 29 123 241 0 127 142 111 .0255 .0
26 -.057 29 142 240 0 134 143 123 .0255 .0319562651734034 -.057 29 143 239 0 141
 144 142 .0085 825931382398998e-33 .0073 18 141 164 0 145 134 146 143 ?20 29 144
 238 0 146 147 143 .0255 .0319562651734034 .0073 18 146 160 0 148 141 149 144 ?2
0 29 147 237 0 149 150 144 .017975 -.0355 -.01 18 149 153 0 151 146 152 147 ?20
 29 150 236 0 152 153 147 -.006025 -.0355 -.01 18 152 146 0 154 149 155 150 ?20
 29 153 235 0 155 156 150 .00425 -.027 -.034 18 155 141 0 157 152 158 153 ?20 29
 156 234 0 158 159 153 .00425 .0319562651734034 -.034 18 158 134 0 160 155 161 1
56 ?20 29 159 233 0 161 162 156 .00425 .0259562651734034 -.034 18 161 131 0 163
 158 164 159 ?20 29 162 232 0 164 165 159 -.005 .026 -.034 18 164 127 0 166 161
 167 162 ?20 29 165 231 0 167 168 162 .005 .0259562651734034 -.034 18 167 124 0
 169 164 170 165 ?20 29 168 230 0 170 171 165 .00425 -.033 -.034 18 170 120 0 17
2 167 173 168 ?20 29 171 229 0 173 174 168 -.006025 -.033 -.01 18 173 117 0 175
 170 176 171 ?20 29 174 228 0 176 177 171 .017975 -.033 -.01 18 176 114 0 178 17
3 179 174 ?20 29 177 227 0 179 180 174 .0255 -.033 .0073 18 179 110 0 181 176 18
2 177 ?20 29 180 226 0 182 183 177 .0255 -.033 -.057 18 182 108 0 129 179 184 18
0 ?20 29 183 225 0 184 185 180 -.0085 2150183968762525e-34 .0013 18 184 104 0 18
6 182 187 183 ?20 29 185 224 0 187 188 183 .0255 .026 .0013 18 187 99 0 136 184
 189 185 ?20 29 188 223 0 189 190 185 .0255 -.027 .0013 18 189 98 0 191 187 192
 188 ?20 29 190 222 0 192 193 188 -.0255 -.033 -.057 18 192 93 0 194 189 195 190
 ?20 29 193 221 0 195 196 190 -.0255 -.027 -.057 18 195 91 0 131 192 197 193 ?20
 29 196 220 0 197 198 193 -.0255 -.027 .0013 18 197 89 0 199 195 200 196 ?20 29
 198 219 0 200 201 196 -.0255 .026 -.057 18 200 84 0 138 197 202 198 ?20 29 201
 218 0 202 203 198 -.0255 .0319562651734034 -.057 18 202 82 0 204 200 205 201 ?2
0 29 203 217 0 205 206 201 -.0255 .026 .0013 18 205 80 0 207 202 208 203 ?20 29
 206 216 0 208 209 203 -.0499243418369718 .01334569700817924 .0013 18 208 70 0 2
10 205 211 206 ?20 29 209 215 0 211 212 206 -.0255 .0319562651734034 .0013 18 21
1 68 0 213 208 214 209 ?20 29 212 214 0 214 215 209 -.0499243418369718 .01334569
700817924 .0073 18 214 66 0 216 211 217 212 ?20 29 215 213 0 217 218 212 -.0255
 .0319562651734034 .0073 18 217 65 0 219 214 220 215 ?20 29 218 212 0 220 221 21
5 -.0255 -.033 .0013 18 220 60 0 222 217 223 218 ?20 29 221 211 0 223 224 218 -.
0571359096912742 -.0216205337158843 .0013 18 223 58 0 225 220 226 221 ?20 29 224
 210 0 226 227 221 -.0255 -.033 .0073 18 226 56 0 228 223 229 224 ?20 29 227 209
 0 229 230 224 -.0503255648769602 .0114003145793532 .0163 18 229 48 0 231 226 23
2 227 ?20 29 230 208 0 232 233 227 -.0503255648769602 .0114003145793532 .0073 18
 232 46 0 234 229 235 230 ?20 29 233 207 0 235 236 230 -.0571359096912742 -.0216
205337158843 .0163 18 235 41 0 237 232 238 233 ?20 29 236 206 0 238 239 233 -.05
71359096912742 -.0216205337158843 .0073 18 238 39 0 240 235 241 236 ?20 29 239 2
05 0 241 242 236 -.01358702567526034 -.0216206854206468 .0073 18 241 31 0 243 23
8 244 239 ?20 29 242 204 0 244 245 239 -.01358702567526034 .0114003145793532 .00
73 18 244 29 0 246 241 247 242 ?20 29 245 203 0 247 248 242 -.03028307362066545
 .0114003145793532 .0163 18 247 24 0 249 244 250 245 ?20 29 248 202 0 250 251 24
5 -.03028307362066545 .0114003145793532 .0163158000544304 18 250 22 0 252 247 25
3 248 ?20 29 251 201 0 253 254 248 -.03028307362066545 -.0216206854206468 .01631
58000544304 18 253 20 0 255 250 256 251 ?20 29 254 200 0 256 257 251 -.030283073
62066545 -.0216206854206468 .0073 18 256 18 0 258 253 259 254 ?20 29 257 199 0 2
59 260 254 -.03028307362066545 -.0216205337158843 .0163 18 259 16 0 261 256 262
 257 ?20 29 260 198 0 262 263 257 -.03028307362066545 -.0216205337158843 .0073 1
8 262 15 0 264 259 265 260 ?20 29 263 197 0 265 266 260 -.0536575517271523 -.004
7552598154511 .01331281371716592 18 265 9 0 267 262 268 263 ?20 29 266 196 0 268
 0 263 -.0340698103504416 -.00879510978285019 .01331281371716592 18 268 6 0 269
 265 0 266 ?20 17 269 0 270 269 269 268 271 272 0 271 +15 270 4 0 269 273 0 17 2
71 0 274 271 271 268 269 272 0 0 -16 272 5 0 ?269 275 0 276 0 0 20 16 275 8 0 ?2
67 277 272 278 0 0 20 31 276 243 0 272 0 278 0 +-.0340698103504416 -.00879510978
285019 .01076281371716592 .979387068835537 -.2019924983699545 0 0 0 1 .00255 31
 278 244 0 275 276 279 0 +-.0536575517271523 -.0047552598154511 .010762813717165
92 .979387068835537 -.2019924983699545 0 0 0 1 .00255 30 279 245 0 277 278 280 0
 +-.03028307362066545 -.0216205337158843 .0073 0 0 1 16 277 14 0 ?281 282 275 27
9 0 0 20 30 280 246 0 282 279 283 0 +-.03028307362066545 -.0216206854206468 .007
3 468372069534233e-25 1 0 16 282 17 0 ?284 285 277 280 0 0 20 30 283 247 0 285 2
80 286 0 +-.03028307362066545 -.0216206854206468 .0163158000544304 0 0 -1 16 285
 19 0 ?287 288 282 283 0 0 20 30 286 248 0 288 283 289 0 +-.03028307362066545 .0
114003145793532 .0163158000544304 1075895242058236e-31 -1 0 16 288 21 0 ?290 291
 285 286 0 0 20 30 289 249 0 291 286 292 0 +-.03028307362066545 .011400314579353
2 .0163 0 -1124272607558384e-28 1 16 291 23 0 ?293 294 288 289 0 0 20 30 292 250
 0 294 289 295 0 +-.03028307362066545 -.0216205337158843 .0163 -322770055484574e
-30 1 0 16 294 25 0 ?296 297 291 292 0 0 20 30 295 251 0 297 292 298 0 +-.030283
07362066545 .0114003145793532 .0163158000544304 .879906848270075 936166782145487
e-31 -.475146228404923 16 297 28 0 ?299 300 294 295 0 0 20 30 298 252 0 300 295
 301 0 +-.01358702567526034 -.0216206854206468 .0073 -.879906848270075 0 .475146
228404923 16 300 30 0 ?255 302 297 298 0 0 20 30 301 253 0 302 298 303 0 +-.0135
8702567526034 .0114003145793532 .0073 1075895242058236e-31 -1 0 16 302 32 0 ?304
 305 300 301 0 0 20 30 303 254 0 305 301 306 0 +-.01358702567526034 -.0216206854
206468 .0073 -1 0 0 16 305 35 0 ?258 307 302 303 0 0 20 30 306 255 0 307 303 308
 0 +-.03028307362066545 -.0216205337158843 .0073 -1 -264606216599151e-30 0 16 30
7 38 0 ?309 310 305 306 0 0 20 30 308 256 0 310 306 311 0 +-.0571359096912742 -.
0216205337158843 .0163 1 264606216599151e-30 0 16 310 40 0 ?261 312 307 308 0 0
 20 30 311 257 0 312 308 313 0 +-.0571359096912742 -.0216205337158843 .0073 0 0
 1 16 312 42 0 ?314 315 310 311 0 0 20 30 313 258 0 315 311 316 0 +-.05032556487
69602 .0114003145793532 .0073 1 0 0 16 315 45 0 ?246 317 312 313 0 0 20 30 316 2
59 0 317 313 318 0 +-.0503255648769602 .0114003145793532 .0073 0 0 1 16 317 47 0
 ?319 320 315 316 0 0 20 30 318 260 0 320 316 321 0 +-.03028307362066545 .011400
3145793532 .0163 -1 0 0 16 320 49 0 ?322 323 317 318 0 0 20 30 321 261 0 323 318
 324 0 +-.0503255648769602 .0114003145793532 .0163 -.2019924983699545 -.97938706
8835537 0 16 323 52 0 ?237 325 320 321 0 0 20 30 324 262 0 325 321 326 0 +-.0571
359096912742 -.0216205337158843 .0073 .940977064538813 -.338470329588753 0 16 32
5 55 0 ?327 328 323 324 0 0 20 30 326 263 0 328 324 329 0 +-.0571359096912742 -.
0216205337158843 .0073 0 0 -1 16 328 57 0 ?330 331 325 326 0 0 20 30 329 264 0 3
31 326 332 0 +-.0255 -.033 .0013 -.940977064538813 .338470329588753 0 16 331 59
 0 ?333 334 328 329 0 0 20 30 332 265 0 334 329 335 0 +-.0255 -.033 .0013 -59211
894646675e-29 0 1 16 334 61 0 ?336 337 331 332 0 0 20 30 335 266 0 337 332 338 0
 +-.0255 .0319562651734034 .0073 -.79540745160025 -.606075066257304 0 16 337 64
 0 ?339 340 334 335 0 0 20 30 338 267 0 340 335 341 0 +-.0255 .0319562651734034
 .0073 0 -11842378929335e-28 -1 16 340 67 0 ?342 343 337 338 0 0 20 30 341 268 0
 343 338 344 0 +-.0499243418369718 .01334569700817924 .0013 .79540745160025 .606
075066257304 0 16 343 69 0 ?345 346 340 341 0 0 20 30 344 269 0 346 341 347 0 +-
.0499243418369718 .01334569700817924 .0073 0 0 -1 16 346 71 0 ?348 349 343 344 0
 0 20 30 347 270 0 349 344 350 0 +-.0499243418369718 .01334569700817924 .0073 -.
201992498369954 -.979387068835537 0 16 349 74 0 ?234 351 346 347 0 0 20 30 350 2
71 0 351 347 352 0 +-.0571359096912742 -.0216205337158843 .0013 .201992498369954
5 .979387068835537 0 16 351 75 0 ?210 353 349 350 0 0 20 30 352 272 0 353 350 35
4 0 +-.0255 .026 .0013 596466674228087e-30 1 2162191694076815e-30 16 353 79 0 ?3
55 356 351 352 0 0 20 30 354 273 0 356 352 357 0 +-.0255 .0319562651734034 .0013
 0 609384850566124e-31 -1 16 356 81 0 ?358 359 353 354 0 0 20 30 357 274 0 359 3
54 360 0 +-.0255 .0319562651734034 -.057 -596466674228086e-30 -1 0 16 359 83 0 ?
361 362 356 357 0 0 20 30 360 275 0 362 357 363 0 +-.0255 .026 .0013 0 -12187697
01132248e-31 -1 16 362 85 0 ?137 364 359 360 0 0 20 30 363 276 0 364 360 365 0 +
-.0255 -.033 .0013 0 1 -555111512312578e-30 16 364 88 0 ?366 367 362 363 0 0 20
 30 365 277 0 367 363 368 0 +-.0255 -.027 .0013 609384850566124e-31 0 -1 16 367
 90 0 ?369 370 364 365 0 0 20 30 368 278 0 370 365 371 0 +-.0255 -.033 -.057 118
42378929335e-28 1 0 16 370 92 0 ?130 372 367 368 0 0 20 30 371 279 0 372 368 373
 0 +-.0255 -.033 -.057 609384850566124e-31 0 1 16 372 94 0 ?222 374 370 371 0 0
 20 30 373 280 0 374 371 375 0 +.0255 -.027 .0013 0 1 -1382541879721892e-31 16 3
74 97 0 ?376 377 372 373 0 0 20 30 375 281 0 377 373 378 0 +-.0255 -.027 .0013 1
 -139322105051e-27 -435381578284375e-31 16 377 100 0 ?379 380 374 375 0 0 20 30
 378 282 0 380 375 381 0 +-.0255 .026 .0013 1 -139322105051e-27 0 16 380 101 0 ?
382 383 377 378 0 0 20 31 381 283 0 383 378 384 0 +0 0 .0013 -1502370709825395e-
47 -178054636024789e-30 -1 1 971683979292939e-31 0 .0085 16 383 103 0 ?186 385 3
80 381 0 0 20 30 384 284 0 385 381 386 0 +.0255 -.033 -.057 -1 -139322105051e-27
 0 16 385 107 0 ?194 387 383 384 0 0 20 30 386 285 0 387 384 388 0 +.0255 -.033
 .0073 -552521567465086e-31 110504313493017e-30 -1 16 387 109 0 ?389 390 385 386
 0 0 20 30 388 286 0 390 386 391 0 +-.0255 -.033 .0073 1 0 -3483052626275e-29 16
 390 111 0 ?392 393 387 388 0 0 20 31 391 287 0 393 388 394 0 +.012 -.033 -.01 -
888178419700125e-31 1 0 1 0 0 .005975 16 393 113 0 ?178 395 390 391 0 0 20 31 39
4 288 0 395 391 396 0 +-.012 -.033 -.01 -888178419700125e-31 1 0 1 0 0 .005975 1
6 395 116 0 ?175 397 393 394 0 0 20 31 396 289 0 397 394 398 0 +-155431223447522
e-31 -.033 -.034 -888178419700125e-31 1 0 -1 -888178419700125e-31 0 .00425 16 39
7 119 0 ?172 399 395 396 0 0 20 31 398 290 0 399 396 400 0 +-2164934898019055e-3
2 .0259562651734034 -.034 888178419700125e-31 -1 510056519735907e-31 1 888178419
700125e-31 -888276850307415e-49 .005 16 399 123 0 ?169 401 397 398 0 0 20 31 400
 291 0 401 398 402 0 +-198044195422105e-31 .026 -.034 -17415263131375e-29 1 0 1
 17415263131375e-29 0 .005 16 401 126 0 ?166 403 399 400 0 0 20 31 402 292 0 403
 400 404 0 +-2164934898019055e-32 .0259562651734034 -.034 -888178419700125e-31 1
 -510056519735907e-31 -1 -888178419700126e-31 888276850307415e-49 .00425 16 403
 130 0 ?163 405 401 402 0 0 20 31 404 293 0 405 402 406 0 +-2220446049250315e-32
 .0319562651734034 -.034 888178419700125e-31 -1 510056519735907e-31 -1 -88817841
9700126e-31 888276850307415e-49 .00425 16 405 133 0 ?160 407 403 404 0 0 20 31 4
06 294 0 407 404 408 0 +-1609823385706475e-32 -.027 -.034 888178419700125e-31 -1
 0 -1 -888178419700125e-31 0 .00425 16 407 140 0 ?157 409 405 406 0 0 20 31 408
 295 0 409 406 410 0 +-.012 -.0355 -.01 888178419700125e-31 -1 0 1 8881784197001
25e-31 0 .005975 16 409 145 0 ?154 411 407 408 0 0 20 31 410 296 0 411 408 412 0
 +.012 -.0355 -.01 888178419700125e-31 -1 0 1 888178419700125e-31 0 .005975 16 4
11 152 0 ?151 413 409 410 0 0 20 30 412 297 0 413 410 414 0 +.0255 -.033 .0073 -
109387867954427e-30 1 2734696698860675e-32 16 413 159 0 ?415 416 411 412 0 0 20
 30 414 298 0 416 412 417 0 +-.0255 .0319562651734034 .0073 1 696610525255e-28 0
 16 416 161 0 ?418 419 413 414 0 0 20 31 417 299 0 419 414 420 0 +0 0 .0073 0 0
 -1 1 971683979292939e-31 0 .0085 16 419 163 0 ?145 421 416 417 0 0 20 30 420 30
0 0 421 417 422 0 +.0255 .0319562651734034 -.057 0 552521567465086e-31 1 16 421
 170 0 ?148 423 419 420 0 0 20 30 422 301 0 423 420 424 0 +-.0255 .0319562651734
034 -.057 1 696610525255e-28 0 16 423 172 0 ?425 426 421 422 0 0 20 30 424 302 0
 426 422 427 0 +.0255 .026 .0013 0 0 -1 16 426 176 0 ?428 429 423 424 0 0 20 30
 427 303 0 429 424 430 0 +.0255 .026 -.057 -596466674228086e-30 1 0 16 429 178 0
 ?140 431 426 427 0 0 20 30 430 304 0 431 427 432 0 +.0255 -.027 -.057 0 -1 0 16
 431 179 0 ?129 433 429 430 0 0 20 30 432 305 0 433 430 122 0 +.0255 -.027 .0013
 0 1218769701132246e-31 -1 16 433 181 0 ?132 126 431 432 0 0 20 30 122 306 0 126
 432 110 0 +-.0255 .026 -.057 1 0 0 16 126 184 0 ?133 113 433 122 0 0 20 17 132
 0 434 131 379 114 191 433 0 435 +15 434 189 0 132 436 0 17 131 0 434 437 132 19
5 125 113 0 130 -17 379 0 434 132 437 189 199 377 0 438 +17 191 0 439 376 435 18
9 132 433 0 379 -17 435 0 439 191 389 114 129 431 0 0 -15 439 175 0 428 440 0 17
 389 0 439 435 181 182 441 387 0 442 +17 129 0 128 194 125 182 435 431 0 389 +15
 128 193 0 194 119 0 17 194 0 128 130 129 192 442 385 0 443 +17 130 0 128 125 19
4 195 444 370 0 369 +17 442 0 445 441 443 182 194 385 0 0 -17 443 0 445 442 446
 192 222 372 0 444 -15 445 106 0 443 447 0 17 446 0 445 443 228 220 336 334 0 44
8 -17 222 0 449 366 444 220 443 372 0 450 +17 444 0 449 222 369 192 130 370 0 0
 -15 449 87 0 366 451 0 17 369 0 449 444 366 195 437 367 0 0 +17 366 0 449 369 2
22 197 450 364 0 0 +17 437 0 434 379 131 197 369 367 0 366 -17 450 0 452 333 199
 220 366 364 0 446 -15 452 96 0 438 453 0 17 333 0 452 210 450 223 448 331 0 330
 +17 199 0 452 450 438 197 379 377 0 437 -17 438 0 452 199 382 189 376 374 0 0 -
17 382 0 452 438 454 187 207 380 0 376 +17 376 0 439 428 191 187 438 374 0 0 +17
 428 0 439 140 376 127 136 426 0 0 +17 140 0 439 148 428 134 139 429 0 425 +17 1
36 0 135 207 133 187 428 426 0 382 -15 135 186 0 137 455 0 17 207 0 135 137 136
 205 382 380 0 456 -17 137 0 135 133 207 200 456 362 0 361 +17 456 0 457 355 361
 205 137 362 0 454 -15 457 78 0 355 458 0 17 355 0 457 358 456 211 454 353 0 345
 +17 361 0 457 456 358 200 459 359 0 0 +17 454 0 452 382 345 205 355 353 0 0 -17
 345 0 452 454 210 211 460 343 0 342 +17 210 0 452 345 333 208 225 351 0 348 +17
 460 0 461 462 342 208 345 343 0 0 -17 342 0 461 460 463 211 464 340 0 0 +15 461
 63 0 463 465 0 17 463 0 461 342 462 217 339 337 0 0 -17 464 0 466 418 213 217 3
42 340 0 463 -15 466 169 0 467 468 0 17 418 0 466 467 464 146 219 416 0 415 +17
 213 0 466 464 204 211 358 356 0 355 -17 204 0 466 213 467 202 425 423 0 459 -17
 358 0 457 361 355 202 213 356 0 0 +17 467 0 466 204 418 134 148 421 0 0 -17 425
 0 469 139 459 134 204 423 0 467 +17 459 0 469 425 138 202 361 359 0 358 -15 469
 183 0 425 470 0 17 138 0 469 459 139 200 133 126 0 137 -17 139 0 469 138 425 12
7 140 429 0 428 -14 470 182 471 ?440 455 469 108 472 +0 0 440 455 124 81 1 471 4
24 473 470 474 0 475 476 477 14 440 174 475 ?468 470 439 108 478 +0 0 468 470 12
4 14 455 185 476 ?470 436 479 108 480 +0 0 470 436 124 50 472 335 0 470 478 480
 0 +-618241841163812e-32 .0295 -.057 0 0 -1 -1 -3483052626275e-28 0 13 124 2 0 0
 0 0 0 0 112 119 14 119 192 481 ?436 0 128 108 109 +0 0 436 0 124 81 1 481 433 4
73 119 482 0 483 0 484 14 436 188 483 ?455 119 485 108 121 +0 0 455 119 124 81 1
 483 430 473 436 486 0 476 481 487 15 485 191 0 157 436 434 50 121 337 0 436 480
 109 0 +-.0255 -.027 .0083 -17415263131375e-29 1 0 1 17415263131375e-29 0 50 480
 336 0 455 472 121 0 +-.0255 .026 .0083 17415263131375e-29 -1 0 1 17415263131375
e-29 0 17 157 0 485 157 157 155 488 407 0 488 +17 488 0 489 488 488 155 157 407
 0 0 -15 489 139 0 488 490 0 14 490 138 491 ?492 493 494 108 495 -0 0 492 493 12
4 81 1 491 397 473 490 496 0 497 498 499 14 492 135 497 ?500 490 501 108 502 +0
 0 500 490 124 14 493 143 498 ?490 503 504 108 505 +0 0 490 503 124 15 494 142 0
 506 490 489 51 495 326 0 490 502 505 0 +-155431223447522e-31 -.033 -.034 925185
853854297e-31 -1 0 .00425 -1 -925185853854297e-31 0 50 502 325 0 492 507 495 0 +
-2164934898019055e-32 .0259562651734034 -.034 888178419700125e-31 -1 51005651973
5907e-31 0 510056519735907e-31 1 51 505 327 0 493 495 508 0 +-.012 -.033 -.01 0
 -1 0 .005975 1 0 0 50 508 328 0 503 505 509 0 +-.012 -.0355 -.01 88817841970012
5e-31 -1 0 0 0 -1 14 503 148 510 ?493 511 512 108 508 +0 0 493 511 124 51 509 32
9 0 511 508 513 0 +.012 -.033 -.01 0 -1 0 .005975 1 0 0 14 511 150 514 ?503 515
 516 108 509 +0 0 503 515 124 50 513 330 0 515 509 517 0 +.012 -.0355 -.01 88817
8419700125e-31 -1 0 0 0 -1 14 515 155 518 ?511 519 520 108 513 +0 0 511 519 124
 50 517 331 0 519 513 521 0 +.0255 -.033 .0073 0 0 1 -822387425648264e-31 1 0 14
 519 157 522 ?515 523 524 108 517 +0 0 515 523 124 51 521 332 0 523 517 525 0 +0
 0 .0073 0 0 1 .0085 1 971683979292939e-31 0 14 523 165 526 ?519 468 527 108 521
 -0 0 519 468 124 50 525 333 0 468 521 478 0 +.0255 .0319562651734034 .0073 -888
178419700125e-31 1 -510056519735907e-31 419464068200725e-47 -510056519735907e-31
 -1 14 468 168 528 ?523 440 529 108 525 +0 0 523 440 124 50 478 334 0 440 525 47
2 0 +.0255 -.027 0 1 822387425648264e-31 0 -822387425648264e-31 1 0 81 1 528 418
 473 468 530 0 526 475 531 15 529 173 0 160 468 466 17 160 0 529 160 160 158 532
 405 0 532 +17 532 0 533 532 532 158 160 405 0 0 -15 533 132 0 532 500 534 14 50
0 128 535 ?536 492 533 108 507 -0 0 536 492 124 15 534 129 0 537 500 0 17 537 0
 534 537 537 161 163 403 0 0 -17 163 0 501 163 163 161 537 403 0 537 +15 501 137
 0 163 492 538 15 538 136 0 169 492 0 17 169 0 538 169 169 167 539 399 0 539 +17
 539 0 540 539 539 167 169 399 0 0 -15 540 122 0 539 536 0 14 536 121 541 ?447 5
00 542 108 543 +0 0 447 500 124 81 1 541 388 473 536 544 0 545 535 546 14 447 10
5 545 ?453 536 547 108 548 +0 0 453 536 124 15 542 125 0 549 536 540 51 543 323
 0 536 548 507 0 +-2220446049250315e-32 .0319562651734034 -.034 925185853854297e
-31 -1 0 .005 1 925185853854297e-31 -888276850307415e-49 50 548 322 0 447 550 54
3 0 +.0255 -.033 -.057 888178419700125e-31 -1 0 0 0 1 51 507 324 0 500 543 502 0
 +-2220446049250315e-32 .0319562651734034 -.034 -925185853854297e-31 1 0 .00425
 -1 -925185853854297e-31 888276850307415e-49 50 550 321 0 453 551 548 0 +-.0255
 .026 .0013 -1502370709825395e-47 -178054636024789e-30 -1 -822387425648264e-31 -
1 178054636024789e-30 14 453 95 552 ?451 447 553 108 550 +0 0 451 447 124 50 551
 320 0 451 554 550 0 +-.0255 .027 0 -1 822387425648264e-31 0 -822387425648264e-3
1 -1 0 14 451 86 555 ?458 453 449 108 551 +0 0 458 453 124 50 554 319 0 458 556
 551 0 +-.0255 .027 0 -1 822387425648264e-31 0 -822387425648264e-31 -1 0 14 458
 77 557 ?558 451 457 108 554 +0 0 558 451 124 50 556 318 0 558 559 554 0 +-.0571
359096912742 -.0216205337158843 .0073 -.979387068835537 .2019924983699545 0 .201
9924983699545 .979387068835537 0 14 558 72 560 ?465 458 561 108 556 +0 0 465 458
 124 50 559 317 0 465 562 556 0 +-.0499243418369718 .01334569700817924 .0073 -.6
06075066257304 .795407451600251 0 .795407451600251 .606075066257304 0 14 465 62
 563 ?564 558 461 108 559 +0 0 564 558 124 50 562 316 0 564 565 559 0 +-.0255 -.
033 .0073 -.338470329588746 -.940977064538815 0 -.940977064538815 .3384703295887
46 0 14 564 53 566 ?567 465 568 108 562 +0 0 567 465 124 50 565 315 0 567 569 56
2 0 +-.0437094916559698 -.00511010956826554 .0163 0 0 1 1 0 0 14 567 50 570 ?571
 564 572 108 565 +0 0 571 564 124 50 569 314 0 571 573 565 0 +-.0302830736206654
5 .0114003145793532 .0073 -1367348349430338e-31 1 0 -1 -1367348349430338e-31 0 1
4 571 43 574 ?575 567 576 108 569 +0 0 575 567 124 50 573 313 0 575 577 569 0 +-
.0571359096912742 -.0216205337158843 .0073 1367348349430338e-31 -1 0 1 136734834
9430338e-31 0 14 575 36 578 ?579 571 580 108 573 +0 0 579 571 124 50 577 312 0 5
79 581 573 0 +-.0219350496479629 -.0216206854206468 .0118079000272152 1344869052
572794e-31 -1 0 0 0 -1 14 579 33 582 ?583 575 584 108 577 +0 0 583 575 124 50 58
1 311 0 583 585 577 0 +-.01358702567526034 .0114003145793532 .0073 .475146228404
923 639009458028466e-31 .879906848270075 -.879906848270075 -1203139176634538e-31
 .475146228404923 14 583 26 586 ?587 579 588 108 581 +0 0 587 579 124 50 585 310
 0 587 589 581 0 +-.03028307362066545 .0114003145793532 .0163158000544304 -1 -13
44869052572794e-31 0 0 0 -1 14 587 12 590 ?591 583 592 108 585 +0 0 591 583 124
 50 589 309 0 591 593 585 0 +-.0340698103504416 -.00879510978285019 .01076281371
716592 -.979387068835537 .2019924983699545 0 0 0 1 14 591 10 594 ?273 587 274 10
8 589 +0 0 273 587 124 51 593 308 0 273 0 589 0 +-.0536575517271523 -.0047552598
154511 .01076281371716592 -.979387068835537 .2019924983699545 0 .00255 0 0 1 14
 273 3 595 ?0 591 596 108 593 -0 0 0 591 124 81 1 595 343 473 273 597 0 0 594 59
8 15 596 7 0 599 273 270 17 599 0 596 599 599 265 267 275 0 0 -17 267 0 561 267
 267 265 599 275 0 599 +15 561 76 0 267 558 600 15 600 73 0 216 558 0 17 216 0 6
00 348 601 214 234 349 0 462 -17 348 0 600 225 216 208 462 346 0 460 +17 601 0 6
00 216 231 232 319 317 0 602 -17 234 0 603 246 339 232 216 349 0 601 +17 462 0 4
61 463 460 214 348 346 0 339 -17 339 0 603 234 219 214 463 337 0 0 +15 603 158 0
 284 519 0 17 219 0 603 339 415 217 418 416 0 464 -17 415 0 603 219 392 146 181
 413 0 0 +17 392 0 603 415 327 179 228 390 0 441 +17 181 0 439 389 148 179 415 4
13 0 392 -17 148 0 439 181 140 146 467 421 0 418 +17 327 0 603 392 309 226 604 3
25 0 0 +17 228 0 445 446 441 226 392 390 0 336 -17 441 0 445 228 442 179 389 387
 0 0 -17 336 0 568 604 448 226 446 334 0 327 +15 568 54 0 604 564 0 17 604 0 568
 330 336 238 327 325 0 605 -17 448 0 568 336 330 220 333 331 0 0 -17 330 0 568 4
48 604 223 240 328 0 0 +17 240 0 600 314 225 238 330 328 0 604 -17 314 0 600 231
 240 235 605 312 0 606 +17 225 0 600 240 348 223 210 351 0 333 -17 231 0 600 601
 314 229 237 323 0 322 -17 605 0 580 264 606 238 314 312 0 309 -17 606 0 580 605
 281 235 261 310 0 0 -15 580 37 0 264 575 0 17 281 0 580 606 264 259 607 277 0 0
 +17 261 0 572 296 237 259 606 310 0 608 +15 572 51 0 322 567 0 17 296 0 572 322
 261 247 608 294 0 609 +17 237 0 572 261 322 235 231 323 0 314 +17 608 0 592 607
 609 259 296 294 0 281 -15 592 13 0 607 587 0 17 607 0 592 610 608 262 281 277 0
 0 -17 609 0 592 608 611 247 293 291 0 0 -17 611 0 592 609 612 250 290 288 0 0 -
17 293 0 576 299 249 250 609 291 0 611 +15 576 44 0 602 571 0 17 299 0 576 602 2
93 244 252 297 0 0 +17 249 0 576 293 319 247 322 320 0 296 -17 319 0 576 249 602
 229 601 317 0 0 +17 322 0 572 237 296 229 249 320 0 319 +17 602 0 576 319 299 2
32 246 315 0 0 -17 246 0 603 304 234 244 602 315 0 613 +17 304 0 603 258 246 241
 613 302 0 614 +17 613 0 588 252 614 244 304 302 0 299 -15 588 27 0 252 583 0 17
 252 0 588 290 613 250 299 297 0 293 -17 614 0 588 613 290 241 255 300 0 0 -17 2
90 0 588 614 252 253 611 288 0 612 +17 255 0 584 287 243 253 614 300 0 290 +15 5
84 34 0 243 579 0 17 287 0 584 243 255 256 612 285 0 610 +17 243 0 584 255 287 2
41 258 305 0 304 -17 258 0 603 284 304 256 243 305 0 287 +17 284 0 603 309 258 2
62 610 282 0 607 +17 309 0 603 327 284 238 264 307 0 0 +17 610 0 592 612 607 256
 284 282 0 0 -17 612 0 592 611 610 253 287 285 0 0 -17 264 0 580 281 605 262 309
 307 0 284 -80 1 473 615 616 8015 0 0 0 0 3 5 0 0 0 FFFFTFFFFFFFFFFF2 81 2 597 3
42 615 273 617 595 0 618 619 620 81 1 594 346 473 591 618 0 595 590 621 83 1 598
 0 81 2 618 345 615 591 622 594 597 623 624 625 81 1 590 349 473 587 623 0 594 5
86 626 83 1 621 0 81 2 623 348 615 587 627 590 618 628 629 630 81 1 586 352 473
 583 628 0 590 582 631 83 1 626 0 81 2 628 351 615 583 632 586 623 633 634 635 8
1 1 582 355 473 579 633 0 586 578 636 83 1 631 0 81 2 633 354 615 579 637 582 62
8 638 639 640 81 1 578 358 473 575 638 0 582 574 641 83 1 636 0 81 2 638 357 615
 575 642 578 633 643 644 645 81 1 574 361 473 571 643 0 578 570 646 83 1 641 0 8
1 2 643 360 615 571 647 574 638 648 649 650 81 1 570 364 473 567 648 0 574 566 6
51 83 1 646 0 81 2 648 363 615 567 652 570 643 653 654 655 81 1 566 367 473 564
 653 0 570 563 656 83 1 651 0 81 2 653 366 615 564 657 566 648 658 659 660 81 1
 563 370 473 465 658 0 566 560 661 83 1 656 0 81 2 658 369 615 465 662 563 653 6
63 664 665 81 1 560 373 473 558 663 0 563 557 666 83 1 661 0 81 2 663 372 615 55
8 667 560 658 668 669 670 81 1 557 376 473 458 668 0 560 555 671 83 1 666 0 81 2
 668 375 615 458 672 557 663 673 674 675 81 1 555 379 473 451 673 0 557 552 676
 83 1 671 0 81 2 673 378 615 451 677 555 668 678 679 680 81 1 552 382 473 453 67
8 0 555 545 681 83 1 676 0 81 2 678 381 615 453 682 552 673 683 684 685 81 1 545
 385 473 447 683 0 552 541 686 83 1 681 0 81 2 683 384 615 447 687 545 678 544 6
88 689 83 1 686 0 80 2 615 690 691 8014 0 0 0 0 3 5 0 0 0 FFFFTFFFFFFFFFFF2 1 81
 1 687 383 692 447 0 683 682 693 694 81 2 544 387 615 536 693 541 683 695 696 69
7 83 4 688 .99998468160538 0 .99998468160538 .99998468160538 82 1 689 1 81 1 693
 386 692 536 0 544 687 698 699 81 2 695 390 615 500 698 535 544 700 701 702 83 4
 696 .99998468160538 0 .99998468160538 .99998468160538 82 1 697 1 81 1 698 389 6
92 500 0 695 693 703 704 81 1 535 391 473 500 695 0 541 497 705 81 2 700 393 615
 492 703 497 695 496 706 707 83 4 701 .99998468160538 0 .99998468160538 .9999846
8160538 82 1 702 1 81 1 703 392 692 492 0 700 698 708 709 81 1 497 394 473 492 7
00 0 535 491 710 81 2 496 396 615 490 708 491 700 711 712 713 83 4 706 .99998468
160538 0 .99998468160538 .99998468160538 82 1 707 1 81 1 708 395 692 490 0 496 7
03 714 715 81 2 711 399 615 493 714 498 496 716 717 718 83 4 712 .99998468160538
 0 .99998468160538 .99998468160538 82 1 713 1 81 1 714 398 692 493 0 711 708 719
 720 81 1 498 400 473 493 711 0 491 510 721 81 2 716 402 615 503 719 510 711 722
 723 724 83 4 717 .99998468160538 0 .99998468160538 .99998468160538 82 1 718 1 8
1 1 719 401 692 503 0 716 714 725 726 81 1 510 403 473 503 716 0 498 514 727 81
 2 722 405 615 511 725 514 716 728 729 730 83 4 723 .99998468160538 0 .999984681
60538 .99998468160538 82 1 724 1 81 1 725 404 692 511 0 722 719 731 732 81 1 514
 406 473 511 722 0 510 518 733 81 2 728 408 615 515 731 518 722 734 735 736 83 4
 729 .99998468160538 0 .99998468160538 .99998468160538 82 1 730 1 81 1 731 407 6
92 515 0 728 725 737 738 81 1 518 409 473 515 728 0 514 522 739 81 2 734 411 615
 519 737 522 728 740 741 742 83 4 735 .99998468160538 0 .99998468160538 .9999846
8160538 82 1 736 1 81 1 737 410 692 519 0 734 731 743 744 81 1 522 412 473 519 7
34 0 518 526 745 81 2 740 414 615 523 743 526 734 530 746 747 83 4 741 .99998468
160538 0 .99998468160538 .99998468160538 82 1 742 1 81 1 743 413 692 523 0 740 7
37 748 749 81 1 526 415 473 523 740 0 522 528 750 81 2 530 417 615 468 748 528 7
40 751 752 753 83 4 746 .99998468160538 0 .99998468160538 .99998468160538 82 1 7
47 1 81 1 748 416 692 468 0 530 743 754 755 81 2 751 420 615 440 754 475 530 474
 756 757 83 4 752 .99998468160538 0 .99998468160538 .99998468160538 82 1 753 1 8
1 1 754 419 692 440 0 751 748 758 759 81 1 475 421 473 440 751 0 528 471 760 81
 2 474 423 615 470 758 471 751 761 762 763 83 4 756 .99998468160538 0 .999984681
60538 .99998468160538 82 1 757 1 81 1 758 422 692 470 0 474 754 764 765 81 2 761
 426 615 455 764 476 474 486 766 767 83 4 762 .99998468160538 0 .99998468160538
 .99998468160538 82 1 763 1 81 1 764 425 692 455 0 761 758 768 769 81 1 476 427
 473 455 761 0 471 483 770 81 2 486 429 615 436 768 483 761 482 771 772 83 4 766
 .99998468160538 0 .99998468160538 .99998468160538 82 1 767 1 81 1 768 428 692 4
36 0 486 764 773 774 81 2 482 432 615 119 773 481 486 0 775 776 83 4 771 .999984
68160538 0 .99998468160538 .99998468160538 82 1 772 1 81 1 773 431 692 119 0 482
 768 0 777 83 4 775 .99998468160538 0 .99998468160538 .99998468160538 82 1 776 1
 80 1 692 0 778 8001 0 0 0 0 3 5 0 0 0 FFFFTFTFFFFFFFFF2 83 3 777 .9960784313725
49 .996078431372549 1 79 15 778 SDL/TYSA_COLOUR83 3 774 .996078431372549 .996078
431372549 1 83 1 770 0 83 3 769 .996078431372549 .996078431372549 1 83 3 765 .99
6078431372549 .996078431372549 1 83 1 760 0 83 3 759 .996078431372549 .996078431
372549 1 83 3 755 .996078431372549 .996078431372549 1 83 1 750 0 83 3 749 .99607
8431372549 .996078431372549 1 83 1 745 0 83 3 744 .996078431372549 .996078431372
549 1 83 1 739 0 83 3 738 .996078431372549 .996078431372549 1 83 1 733 0 83 3 73
2 .996078431372549 .996078431372549 1 83 1 727 0 83 3 726 .996078431372549 .9960
78431372549 1 83 1 721 0 83 3 720 .996078431372549 .996078431372549 1 83 3 715 .
996078431372549 .996078431372549 1 83 1 710 0 83 3 709 .996078431372549 .9960784
31372549 1 83 1 705 0 83 3 704 .996078431372549 .996078431372549 1 83 3 699 .996
078431372549 .996078431372549 1 81 1 682 380 692 453 0 678 677 687 779 83 3 694
 .996078431372549 .996078431372549 1 81 1 677 377 692 451 0 673 672 682 780 83 3
 779 .996078431372549 .996078431372549 1 81 1 672 374 692 458 0 668 667 677 781
 83 3 780 .996078431372549 .996078431372549 1 81 1 667 371 692 558 0 663 662 672
 782 83 3 781 .996078431372549 .996078431372549 1 81 1 662 368 692 465 0 658 657
 667 783 83 3 782 .996078431372549 .996078431372549 1 81 1 657 365 692 564 0 653
 652 662 784 83 3 783 .996078431372549 .996078431372549 1 81 1 652 362 692 567 0
 648 647 657 785 83 3 784 .996078431372549 .996078431372549 1 81 1 647 359 692 5
71 0 643 642 652 786 83 3 785 .996078431372549 .996078431372549 1 81 1 642 356 6
92 575 0 638 637 647 787 83 3 786 .996078431372549 .996078431372549 1 81 1 637 3
53 692 579 0 633 632 642 788 83 3 787 .996078431372549 .996078431372549 1 81 1 6
32 350 692 583 0 628 627 637 789 83 3 788 .996078431372549 .996078431372549 1 81
 1 627 347 692 587 0 623 622 632 790 83 3 789 .996078431372549 .996078431372549
 1 81 1 622 344 692 591 0 618 617 627 791 83 3 790 .996078431372549 .99607843137
2549 1 81 1 617 341 692 273 0 597 0 622 792 83 3 791 .996078431372549 .996078431
372549 1 83 3 792 .996078431372549 .996078431372549 1 79 21 691 SDL/TYSA_REFLECT
IVITY83 4 684 .99998468160538 0 .99998468160538 .99998468160538 82 1 685 1 83 4
 679 .99998468160538 0 .99998468160538 .99998468160538 82 1 680 1 83 4 674 .9999
8468160538 0 .99998468160538 .99998468160538 82 1 675 1 83 4 669 .99998468160538
 0 .99998468160538 .99998468160538 82 1 670 1 83 4 664 .99998468160538 0 .999984
68160538 .99998468160538 82 1 665 1 83 4 659 .99998468160538 0 .99998468160538 .
99998468160538 82 1 660 1 83 4 654 .99998468160538 0 .99998468160538 .9999846816
0538 82 1 655 1 83 4 649 .99998468160538 0 .99998468160538 .99998468160538 82 1
 650 1 83 4 644 .99998468160538 0 .99998468160538 .99998468160538 82 1 645 1 83
 4 639 .99998468160538 0 .99998468160538 .99998468160538 82 1 640 1 83 4 634 .99
998468160538 0 .99998468160538 .99998468160538 82 1 635 1 83 4 629 .999984681605
38 0 .99998468160538 .99998468160538 82 1 630 1 83 4 624 .99998468160538 0 .9999
8468160538 .99998468160538 82 1 625 1 83 4 619 .99998468160538 0 .99998468160538
 .99998468160538 82 1 620 1 79 21 616 SDL/TYSA_TRANSLUCENCY15 274 11 0 271 591 0
 15 553 102 0 793 453 452 17 793 0 553 793 793 184 186 383 0 0 -17 186 0 794 186
 186 184 793 383 0 793 +15 794 166 0 186 523 0 17 549 0 542 549 549 164 166 401
 0 0 -17 166 0 479 166 166 164 549 401 0 549 +15 479 187 0 166 455 135 15 547 11
8 0 172 447 795 17 172 0 547 172 172 170 506 397 0 506 +15 795 115 0 175 447 796
 17 175 0 795 175 175 173 797 395 0 797 +15 796 112 0 178 447 445 17 178 0 796 1
78 178 176 798 393 0 798 +17 798 0 516 798 798 176 178 393 0 0 -15 516 154 0 798
 511 799 15 799 151 0 800 511 0 17 800 0 799 800 800 149 151 411 0 0 -17 151 0 5
20 151 151 149 800 411 0 800 +15 520 156 0 151 515 0 17 797 0 504 797 797 173 17
5 395 0 0 -15 504 147 0 797 493 801 15 801 144 0 802 493 0 17 802 0 801 802 802
 152 154 409 0 0 -17 154 0 512 154 154 152 802 409 0 802 +15 512 149 0 154 503 0
 17 506 0 494 506 506 170 172 397 0 0 -83 1 546 0 83 1 531 0 15 527 167 0 803 52
3 794 17 803 0 527 803 803 141 145 419 0 0 -17 145 0 524 145 145 141 803 419 0 8
03 +15 524 162 0 145 519 603 83 1 499 0 83 1 487 0 83 1 484 0 83 1 477 0 19 120
 194 0 20 0 112 108 0 S0 74 20 118 6 0 0 804 116 773 482 481 106 0 0 0 0 0 0 0 0
 0 0 0 0 0 0 81 1 804 339 805 20 0 116 0 0 806 81 1 116 340 807 20 804 106 0 0 8
08 80 1 807 473 809 8041 0 0 0 0 3 5 0 0 0 TTTFFFFFFFFFFFFF2 83 1 808 0 79 23 80
9 SDL/TYSA_TRANSLUCENCY_280 1 805 692 810 8040 0 0 0 0 3 5 0 0 0 TTTFFFFFFFFFFFF
F2 83 3 806 .996078431372549 .996078431372549 1 79 17 810 SDL/TYSA_COLOUR_280 1
 115 811 812 8017 0 0 0 0 0 0 0 0 0 TTTTTTTTTTTTTFTF3 84 7 117 Sólido179 13 812
 SDL/TYSA_NAME13 102 3 0 19 0 0 0 105 104 0 29 103 4 0 105 0 0 0 -.034 0 19 104
 1 0 19 0 0 102 0 V0 18 105 2 0 0 0 0 103 ?102 13 98 3 0 18 0 0 0 101 100 0 29 9
9 4 0 101 0 0 0 -.034 0 19 100 1 0 18 0 0 98 0 V0 18 101 2 0 0 0 0 99 ?98 13 94
 3 0 17 0 0 0 97 96 0 29 95 4 0 97 0 0 0 0 -.057 19 96 1 0 17 0 0 94 0 V0 18 97
 2 0 0 0 0 95 ?94 13 90 3 0 16 0 0 0 93 92 0 29 91 4 0 93 0 0 0 0 .0063 19 92 1
 0 16 0 0 90 0 V0 18 93 2 0 0 0 0 91 ?90 81 1 83 11 807 15 813 0 0 0 814 70 84 0
 4 T15 0 0 3 20 1 815 815 13 85 3 0 15 0 0 816 0 88 0 30 86 9 0 816 0 0 0 +-.010
5 -.027 -.057 1 0 0 29 87 7 0 89 817 0 .0105 -.027 -.057 19 88 1 0 15 0 0 85 0 V
0 18 89 5 0 818 0 819 87 ?15 17 818 0 0 0 0 89 820 816 0 0 +18 819 2 0 820 89 0
 817 ?15 17 820 0 0 0 0 819 818 816 0 0 -29 817 4 0 819 0 87 -.0105 -.027 -.057
 16 816 6 821 ?818 0 0 86 0 0 85 81 1 821 12 692 816 0 0 0 0 822 83 3 822 1 0 1
 74 20 815 3 0 0 813 83 821 0 0 0 0 0 0 0 0 0 0 0 0 0 0 0 0 0 81 1 813 10 805 15
 0 83 0 0 823 83 3 823 1 0 1 83 1 814 0 81 1 76 11 807 14 824 0 0 0 825 70 77 0
 4 T14 0 0 3 20 1 826 826 13 78 3 0 14 0 0 827 0 81 0 30 79 9 0 827 0 0 0 +22204
4604925031e-32 -.027 -.057 0 0 1 29 80 7 0 82 828 0 222044604925031e-32 -.027 -.
034 19 81 1 0 14 0 0 78 0 V0 18 82 5 0 829 0 830 80 ?14 17 829 0 0 0 0 82 831 82
7 0 0 +18 830 2 0 831 82 0 828 ?14 17 831 0 0 0 0 830 829 827 0 0 -29 828 4 0 83
0 0 80 222044604925031e-32 -.027 -.057 16 827 6 832 ?829 0 0 79 0 0 78 81 1 832
 12 692 827 0 0 0 0 833 83 3 833 1 1 1 74 20 826 3 0 0 824 76 832 0 0 0 0 0 0 0
 0 0 0 0 0 0 0 0 0 0 81 1 824 10 805 14 0 76 0 0 834 83 3 834 1 1 1 83 1 825 0 8
1 1 71 6 807 13 835 0 0 0 836 70 72 0 4 T13 0 0 3 20 1 837 837 13 73 3 0 13 0 0
 838 0 75 0 31 74 4 0 838 0 0 0 +222044604925031e-32 -.027 -.034 -17415263131375
e-29 1 0 -1 -17415263131375e-29 0 .005 19 75 1 0 13 0 0 73 0 V0 16 838 2 839 ?84
0 0 0 74 0 0 73 81 1 839 7 692 838 0 0 0 0 841 17 840 0 0 0 0 0 842 838 0 0 +17
 842 0 0 0 0 0 840 838 0 0 -83 3 841 1 1 1 74 20 837 3 0 0 835 71 839 0 0 0 0 0
 0 0 0 0 0 0 0 0 0 0 0 0 81 1 835 5 805 13 0 71 0 0 843 83 3 843 1 1 1 83 1 836
 0 81 1 64 11 807 12 844 0 0 0 845 70 65 0 4 T12 0 0 3 20 1 846 846 13 66 3 0 12
 0 0 847 0 69 0 30 67 9 0 847 0 0 0 +222044604925031e-32 -.027 -.034 26246407201
5404e-30 0 1 29 68 7 0 70 848 0 133226762955019e-31 -.027 .0083 19 69 1 0 12 0 0
 66 0 V0 18 70 5 0 849 0 850 68 ?12 17 849 0 0 0 0 70 851 847 0 0 +18 850 2 0 85
1 70 0 848 ?12 17 851 0 0 0 0 850 849 847 0 0 -29 848 4 0 850 0 68 2220446049250
31e-32 -.027 -.034 16 847 6 852 ?849 0 0 67 0 0 66 81 1 852 12 692 847 0 0 0 0 8
53 83 3 853 1 1 1 74 20 846 3 0 0 844 64 852 0 0 0 0 0 0 0 0 0 0 0 0 0 0 0 0 0 8
1 1 844 10 805 12 0 64 0 0 854 83 3 854 1 1 1 83 1 845 0 81 1 57 11 807 11 855 0
 0 0 856 70 58 0 4 T11 0 0 3 20 1 857 857 13 59 3 0 11 0 0 858 0 62 0 30 60 9 0
 858 0 0 0 +.0255 -.027 .0083 -1 0 0 29 61 7 0 63 859 0 -.0255 -.027 .0083 19 62
 1 0 11 0 0 59 0 V0 18 63 5 0 860 0 861 61 ?11 17 860 0 0 0 0 63 862 858 0 0 +18
 861 2 0 862 63 0 859 ?11 17 862 0 0 0 0 861 860 858 0 0 -29 859 4 0 861 0 61 .0
255 -.027 .0083 16 858 6 863 ?860 0 0 60 0 0 59 81 1 863 12 692 858 0 0 0 0 864
 83 3 864 .913725490196078 .913725490196078 0 74 20 857 3 0 0 855 57 863 0 0 0 0
 0 0 0 0 0 0 0 0 0 0 0 0 0 81 1 855 10 805 11 0 57 0 0 865 83 3 865 .91372549019
6078 .913725490196078 0 83 1 856 0 13 53 3 0 10 0 0 0 56 55 0 29 54 4 0 56 0 0 4
44089209850063e-32 -.027 0 19 55 1 0 10 0 0 53 0 V0 18 56 2 0 0 0 0 54 ?53 13 49
 3 0 9 0 0 0 52 51 0 29 50 4 0 52 0 0 -444089209850063e-32 .0329562651734034 0 1
9 51 1 0 9 0 0 49 0 V0 18 52 2 0 0 0 0 50 ?49 13 45 3 0 8 0 0 0 48 47 0 29 46 4
 0 48 0 0 .0255 0 0 19 47 1 0 8 0 0 45 0 V0 18 48 2 0 0 0 0 46 ?45 13 41 3 0 7 0
 0 0 44 43 0 29 42 4 0 44 0 0 0 0 .0083 19 43 1 0 7 0 0 41 0 V0 18 44 2 0 0 0 0
 42 ?41 13 37 3 0 6 0 0 0 40 39 0 29 38 4 0 40 0 0 0 0 .0073 19 39 1 0 6 0 0 37
 0 V0 18 40 2 0 0 0 0 38 ?37 13 33 3 0 5 0 0 0 36 35 0 29 34 4 0 36 0 0 -.0255 0
 0 19 35 1 0 5 0 0 33 0 V0 18 36 2 0 0 0 0 34 ?33 13 29 3 0 4 0 0 0 32 31 0 29 3
0 4 0 32 0 0 0 0 .0073 19 31 1 0 4 0 0 29 0 V0 18 32 2 0 0 0 0 30 ?29 13 25 3 0
 3 0 0 0 28 27 0 29 26 4 0 28 0 0 -.050527544063681 .01042099205379112 0 19 27 1
 0 3 0 0 25 0 V0 18 28 2 0 0 0 0 26 ?25 13 21 3 0 2 0 0 0 24 23 0 29 22 4 0 24 0
 0 -.0255 0 0 19 23 1 0 2 0 0 21 0 V0 18 24 2 0 0 0 0 22 ?21 1 0 
