**ABCDEFGHIJKLMNOPQRSTUVWXYZabcdefghijklmnopqrstuvwxyz**************************
**PARASOLID !"#$%&'()*+,-./:;<=>?@[\]^_`{|}~0123456789**************************
**PART1;
MC=;
MC_MODEL=;
MC_ID=unknown;
OS=Windows;
OS_RELEASE=;
FRU=;
APPL=Autodesk Inventor 2024;
SITE=unknown;
USER=unknown;
FORMAT=text;
GUISE=transmit;
KEY=C23[i3][L][2];
FILE=C:\Users\juanj\Documents\Documentos\Unisabana\Shell\C23 DESING\A23[F]\PFA23[F]\C23[i3][L][2].x_t;
DATE=2023-Jun-09 11:28:58;
**PART2;
SCH=SCH_3500195_35002;
USFLD_SIZE=0;
**PART3;
**END_OF_HEADER*****************************************************************
T51 : TRANSMIT FILE created by modeller version 350019517 SCH_3500195_350020 12
 1 408 2 3 0 0 0 0 0 0 0 1e3 1e-8 0 0 0 1 0 1 1 4 0 5 6 7 0 0 8 9 10 0 0 0 0 0 0
 0 81 1 2 408 11 1 12 0 0 0 13 70 3 0 4 T1 0 0 6 20 1 14 14 13 4 184 0 1 0 15 0
 0 16 0 51 5 315 0 15 17 0 0 +2220446049250315e-33 -.027 -.034 -1795949010423045
e-31 1 0 .005 1 1795949010423045e-31 0 31 6 285 0 9 18 0 0 +-4440892098500625e-3
3 .032 -.034 87076315656875e-30 -1 0 1 816340459283203e-31 0 .005 29 7 227 0 10
 19 0 .005 .032 -.034 19 8 1 0 1 16 0 20 0 V0 16 9 173 0 ?21 0 22 6 0 0 1 18 10
 174 0 21 0 23 7 ?1 17 21 0 24 21 21 10 25 9 0 25 +18 23 162 0 26 10 27 19 ?1 17
 26 0 28 26 26 23 29 22 0 29 +18 27 158 0 30 23 31 32 ?1 29 19 226 0 23 32 7 .01
485 .057 -.034 29 32 225 0 27 33 19 .01235 .032 -.034 29 33 224 0 31 34 32 .0123
5 .057 -.034 18 31 155 0 35 27 36 33 ?1 29 34 223 0 36 37 33 .005 -.027 -.034 18
 36 149 0 38 31 39 34 ?1 29 37 222 0 39 40 34 -.005 .026 -.034 18 39 143 0 41 36
 42 37 ?1 29 40 221 0 42 43 37 .0255 -.027 -.0593 18 42 136 0 44 39 45 40 ?1 29
 43 220 0 45 46 40 -.0245 -.027 -.0593 18 45 131 0 47 42 48 43 ?1 29 46 219 0 48
 49 43 -.0245 .026 -.0593 18 48 128 0 50 45 51 46 ?1 29 49 218 0 51 52 46 -.005
 -.033 -.034 18 51 124 0 53 48 54 49 ?1 29 52 217 0 54 55 49 .0255 -.033 -.0593
 18 54 118 0 56 51 57 52 ?1 29 55 216 0 57 58 52 -.0245 -.033 -.0593 18 57 116 0
 59 54 60 55 ?1 29 58 215 0 60 61 55 .017975 -.033 -.01 18 60 110 0 62 57 63 58
 ?1 29 61 214 0 63 64 58 .017975 -.0355 -.01 18 63 107 0 65 60 66 61 ?1 29 64 21
3 0 66 67 61 -.006025 -.033 -.01 18 66 101 0 68 63 69 64 ?1 29 67 212 0 69 70 64
 -.006025 -.0355 -.01 18 69 98 0 71 66 72 67 ?1 29 70 211 0 72 73 67 -.0085 0 -8
e-4 18 72 94 0 74 69 75 70 ?1 29 73 210 0 75 76 70 -.0245 .026 -8e-4 18 75 90 0
 77 72 78 73 ?1 29 76 209 0 78 79 73 -.0245 -.027 -8e-4 18 78 88 0 80 75 81 76 ?
1 29 79 208 0 81 82 76 .0255 -.027 -8e-4 18 81 86 0 83 78 84 79 ?1 29 82 207 0 8
4 85 79 .01485 .032 -.034 18 84 82 0 86 81 87 82 ?1 29 85 206 0 87 88 82 -.0245
 .032 -.0593 18 87 78 0 89 84 90 85 ?1 29 88 205 0 90 91 85 .0255 -.033 -8e-4 18
 90 67 0 92 87 93 88 ?1 29 91 204 0 93 94 88 .0505194377533731 -.024143812176744
55 -8e-4 18 93 60 0 95 90 96 91 ?1 29 94 203 0 96 97 91 .0505194377533731 -.0241
4381217674455 .0142 18 96 58 0 98 93 99 94 ?1 29 97 202 0 99 100 94 .05085924723
55378 -.01013207164888118 -8e-4 18 99 56 0 101 96 102 97 ?1 29 100 201 0 102 103
 97 .0508592472355378 -.01013207164888118 .0142 18 102 55 0 104 99 105 100 ?1 29
 103 200 0 105 106 100 .0255 .032 -.0593 18 105 49 0 107 102 108 103 ?1 29 106 1
99 0 108 109 103 .0255 .026 -.0593 18 108 47 0 110 105 111 106 ?1 29 109 198 0 1
11 112 106 .0255 -.00819020071632405 -8e-4 18 111 45 0 113 108 114 109 ?1 29 112
 197 0 114 115 109 .0255 .026 -8e-4 18 114 44 0 116 111 117 112 ?1 29 115 196 0
 117 118 112 .0255 -.00819020071632405 .0142 18 117 39 0 119 114 120 115 ?1 29 1
18 195 0 120 121 115 .0255 -.033 .0142 18 120 37 0 122 117 123 118 ?1 29 121 194
 0 123 124 118 .000488304746007779 -.0084859624365788 .0052 18 123 33 0 125 120
 126 121 ?1 29 124 193 0 126 127 121 5e-4 -.033 .0052 18 126 29 0 128 123 129 12
4 ?1 29 127 192 0 129 130 124 -.0245 -.033 .0052 18 129 27 0 131 126 132 127 ?1
 29 130 191 0 132 133 127 -.0245 .032 .0052 18 132 25 0 134 129 135 130 ?1 29 13
3 190 0 135 136 130 .0255 .032 .0052 18 135 23 0 137 132 138 133 ?1 29 136 189 0
 138 139 133 .0255 -.00819 .0052 18 138 18 0 140 135 141 136 ?1 29 139 188 0 141
 142 136 .000500000000000032 -.020595 .0052 18 141 16 0 143 138 144 139 ?1 29 14
2 187 0 144 145 139 .0255 -.00819 .0142 18 144 15 0 146 141 147 142 ?1 29 145 18
6 0 147 148 142 .0506889355585126 -.01715472155300125 .00615 18 147 9 0 149 144
 150 145 ?1 29 148 185 0 150 0 145 .03069481444796255 -.0166698287641715 .00615
 18 150 6 0 151 147 0 148 ?1 17 151 0 152 151 151 150 153 154 0 153 +15 152 4 0
 151 155 0 17 153 0 156 153 153 150 151 154 0 0 -16 154 5 0 ?151 157 0 158 0 0 1
 16 157 8 0 ?149 159 154 160 0 0 1 31 158 228 0 154 0 160 0 +.03069481444796255
 -.0166698287641715 .0087 -.9997060555275 .02424463944148695 0 0 0 -1 .00255 31
 160 229 0 157 158 161 0 +.0506889355585126 -.01715472155300125 .0087 -.99970605
55275 .02424463944148695 0 0 0 -1 .00255 30 161 230 0 159 160 162 0 +.0255 -.008
19 .0142 -.852550411470428 -.4230355141716265 -.3069181481293545 16 159 14 0 ?16
3 164 157 161 0 0 1 30 162 231 0 164 161 165 0 +.0255 -.00819 .0142 0 0 -1 16 16
4 17 0 ?166 167 159 162 0 0 1 30 165 232 0 167 162 168 0 +.000500000000000032 -.
020595 .0052 .895784638116579 .444488337433447 -1591233168548065e-31 16 167 19 0
 ?169 170 164 165 0 0 1 30 168 233 0 170 165 171 0 +.0255 -.00819 .0052 17679590
33988805e-31 1 1104974396243002e-31 16 170 22 0 ?172 173 167 168 0 0 1 30 171 23
4 0 173 168 174 0 +.0255 .032 .0052 -1 35527136788005e-29 -888178419700125e-31 1
6 173 24 0 ?175 176 170 171 0 0 1 30 174 235 0 176 171 177 0 +-.0245 .032 .0052
 3279428011200465e-31 -1 0 16 176 26 0 ?178 179 173 174 0 0 1 30 177 236 0 179 1
74 180 0 +5e-4 -.033 .0052 -1 0 35527136788005e-29 16 179 28 0 ?181 182 176 177
 0 0 1 30 180 237 0 182 177 183 0 +5e-4 -.033 .0052 2720740020040685e-30 1 10739
7632370027e-29 16 182 30 0 ?143 184 179 180 0 0 1 31 183 238 0 184 180 185 0 +0
 0 .0052 0 0 1 -1 0 0 .0085 16 184 32 0 ?125 186 182 183 0 0 1 30 185 239 0 186
 183 187 0 +.0255 -.033 .0142 -.940887411868727 0 -.338719468272742 16 186 36 0
 ?128 188 184 185 0 0 1 30 187 240 0 188 185 189 0 +.0255 -.00819020071632405 .0
142 286396003303265e-30 -1 0 16 188 38 0 ?190 191 186 187 0 0 1 30 189 241 0 191
 187 192 0 +.0255 -.00819020071632405 .0142 -354003461902409e-25 1 0 16 191 40 0
 ?146 193 188 189 0 0 1 30 192 242 0 193 189 194 0 +.0255 .026 -8e-4 0 -1 0 16 1
93 43 0 ?195 196 191 192 0 0 1 30 194 243 0 196 192 197 0 +.0255 .026 -8e-4 0 0
 -1 16 196 46 0 ?198 199 193 194 0 0 1 30 197 244 0 199 194 200 0 +.0255 .026 -.
0593 0 1 0 16 199 48 0 ?201 202 196 197 0 0 1 30 200 245 0 202 197 203 0 +.0255
 .032 .0052 0 2754041611473255e-31 -1 16 202 50 0 ?204 205 199 200 0 0 1 30 203
 246 0 205 200 206 0 +.0255 -.00819020071632405 .0142 0 0 -1 16 205 51 0 ?207 20
8 202 203 0 0 1 30 206 247 0 208 203 209 0 +.0508592472355378 -.0101320716488811
8 .0142 0 0 -1 16 208 54 0 ?210 211 205 206 0 0 1 30 209 248 0 211 206 212 0 +.0
505194377533731 -.02414381217674455 .0142 .02424463944148695 .9997060555275 0 16
 211 57 0 ?213 214 208 209 0 0 1 30 212 249 0 214 209 215 0 +.0505194377533731 -
.02414381217674455 -8e-4 0 0 1 16 214 59 0 ?216 217 211 212 0 0 1 30 215 250 0 2
17 212 218 0 +.0508592472355378 -.01013207164888118 -8e-4 -.02424463944148695 -.
9997060555275 0 16 217 61 0 ?219 220 214 215 0 0 1 30 218 251 0 220 215 221 0 +.
0255 -.033 .0142 .942684872499033 .33368432861236 0 16 220 65 0 ?98 222 217 218
 0 0 1 30 221 252 0 222 218 223 0 +.0255 -.033 -8e-4 0 0 1 16 222 66 0 ?122 224
 220 221 0 0 1 30 223 253 0 224 221 225 0 +.0505194377533731 -.02414381217674455
 -8e-4 -.942684872499033 -.33368432861236 209155469585474e-31 16 224 68 0 ?226 2
27 222 223 0 0 1 30 225 254 0 227 223 228 0 +.0508592472355378 -.010132071648881
18 .0142 -.997081005938472 .076350950201842 0 16 227 71 0 ?119 229 224 225 0 0 1
 30 228 255 0 229 225 230 0 +.0255 -.00819020071632405 -8e-4 .997081005938472 -.
076350950201842 0 16 229 72 0 ?101 231 227 228 0 0 1 30 230 256 0 231 228 232 0
 +.0255 .032 -.0593 -1 0 0 16 231 77 0 ?233 234 229 230 0 0 1 30 232 257 0 234 2
30 235 0 +-.0245 .032 -.0593 0 0 1 16 234 79 0 ?134 236 231 232 0 0 1 31 235 258
 0 236 232 237 0 +-4440892098500625e-33 .032 -.034 87076315656875e-30 -1 0 1 888
178419700126e-31 0 .01485 16 236 81 0 ?86 238 234 235 0 0 1 30 237 259 0 238 235
 239 0 +.0255 -.027 -8e-4 0 -1 925185853854297e-31 16 238 85 0 ?240 241 236 237
 0 0 1 30 239 260 0 241 237 242 0 +-.0245 -.027 -8e-4 1 28421709430404e-29 0 16
 241 87 0 ?243 244 238 239 0 0 1 30 242 261 0 244 239 245 0 +-.0245 -.027 -8e-4
 -4021940013736415e-31 1 0 16 244 89 0 ?246 247 241 242 0 0 1 30 245 262 0 247 2
42 248 0 +.0255 .026 -8e-4 -1 -21316282072803e-29 0 16 247 91 0 ?249 250 244 245
 0 0 1 31 248 263 0 250 245 251 0 +0 0 -8e-4 0 0 1 1 0 0 .0085 16 250 93 0 ?74 2
52 247 248 0 0 1 31 251 264 0 252 248 253 0 +-.012 -.0355 -.01 261228946970625e-
30 -1 0 1 261228946970625e-30 888178419700125e-31 .005975 16 252 97 0 ?71 254 25
0 251 0 0 1 31 253 265 0 254 251 255 0 +-.012 -.033 -.01 -261228946970625e-30 1
 0 1 4440892098500625e-31 888178419700125e-31 .005975 16 254 100 0 ?68 256 252 2
53 0 0 1 31 255 266 0 256 253 257 0 +.012 -.0355 -.01 261228946970625e-30 -1 0 1
 261228946970625e-30 888178419700125e-31 .005975 16 256 106 0 ?65 258 254 255 0
 0 1 31 257 267 0 258 255 259 0 +.012 -.033 -.01 -261228946970625e-30 1 0 1 0 88
8178419700125e-31 .005975 16 258 109 0 ?62 260 256 257 0 0 1 30 259 268 0 260 25
7 261 0 +-.0245 -.033 .0052 0 0 -1 16 260 115 0 ?262 263 258 259 0 0 1 30 261 26
9 0 263 259 264 0 +.0255 -.033 -.0593 -1 -28421709430404e-29 0 16 263 117 0 ?265
 266 260 261 0 0 1 30 264 270 0 266 261 267 0 +.0255 -.033 -8e-4 607301483555641
e-31 2429205934222565e-31 -1 16 266 119 0 ?268 269 263 264 0 0 1 31 267 271 0 26
9 264 270 0 +329801545550414e-32 -.033 -.034 -261228946970625e-30 1 0 1 17959490
10423045e-31 0 .005 16 269 123 0 ?53 271 266 267 0 0 1 30 270 272 0 271 267 272
 0 +-.0245 .026 -.0593 -11842378929335e-28 1 0 16 271 127 0 ?89 273 269 270 0 0
 1 30 272 273 0 273 270 274 0 +-.0245 .026 -8e-4 1214602967111282e-31 0 -1 16 27
3 129 0 ?275 276 271 272 0 0 1 30 274 274 0 276 272 277 0 +-.0245 -.027 -.0593 0
 -607301483555641e-31 1 16 276 130 0 ?80 278 273 274 0 0 1 30 277 275 0 278 274
 279 0 +-.0245 -.033 -.0593 0 1 0 16 278 132 0 ?280 281 276 277 0 0 1 30 279 276
 0 281 277 282 0 +-.0245 -.027 -.0593 1 21316282072803e-29 0 16 281 135 0 ?283 2
84 278 279 0 0 1 30 282 277 0 284 279 285 0 +.0255 -.027 -.0593 592118946466752e
-30 -1 0 16 284 137 0 ?56 286 281 282 0 0 1 30 285 278 0 286 282 287 0 +-.0245 .
026 -.0593 1 21316282072803e-29 0 16 286 140 0 ?110 288 284 285 0 0 1 31 287 279
 0 288 285 289 0 +-3951087822930705e-33 .026 -.034 -17415263131375e-29 1 0 1 816
340459283203e-31 0 .005 16 288 142 0 ?41 290 286 287 0 0 1 30 289 280 0 290 287
 291 0 +.0255 -.027 -8e-4 0 0 -1 16 290 146 0 ?44 292 288 289 0 0 1 31 291 281 0
 292 289 293 0 +2220446049250315e-33 -.027 -.034 17415263131375e-29 -1 0 1 17959
49010423045e-31 0 .005 16 292 148 0 ?38 294 290 291 0 0 1 31 293 282 0 294 291 2
95 0 +-666133814775094e-32 .057 -.034 87076315656875e-30 -1 0 -1 -87076315656875
e-30 0 .01235 16 294 154 0 ?35 296 292 293 0 0 1 31 295 283 0 296 293 18 0 +-444
0892098500625e-33 .032 -.034 -87076315656875e-30 1 0 -1 -888178419700126e-31 0 .
01235 16 296 157 0 ?30 22 294 295 0 0 1 31 18 284 0 22 295 6 0 +-666133814775094
e-32 .057 -.034 -87076315656875e-30 1 0 1 87076315656875e-30 0 .01485 16 22 161
 0 ?26 9 296 18 0 0 1 17 30 0 297 30 30 27 298 296 0 298 +15 297 176 0 30 299 0
 17 298 0 300 298 298 27 30 296 0 0 -15 300 156 0 298 301 302 14 301 152 303 ?30
4 305 300 4 306 -0 0 304 305 20 15 302 153 0 307 301 0 17 307 0 302 307 307 31 3
5 294 0 0 -17 35 0 308 35 35 31 307 294 0 307 +15 308 166 0 35 309 28 14 309 164
 310 ?305 311 308 4 312 +0 0 305 311 20 15 28 165 0 26 309 0 81 1 310 392 313 30
9 314 0 315 316 317 14 305 159 315 ?301 309 318 4 319 +0 0 301 309 20 14 311 167
 316 ?309 320 321 4 322 -0 0 309 320 20 50 312 310 0 309 319 322 0 +-66613381477
5094e-32 .057 -.034 -87076315656875e-30 1 0 0 0 1 13 20 2 0 0 0 0 0 0 8 15 14 15
 180 323 ?324 0 325 4 5 -0 0 324 0 20 81 1 323 407 313 15 326 0 327 0 328 14 324
 178 327 ?299 15 329 4 17 +0 0 299 15 20 15 325 182 0 330 15 331 17 330 0 325 33
0 330 36 38 292 0 0 -15 331 181 0 332 15 0 17 332 0 331 332 332 51 53 269 0 0 -1
7 53 0 333 53 53 51 332 269 0 332 +15 333 122 0 53 334 335 14 334 113 336 ?337 3
38 333 4 339 +0 0 337 338 20 15 335 121 0 62 334 340 17 62 0 335 62 62 60 341 25
8 0 341 +15 340 120 0 68 334 342 17 68 0 340 68 68 66 343 254 0 343 +15 342 114
 0 122 334 0 17 122 0 342 128 92 120 344 222 0 345 +17 128 0 342 181 122 126 346
 186 0 347 +17 92 0 342 122 348 90 268 266 0 240 -17 344 0 349 95 345 90 122 222
 0 0 -17 345 0 349 344 216 120 98 220 0 190 -15 349 64 0 216 350 0 17 216 0 349
 345 95 96 351 214 0 352 +17 98 0 353 213 190 96 345 220 0 216 +17 190 0 353 98
 119 120 354 188 0 346 +15 353 74 0 119 355 0 17 119 0 353 190 213 117 104 227 0
 356 +17 354 0 357 146 346 117 190 188 0 0 -17 346 0 357 354 347 120 128 186 0 0
 -15 357 35 0 163 358 0 17 347 0 357 346 163 126 143 182 0 359 -17 163 0 357 347
 146 141 360 159 0 0 +17 143 0 361 169 359 141 347 182 0 362 +17 359 0 361 143 1
78 126 181 179 0 0 -15 361 21 0 169 363 0 17 178 0 361 359 175 129 364 176 0 0 +
17 181 0 342 262 128 129 359 179 0 178 +17 262 0 342 348 181 57 131 260 0 0 +17
 348 0 342 92 262 54 265 263 0 0 -17 131 0 365 364 59 129 262 260 0 181 -15 365
 126 0 366 338 0 17 364 0 365 366 131 132 178 176 0 175 -17 59 0 365 131 367 57
 280 278 0 265 -17 367 0 365 59 368 45 80 276 0 0 -17 280 0 369 283 265 45 59 27
8 0 367 +17 265 0 369 280 56 57 348 263 0 262 +15 369 134 0 280 370 0 17 56 0 36
9 265 283 54 371 284 0 268 +17 283 0 369 56 280 42 47 281 0 0 +17 371 0 372 83 2
68 42 56 284 0 283 -17 268 0 372 371 240 54 92 266 0 348 +15 372 151 0 240 304 0
 17 240 0 372 268 83 90 373 238 0 226 +17 83 0 372 240 371 81 44 290 0 243 -17 3
73 0 374 375 226 81 240 238 0 0 -17 226 0 374 373 219 90 95 224 0 344 +15 374 84
 0 226 376 0 17 219 0 374 226 101 93 377 217 0 351 +17 95 0 349 216 344 93 226 2
24 0 219 -17 101 0 374 219 195 99 113 229 0 377 +17 377 0 378 379 351 99 219 217
 0 210 -17 351 0 378 377 352 93 216 214 0 0 -15 378 53 0 379 380 0 17 352 0 378
 351 379 96 213 211 0 0 -17 379 0 378 352 377 102 210 208 0 0 -17 213 0 353 119
 98 102 352 211 0 379 +17 210 0 381 113 104 99 379 208 0 0 +15 381 70 0 356 382
 0 17 113 0 381 356 210 111 101 229 0 207 -17 104 0 381 210 356 102 119 227 0 21
3 -17 356 0 381 104 113 117 207 205 0 383 -17 207 0 384 385 383 111 356 205 0 19
5 +17 383 0 384 207 386 117 146 191 0 354 -15 384 42 0 385 387 0 17 386 0 384 38
3 140 144 166 164 0 360 -17 146 0 357 163 354 144 383 191 0 386 +17 140 0 384 38
6 137 138 172 170 0 169 -17 166 0 388 362 360 138 386 164 0 0 +17 360 0 388 166
 362 144 163 159 0 0 -15 388 13 0 360 389 0 17 362 0 388 360 166 141 169 167 0 1
63 -17 169 0 361 172 143 138 362 167 0 166 +17 172 0 361 175 169 135 140 170 0 0
 +17 175 0 361 178 172 132 390 173 0 0 +17 390 0 391 204 134 135 175 173 0 172 -
15 391 76 0 204 392 0 17 204 0 391 233 390 105 137 202 0 201 +17 134 0 391 390 2
33 132 366 234 0 364 +17 233 0 391 134 204 87 107 231 0 0 +17 366 0 365 393 364
 87 134 234 0 233 -17 393 0 365 77 366 48 89 271 0 0 -17 77 0 365 368 393 75 275
 273 0 249 -17 89 0 329 107 50 87 393 271 0 366 +15 329 179 0 89 324 0 17 107 0
 329 394 89 105 233 231 0 204 -17 50 0 329 89 394 48 110 286 0 275 -17 394 0 329
 50 107 108 201 199 0 198 -17 110 0 395 396 275 108 50 286 0 394 +17 275 0 395 1
10 249 48 77 273 0 393 +15 395 139 0 275 397 0 17 249 0 395 275 396 75 116 247 0
 246 +17 396 0 395 249 110 114 198 196 0 385 -17 116 0 374 195 246 114 249 247 0
 396 -17 246 0 374 116 375 75 368 244 0 0 +17 375 0 374 246 373 78 243 241 0 0 -
17 368 0 365 367 77 78 246 244 0 375 -17 243 0 398 44 80 81 375 241 0 373 +15 39
8 145 0 80 399 0 17 44 0 398 47 243 42 83 290 0 371 +17 80 0 398 243 47 78 367 2
76 0 368 +17 47 0 398 80 44 45 283 281 0 280 -14 399 144 400 ?397 304 401 4 402
 +0 0 397 304 20 81 1 400 380 313 399 403 0 404 405 406 14 397 138 404 ?370 399
 407 4 408 +0 0 370 399 20 14 304 150 405 ?399 301 372 4 409 +0 0 399 301 20 15
 401 147 0 38 399 398 50 402 306 0 399 408 409 0 +-.0255 -.027 .006 -17415263131
375e-29 1 0 1 17415263131375e-29 0 50 408 305 0 397 410 402 0 +-.0255 .026 .006
 17415263131375e-29 -1 0 1 17415263131375e-29 0 50 409 307 0 304 402 306 0 +.025
5 -.027 0 1 822387425648264e-31 0 -822387425648264e-31 1 0 51 306 308 0 301 409
 319 0 +-4440892098500625e-33 .032 -.034 888178419700126e-31 -1 0 .01235 -1 -888
178419700126e-31 0 51 319 309 0 305 306 312 0 +-4440892098500625e-33 .032 -.034
 -888178419700126e-31 1 0 .01485 1 888178419700126e-31 0 50 410 304 0 370 411 40
8 0 +4440892098500625e-33 -.03 -.0593 0 0 -1 -1 0 0 14 370 133 412 ?338 397 369
 4 410 +0 0 338 397 20 50 411 303 0 338 339 410 0 +-.0245 -.033 .0052 -1 -262012
633811537e-30 0 0 0 -1 14 338 125 413 ?334 370 365 4 411 +0 0 334 370 20 50 339
 302 0 334 414 411 0 +.0255 -.033 .006 261228946970625e-30 -1 0 -1 -261228946970
625e-30 0 50 414 301 0 337 415 339 0 +.012 -.0355 -.01 261228946970625e-30 -1 0
 0 0 -1 14 337 111 416 ?417 334 418 4 414 +0 0 417 334 20 51 415 300 0 417 419 4
14 0 +.012 -.033 -.01 0 -1 0 .005975 1 0 888178419700125e-31 14 417 104 420 ?421
 337 422 4 415 +0 0 421 337 20 50 419 299 0 421 423 415 0 +-.012 -.0355 -.01 261
228946970625e-30 -1 0 0 0 -1 14 421 102 424 ?425 417 426 4 419 +0 0 425 417 20 5
1 423 298 0 425 427 419 0 +-.012 -.033 -.01 4440892098500625e-31 -1 0 .005975 1
 4440892098500625e-31 888178419700125e-31 14 425 95 428 ?376 421 429 4 423 +0 0
 376 421 20 50 427 297 0 376 430 423 0 +.00804066717185406 -.000500000000000012
 -8e-4 0 0 -1 -1 0 0 14 376 83 431 ?392 425 432 4 427 +0 0 392 425 20 50 430 296
 0 392 433 427 0 +.0255 .032 .006 -87076315656875e-30 1 0 -1 -87076315656875e-30
 0 14 392 75 434 ?355 376 435 4 430 +0 0 355 376 20 50 433 295 0 355 436 430 0 +
.0381796236177689 -.02059510035816205 .0142 0 0 1 1 0 0 14 355 73 437 ?382 392 3
53 4 433 +0 0 382 392 20 50 436 294 0 382 438 433 0 +.0508592472355378 -.0101320
7164888118 .0052 .076350950201842 .997081005938472 0 -.997081005938472 .07635095
0201842 0 14 382 69 439 ?350 355 381 4 436 +0 0 350 355 20 50 438 293 0 350 440
 436 0 +.0255 -.033 .0052 .3336843286123605 -.942684872499033 0 .942684872499033
 .3336843286123605 0 14 350 63 441 ?380 382 349 4 438 +0 0 380 382 20 50 440 292
 0 380 442 438 0 +.0505194377533731 -.02414381217674455 .0052 .9997060555275 -.0
2424463944148695 0 .02424463944148695 .9997060555275 0 14 380 52 443 ?387 350 44
4 4 440 +0 0 387 350 20 50 442 291 0 387 445 440 0 +.0255 -.027 0 1 822387425648
264e-31 0 -822387425648264e-31 1 0 14 387 41 446 ?358 380 384 4 442 +0 0 358 380
 20 50 445 290 0 358 447 442 0 +5e-4 -.033 .0052 -.338719468272742 -881021669401
515e-31 .940887411868727 .940887411868727 2457870278203845e-31 .338719468272742
 14 358 34 448 ?363 387 357 4 445 +0 0 363 387 20 50 447 289 0 363 449 445 0 +.0
0804066717185405 -5e-4 .0052 0 0 1 -1 0 0 14 363 20 450 ?389 358 451 4 447 +0 0
 389 358 20 50 449 288 0 389 452 447 0 +0 -.0208431 .0052 -.444488337433447 .895
784638116579 0 .895784638116579 .444488337433447 0 14 389 12 453 ?454 363 388 4
 449 +0 0 454 363 20 50 452 287 0 454 455 449 0 +.03069481444796255 -.0166698287
641715 .0087 .9997060555275 -.02424463944148695 0 0 0 -1 14 454 10 456 ?155 389
 156 4 452 +0 0 155 389 20 51 455 286 0 155 0 452 0 +.0506889355585126 -.0171547
2155300125 .0087 .9997060555275 -.02424463944148705 0 .00255 0 0 -1 14 155 3 457
 ?0 454 458 4 455 -0 0 0 454 20 81 1 457 320 313 155 459 0 0 456 460 15 458 7 0
 461 155 152 17 461 0 458 461 461 147 149 157 0 0 -17 149 0 444 149 149 147 461
 157 0 461 +15 444 62 0 149 380 378 80 1 313 462 463 8015 0 0 0 0 3 5 0 0 0 FFFF
TFFFFFFFFFFF2 81 2 459 319 462 155 464 457 0 465 466 467 81 1 456 323 313 454 46
5 0 457 453 468 83 1 460 0 81 2 465 322 462 454 469 456 459 470 471 472 81 1 453
 326 313 389 470 0 456 450 473 83 1 468 0 81 2 470 325 462 389 474 453 465 475 4
76 477 81 1 450 329 313 363 475 0 453 448 478 83 1 473 0 81 2 475 328 462 363 47
9 450 470 480 481 482 81 1 448 332 313 358 480 0 450 446 483 83 1 478 0 81 2 480
 331 462 358 484 448 475 485 486 487 81 1 446 335 313 387 485 0 448 443 488 83 1
 483 0 81 2 485 334 462 387 489 446 480 490 491 492 81 1 443 338 313 380 490 0 4
46 441 493 83 1 488 0 81 2 490 337 462 380 494 443 485 495 496 497 81 1 441 341
 313 350 495 0 443 439 498 83 1 493 0 81 2 495 340 462 350 499 441 490 500 501 5
02 81 1 439 344 313 382 500 0 441 437 503 83 1 498 0 81 2 500 343 462 382 504 43
9 495 505 506 507 81 1 437 347 313 355 505 0 439 434 508 83 1 503 0 81 2 505 346
 462 355 509 437 500 510 511 512 81 1 434 350 313 392 510 0 437 431 513 83 1 508
 0 81 2 510 349 462 392 514 434 505 515 516 517 81 1 431 353 313 376 515 0 434 4
28 518 83 1 513 0 81 2 515 352 462 376 519 431 510 520 521 522 81 1 428 356 313
 425 520 0 431 424 523 83 1 518 0 81 2 520 355 462 425 524 428 515 525 526 527 8
1 1 424 359 313 421 525 0 428 420 528 83 1 523 0 81 2 525 358 462 421 529 424 52
0 530 531 532 81 1 420 362 313 417 530 0 424 416 533 83 1 528 0 81 2 530 361 462
 417 534 420 525 535 536 537 81 1 416 365 313 337 535 0 420 336 538 83 1 533 0 8
1 2 535 364 462 337 539 416 530 540 541 542 81 1 336 368 313 334 540 0 416 413 5
43 83 1 538 0 81 2 540 367 462 334 544 336 535 545 546 547 81 1 413 371 313 338
 545 0 336 412 548 83 1 543 0 81 2 545 370 462 338 549 413 540 550 551 552 81 1
 412 374 313 370 550 0 413 404 553 83 1 548 0 81 2 550 373 462 370 554 412 545 5
55 556 557 81 1 404 377 313 397 555 0 412 400 558 83 1 553 0 81 2 555 376 462 39
7 559 404 550 403 560 561 83 1 558 0 80 2 462 562 563 8014 0 0 0 0 3 5 0 0 0 FFF
FTFFFFFFFFFFF2 1 81 1 559 375 564 397 0 555 554 565 566 81 2 403 379 462 399 565
 400 555 567 568 569 83 4 560 .99998468160538 0 .99998468160538 .99998468160538
 82 1 561 1 81 1 565 378 564 399 0 403 559 570 571 81 2 567 382 462 304 570 405
 403 572 573 574 83 4 568 .99998468160538 0 .99998468160538 .99998468160538 82 1
 569 1 81 1 570 381 564 304 0 567 565 575 576 81 1 405 383 313 304 567 0 400 303
 577 81 2 572 385 462 301 575 303 567 578 579 580 83 4 573 .99998468160538 0 .99
998468160538 .99998468160538 82 1 574 1 81 1 575 384 564 301 0 572 570 581 582 8
1 1 303 386 313 301 572 0 405 315 583 81 2 578 388 462 305 581 315 572 314 584 5
85 83 4 579 .99998468160538 0 .99998468160538 .99998468160538 82 1 580 1 81 1 58
1 387 564 305 0 578 575 586 587 81 1 315 389 313 305 578 0 303 310 588 81 2 314
 391 462 309 586 310 578 589 590 591 83 4 584 .99998468160538 0 .99998468160538
 .99998468160538 82 1 585 1 81 1 586 390 564 309 0 314 581 592 593 81 2 589 394
 462 311 592 316 314 594 595 596 83 4 590 .99998468160538 0 .99998468160538 .999
98468160538 82 1 591 1 81 1 592 393 564 311 0 589 586 597 598 81 1 316 395 313 3
11 589 0 310 599 600 81 2 594 397 462 320 597 599 589 601 602 603 83 4 595 .9999
8468160538 0 .99998468160538 .99998468160538 82 1 596 1 14 320 170 599 ?311 299
 604 4 605 -0 0 311 299 20 81 1 597 396 564 320 0 594 592 606 607 81 1 599 398 3
13 320 594 0 316 608 609 81 2 601 400 462 299 606 608 594 610 611 612 83 4 602 .
99998468160538 0 .99998468160538 .99998468160538 82 1 603 1 14 299 175 608 ?320
 324 24 4 613 +0 0 320 324 20 81 1 606 399 564 299 0 601 597 614 615 81 1 608 40
1 313 299 601 0 599 327 616 81 2 610 403 462 324 614 327 601 326 617 618 83 4 61
1 .99998468160538 0 .99998468160538 .99998468160538 82 1 612 1 81 1 614 402 564
 324 0 610 606 619 620 81 1 327 404 313 324 610 0 608 323 621 81 2 326 406 462 1
5 619 323 610 0 622 623 83 4 617 .99998468160538 0 .99998468160538 .999984681605
38 82 1 618 1 81 1 619 405 564 15 0 326 614 0 624 83 4 622 .99998468160538 0 .99
998468160538 .99998468160538 82 1 623 1 80 1 564 0 625 8001 0 0 0 0 3 5 0 0 0 FF
FFTFTFFFFFFFFF2 83 3 624 .996078431372549 .996078431372549 1 79 15 625 SDL/TYSA_
COLOUR83 1 621 0 83 3 620 .996078431372549 .996078431372549 1 83 1 616 0 83 3 61
5 .996078431372549 .996078431372549 1 15 24 177 0 21 299 297 50 613 313 0 299 60
5 17 0 +.0255 .032 .006 -87076315656875e-30 1 0 -1 -87076315656875e-30 0 51 605
 312 0 320 322 613 0 +-4440892098500625e-33 .032 -.034 -816340459283203e-31 1 0
 .005 1 816340459283203e-31 0 50 17 314 0 324 613 5 0 +-600826578032437e-32 .029
 -.0593 0 0 -1 -1 -3483052626275e-28 0 51 322 311 0 311 312 605 0 +0 0 0 0 0 -1
 .0085 -1 0 0 83 1 609 0 83 3 607 .996078431372549 .996078431372549 1 15 604 172
 0 25 320 626 17 25 0 604 25 25 10 21 9 0 0 -15 626 171 0 627 320 0 17 627 0 626
 627 627 39 41 288 0 0 -17 41 0 407 41 41 39 627 288 0 627 +15 407 141 0 41 397
 395 83 1 600 0 83 3 598 .996078431372549 .996078431372549 1 83 3 593 .996078431
372549 .996078431372549 1 83 1 588 0 83 3 587 .996078431372549 .996078431372549
 1 83 1 583 0 83 3 582 .996078431372549 .996078431372549 1 83 1 577 0 83 3 576 .
996078431372549 .996078431372549 1 83 3 571 .996078431372549 .996078431372549 1
 81 1 554 372 564 370 0 550 549 559 628 83 3 566 .996078431372549 .9960784313725
49 1 81 1 549 369 564 338 0 545 544 554 629 83 3 628 .996078431372549 .996078431
372549 1 81 1 544 366 564 334 0 540 539 549 630 83 3 629 .996078431372549 .99607
8431372549 1 81 1 539 363 564 337 0 535 534 544 631 83 3 630 .996078431372549 .9
96078431372549 1 81 1 534 360 564 417 0 530 529 539 632 83 3 631 .99607843137254
9 .996078431372549 1 81 1 529 357 564 421 0 525 524 534 633 83 3 632 .9960784313
72549 .996078431372549 1 81 1 524 354 564 425 0 520 519 529 634 83 3 633 .996078
431372549 .996078431372549 1 81 1 519 351 564 376 0 515 514 524 635 83 3 634 .99
6078431372549 .996078431372549 1 81 1 514 348 564 392 0 510 509 519 636 83 3 635
 .996078431372549 .996078431372549 1 81 1 509 345 564 355 0 505 504 514 637 83 3
 636 .996078431372549 .996078431372549 1 81 1 504 342 564 382 0 500 499 509 638
 83 3 637 .996078431372549 .996078431372549 1 81 1 499 339 564 350 0 495 494 504
 639 83 3 638 .996078431372549 .996078431372549 1 81 1 494 336 564 380 0 490 489
 499 640 83 3 639 .996078431372549 .996078431372549 1 81 1 489 333 564 387 0 485
 484 494 641 83 3 640 .996078431372549 .996078431372549 1 81 1 484 330 564 358 0
 480 479 489 642 83 3 641 .996078431372549 .996078431372549 1 81 1 479 327 564 3
63 0 475 474 484 643 83 3 642 .996078431372549 .996078431372549 1 81 1 474 324 5
64 389 0 470 469 479 644 83 3 643 .996078431372549 .996078431372549 1 81 1 469 3
21 564 454 0 465 464 474 645 83 3 644 .996078431372549 .996078431372549 1 81 1 4
64 318 564 155 0 459 0 469 646 83 3 645 .996078431372549 .996078431372549 1 83 3
 646 .996078431372549 .996078431372549 1 79 21 563 SDL/TYSA_REFLECTIVITY83 4 556
 .99998468160538 0 .99998468160538 .99998468160538 82 1 557 1 83 4 551 .99998468
160538 0 .99998468160538 .99998468160538 82 1 552 1 83 4 546 .99998468160538 0 .
99998468160538 .99998468160538 82 1 547 1 83 4 541 .99998468160538 0 .9999846816
0538 .99998468160538 82 1 542 1 83 4 536 .99998468160538 0 .99998468160538 .9999
8468160538 82 1 537 1 83 4 531 .99998468160538 0 .99998468160538 .99998468160538
 82 1 532 1 83 4 526 .99998468160538 0 .99998468160538 .99998468160538 82 1 527
 1 83 4 521 .99998468160538 0 .99998468160538 .99998468160538 82 1 522 1 83 4 51
6 .99998468160538 0 .99998468160538 .99998468160538 82 1 517 1 83 4 511 .9999846
8160538 0 .99998468160538 .99998468160538 82 1 512 1 83 4 506 .99998468160538 0
 .99998468160538 .99998468160538 82 1 507 1 83 4 501 .99998468160538 0 .99998468
160538 .99998468160538 82 1 502 1 83 4 496 .99998468160538 0 .99998468160538 .99
998468160538 82 1 497 1 83 4 491 .99998468160538 0 .99998468160538 .999984681605
38 82 1 492 1 83 4 486 .99998468160538 0 .99998468160538 .99998468160538 82 1 48
7 1 83 4 481 .99998468160538 0 .99998468160538 .99998468160538 82 1 482 1 83 4 4
76 .99998468160538 0 .99998468160538 .99998468160538 82 1 477 1 83 4 471 .999984
68160538 0 .99998468160538 .99998468160538 82 1 472 1 83 4 466 .99998468160538 0
 .99998468160538 .99998468160538 82 1 467 1 79 21 463 SDL/TYSA_TRANSLUCENCY15 15
6 11 0 153 454 0 15 451 31 0 647 363 361 17 647 0 451 647 647 123 125 184 0 0 -1
7 125 0 321 125 125 123 647 184 0 647 +15 321 169 0 125 311 648 15 648 168 0 649
 311 0 17 649 0 648 649 649 72 74 250 0 0 -17 74 0 432 74 74 72 649 250 0 649 +1
5 432 92 0 74 376 374 15 435 80 0 86 392 391 17 86 0 435 86 86 84 650 236 0 650
 +17 650 0 318 650 650 84 86 236 0 0 -15 318 163 0 650 305 651 15 651 160 0 29 3
05 0 17 29 0 651 29 29 23 26 22 0 0 -15 429 99 0 343 425 652 17 343 0 429 343 34
3 66 68 254 0 0 -15 652 96 0 653 425 0 17 653 0 652 653 653 69 71 252 0 0 -17 71
 0 426 71 71 69 653 252 0 653 +15 426 103 0 71 421 0 15 422 108 0 341 417 654 17
 341 0 422 341 341 60 62 258 0 0 -15 654 105 0 655 417 0 17 655 0 654 655 655 63
 65 256 0 0 -17 65 0 418 65 65 63 655 256 0 655 +15 418 112 0 65 337 0 17 38 0 4
01 38 38 36 330 292 0 330 +83 1 406 0 17 195 0 374 101 116 111 385 193 0 0 +17 3
85 0 384 198 207 114 195 193 0 0 -17 198 0 384 201 385 108 396 196 0 0 +17 201 0
 384 137 198 105 394 199 0 0 +17 137 0 384 140 201 135 204 202 0 390 -83 1 328 0
 83 1 317 0 19 16 183 0 1 0 8 4 0 S0 74 20 14 6 0 0 656 12 619 326 323 2 0 0 0 0
 0 0 0 0 0 0 0 0 0 0 81 1 656 316 657 1 0 12 0 0 658 81 1 12 317 659 1 656 2 0 0
 660 80 1 659 313 661 8041 0 0 0 0 3 5 0 0 0 TTTFFFFFFFFFFFFF2 83 1 660 0 79 23
 661 SDL/TYSA_TRANSLUCENCY_280 1 657 564 662 8040 0 0 0 0 3 5 0 0 0 TTTFFFFFFFFF
FFFF2 83 3 658 .996078431372549 .996078431372549 1 79 17 662 SDL/TYSA_COLOUR_280
 1 11 663 664 8017 0 0 0 0 0 0 0 0 0 TTTTTTTTTTTTTFTF3 84 6 13 Solid179 13 664 S
DL/TYSA_NAME1 0 
