**ABCDEFGHIJKLMNOPQRSTUVWXYZabcdefghijklmnopqrstuvwxyz**************************
**PARASOLID !"#$%&'()*+,-./:;<=>?@[\]^_`{|}~0123456789**************************
**PART1;
MC=;
MC_MODEL=;
MC_ID=unknown;
OS=Windows;
OS_RELEASE=;
FRU=;
APPL=Autodesk Inventor 2024;
SITE=unknown;
USER=unknown;
FORMAT=text;
GUISE=transmit;
KEY=DC23[L][F][1];
FILE=C:\Users\juanj\Documents\Documentos\Unisabana\Shell\C23 DESING\A23[F]\PFA23[F]\DC23[L][F][1].x_t;
DATE=2023-Jun-09 11:29:17;
**PART2;
SCH=SCH_3500195_35002;
USFLD_SIZE=0;
**PART3;
**END_OF_HEADER*****************************************************************
T51 : TRANSMIT FILE created by modeller version 350019517 SCH_3500195_350020 176
 3 1 3 0 0 0 0 2 3 4 12 2 4 0 0 0 0 0 0 0 0 0 1e3 1e-8 0 3 0 1 0 2 1 5 0 0 0 6 0
 0 7 0 8 0 0 0 0 0 0 0 12 3 4 0 0 0 0 0 0 0 0 0 1e3 1e-8 0 4 2 1 0 2 1 9 0 0 0 1
0 0 0 11 0 12 0 0 0 0 0 0 0 12 4 494 13 14 0 0 0 0 0 0 0 1e3 1e-8 0 0 3 1 0 1 1
 15 0 16 17 18 0 0 19 20 21 0 0 0 0 0 0 0 81 1 13 494 22 4 23 0 0 0 24 70 14 0 4
 T4 0 0 6 20 1 25 25 13 15 220 0 4 0 26 0 0 27 0 50 16 389 0 26 28 0 0 +0 0 0 0
 -1 0 0 0 1 30 17 355 0 20 29 0 0 +.02435 0 -.0255 -1 0 0 29 18 275 0 21 30 0 -.
0131 0 520474889637625e-33 19 19 1 0 4 27 0 31 0 V0 16 20 215 0 ?32 0 33 17 0 0
 4 18 21 211 0 34 0 35 18 ?4 17 34 0 36 34 34 21 37 33 0 37 +18 35 204 0 38 21 3
9 30 ?4 17 38 0 40 38 38 35 41 42 0 41 +18 39 197 0 43 35 44 45 ?4 29 30 274 0 3
5 45 18 .02115 .0035 .012 29 45 273 0 39 46 30 .02115 .0035 -.012 29 46 272 0 44
 47 45 .03935 -.04276639852392725 -.02435847675583195 18 44 181 0 48 39 49 46 ?4
 29 47 271 0 49 50 46 .03935 -.0611106158364603 -.0239343950913552 18 49 176 0 5
1 44 52 47 ?4 29 50 270 0 52 53 47 .02435 0 -.0255 18 52 171 0 54 49 55 50 ?4 29
 53 269 0 55 56 50 .03131104415481675 -.051902378265873 -.0487413438310592 18 55
 167 0 57 52 58 53 ?4 29 56 268 0 58 59 53 .03935 -.061915463532124 -.0484121051
65406 18 58 163 0 60 55 61 56 ?4 29 59 267 0 61 62 56 .03935 -.0433365929003395
 -.0490229940586394 18 61 161 0 63 58 64 59 ?4 29 62 266 0 64 65 59 .02435 -.043
3365929003395 -.0490229940586394 18 64 158 0 66 61 67 62 ?4 29 65 265 0 67 68 62
 .02435 -.061915463532124 -.048412105165406 18 67 153 0 69 64 70 65 ?4 29 68 264
 0 70 71 65 -.03415 0 -.0255 18 70 146 0 32 67 72 68 ?4 29 71 263 0 72 73 68 .02
435 -.07185 .0185 18 72 131 0 74 70 75 71 ?4 29 73 262 0 75 76 71 .02435 0 .0185
 18 75 129 0 77 72 78 73 ?4 29 76 261 0 78 79 73 .03035 0 -.0255 18 78 121 0 80
 75 81 76 ?4 29 79 260 0 81 82 76 .03035 -.0433365929003395 -.0490229940586394 1
8 81 119 0 83 78 84 79 ?4 29 82 259 0 84 85 79 .03035 -.04220664108990255 -.0001
454232989614956 18 84 117 0 86 81 87 82 ?4 29 85 258 0 87 88 82 .03035 -.0603146
498244148 .000273197694982219 18 87 115 0 89 84 90 85 ?4 29 88 257 0 90 91 85 .0
3035 -.061915463532124 -.048412105165406 18 90 113 0 92 87 93 88 ?4 29 91 256 0
 93 94 88 .02115 .006 -.012 18 93 109 0 95 90 96 91 ?4 29 94 255 0 96 97 91 .021
15 .006 .012 18 96 106 0 98 93 99 94 ?4 29 97 254 0 99 100 94 -.0046 .006 0 18 9
9 103 0 101 96 102 97 ?4 29 100 253 0 102 103 97 -.03415 .006 -.0255 18 102 99 0
 104 99 105 100 ?4 29 103 252 0 105 106 100 .03035 .006 -.0255 18 105 97 0 107 1
02 108 103 ?4 29 106 251 0 108 109 103 .03035 .006 .0245 18 108 95 0 110 105 111
 106 ?4 29 109 250 0 111 112 106 -.03415 .006 .0245 18 111 94 0 113 108 114 109
 ?4 29 112 249 0 114 115 109 -.02215 0 .0245 18 114 89 0 116 111 117 112 ?4 29 1
15 248 0 117 118 112 -.02215 0 .0185 18 117 87 0 119 114 120 115 ?4 29 118 247 0
 120 121 115 .0178309183715317 -.0592859903852142 .0245 18 120 85 0 122 117 123
 118 ?4 29 121 246 0 123 124 118 .01783091837153175 -.0592859903852142 .0185 18
 123 84 0 125 120 126 121 ?4 29 124 245 0 126 127 121 .01835 -.0599767682446374
 .0245 18 126 79 0 128 123 129 124 ?4 29 127 244 0 129 130 124 .01835 -.05997676
82446374 .0185 18 129 77 0 131 126 132 127 ?4 29 130 243 0 132 133 127 .01835 0
 .0245 18 132 75 0 134 129 135 130 ?4 29 133 242 0 135 136 130 .01835 0 .0185 18
 135 74 0 137 132 138 133 ?4 29 136 241 0 138 139 133 -.03415 0 .0185 18 138 69
 0 140 135 141 136 ?4 29 139 240 0 141 142 136 -.03415 0 .0245 18 141 67 0 143 1
38 144 139 ?4 29 142 239 0 144 145 139 .03035 -.0621652170456457 -.0484132649146
546 18 144 62 0 146 141 147 142 ?4 29 145 238 0 147 148 142 .02435 -.06216521704
56457 -.0484132649146546 18 147 60 0 149 144 150 145 ?4 29 148 237 0 150 151 145
 -.00995 -.07185 -.043 18 150 55 0 152 147 153 148 ?4 29 151 236 0 153 154 148 .
03131104415481675 -.0512451166468117 -.02875214656943535 18 153 51 0 155 150 156
 151 ?4 29 154 235 0 156 157 151 .02435 -.07185 -.0255 18 156 46 0 158 153 159 1
54 ?4 29 157 234 0 159 160 154 .01835 -.07185 .0185 18 159 41 0 161 156 162 157
 ?4 29 160 233 0 162 163 157 -.00995 -.07785 -.043 18 162 37 0 164 159 165 160 ?
4 29 163 232 0 165 166 160 .01835 -.07785 .0185 18 165 32 0 167 162 168 163 ?4 2
9 166 231 0 168 169 163 .01835 -.07785 .0245 18 168 30 0 170 165 171 166 ?4 29 1
69 230 0 171 172 166 .03035 -.07785 .0245 18 171 28 0 173 168 174 169 ?4 29 172
 229 0 174 175 169 .03035 -.07785 -.0484132649146546 18 174 26 0 176 171 177 172
 ?4 29 175 228 0 177 178 172 .02435 -.07785 -.0484132649146546 18 177 24 0 179 1
74 180 175 ?4 29 178 227 0 180 181 175 .02435 -.07785 -.0255 18 180 23 0 182 177
 183 178 ?4 29 181 226 0 183 184 178 -.00720282537871679 -.07185 -.0607 18 183 1
8 0 185 180 186 181 ?4 29 184 225 0 186 187 181 -.00720282537871679 -.07785 -.06
07 18 186 16 0 188 183 189 184 ?4 29 187 224 0 189 190 184 -.03035 -.07185 -.060
7 18 189 11 0 191 186 192 187 ?4 29 190 223 0 192 193 187 -.03035 -.07185 -.0405
404077862857 18 192 9 0 194 189 195 190 ?4 29 193 222 0 195 196 190 -.03035 -.07
785 -.0607 18 195 7 0 197 192 198 193 ?4 29 196 221 0 198 0 193 -.03035 -.07785
 -.0405404077862857 18 198 6 0 199 195 0 196 ?4 17 199 0 200 201 202 198 203 204
 0 205 +15 200 21 0 206 207 0 17 201 0 200 208 199 195 209 210 0 0 +17 202 0 200
 199 211 165 212 213 0 0 +17 203 0 214 215 205 165 199 204 0 202 -16 204 33 0 ?1
99 216 213 217 0 0 4 17 205 0 214 203 194 198 218 219 0 209 -15 214 39 0 203 220
 0 17 194 0 214 205 215 192 221 222 0 223 -17 218 0 224 225 209 192 205 219 0 0
 +16 219 8 0 ?218 226 210 227 0 0 4 17 209 0 224 218 228 198 201 210 0 0 -15 224
 4 0 209 229 0 17 228 0 224 209 225 195 230 231 0 201 -16 210 5 0 ?201 219 0 232
 0 0 4 30 232 276 0 210 0 227 0 +-.03035 -.07785 -.0405404077862857 0 0 -1 30 22
7 277 0 219 232 233 0 +-.03035 -.07785 -.0405404077862857 0 1 0 30 233 278 0 226
 227 234 0 +-.03035 -.07185 -.0607 0 0 1 16 226 10 0 ?223 231 219 233 0 0 4 30 2
34 279 0 231 233 235 0 +-.03035 -.07785 -.0607 0 1 0 16 231 12 0 ?230 236 226 23
4 0 0 4 30 235 280 0 236 234 237 0 +-.03035 -.07785 -.0607 1 0 0 16 236 15 0 ?20
8 238 231 235 0 0 4 30 237 281 0 238 235 239 0 +-.00720282537871679 -.07185 -.06
07 -1 0 0 16 238 17 0 ?191 240 236 237 0 0 4 30 239 282 0 240 237 241 0 +-.00720
282537871679 -.07785 -.0607 0 1 0 16 240 19 0 ?242 243 238 239 0 0 4 30 241 283
 0 243 239 244 0 +.02435 -.07785 -.0255 465151565091228e-30 0 -1 16 243 22 0 ?20
6 245 240 241 0 0 4 30 244 284 0 245 241 246 0 +.02435 -.07785 -.048413264914654
6 1 0 0 16 245 25 0 ?247 248 243 244 0 0 4 30 246 285 0 248 244 249 0 +.03035 -.
07785 -.0484132649146546 0 0 1 16 248 27 0 ?250 251 245 246 0 0 4 30 249 286 0 2
51 246 252 0 +.03035 -.07785 .0245 -1 0 0 16 251 29 0 ?211 213 248 249 0 0 4 30
 252 287 0 213 249 217 0 +.01835 -.07785 .0245 0 0 -1 16 213 31 0 ?202 204 251 2
52 0 0 4 30 217 288 0 204 252 253 0 +.01835 -.07785 .0185 -.636318140716495 0 -.
771426745579322 30 253 289 0 216 217 254 0 +-.00720282537871679 -.07785 -.0607 .
66747704798369 0 .744630371671058 16 216 34 0 ?255 256 204 253 0 0 4 31 254 290
 0 256 253 257 0 +-.01265 -.07785 -.043 0 1 0 1 0 0 .0027 16 256 36 0 ?164 258 2
16 254 0 0 4 30 257 291 0 258 254 259 0 +.01835 -.07185 .0185 0 -1 -592118946466
752e-30 16 258 40 0 ?260 222 256 257 0 0 4 30 259 292 0 222 257 261 0 +-.03035 -
.07185 -.0405404077862857 .636318140716495 0 .771426745579322 16 222 42 0 ?221 2
62 258 259 0 0 4 30 261 293 0 262 259 263 0 +.02435 -.07185 -.0255 -.66747704798
369 0 -.744630371671058 16 262 45 0 ?185 264 222 261 0 0 4 30 263 294 0 264 261
 265 0 +.02435 -.07785 -.0255 0 1 0 16 264 47 0 ?266 267 262 263 0 0 4 31 265 29
5 0 267 263 268 0 +.03386104415481675 -.0512451166468117 -.02875214656943535 0 .
0328630809530672 .999459863081191 -1 0 0 .00255 16 267 50 0 ?155 269 264 265 0 0
 4 31 268 296 0 269 265 270 0 +-.01265 -.07185 -.043 0 -1 0 1 0 0 .0027 16 269 5
4 0 ?152 271 267 268 0 0 4 30 270 297 0 271 268 272 0 +.02435 -.07785 -.04841326
49146546 -679521104462759e-30 1 0 16 271 59 0 ?273 274 269 270 0 0 4 30 272 298
 0 274 270 275 0 +.03035 -.0621652170456457 -.0484132649146546 -1 0 0 16 274 61
 0 ?276 277 271 272 0 0 4 30 275 299 0 277 272 278 0 +.03035 -.07785 -.048413264
9146546 0 1 0 16 277 63 0 ?279 280 274 275 0 0 4 30 278 300 0 280 275 281 0 +-.0
3415 0 .0245 .559116132172218 -.829089350278231 0 16 280 66 0 ?170 282 277 278 0
 0 4 30 281 301 0 282 278 283 0 +-.03415 0 .0185 0 0 1 16 282 68 0 ?284 285 280
 281 0 0 4 30 283 302 0 285 281 286 0 +.01835 -.07785 .0185 -.559116132172218 .8
29089350278231 -113507401760358e-30 16 285 70 0 ?287 288 282 283 0 0 4 30 286 30
3 0 288 283 289 0 +.01835 0 .0185 -59211894646675e-29 0 1 16 288 73 0 ?290 291 2
85 286 0 0 4 30 289 304 0 291 286 292 0 +.01835 -.0599767682446374 .0185 0 1 177
704490394153e-30 16 291 76 0 ?293 294 288 289 0 0 4 30 292 305 0 294 289 295 0 +
.01835 -.0599767682446374 .0245 0 0 -1 16 294 78 0 ?296 297 291 292 0 0 4 30 295
 306 0 297 292 298 0 +.01835 0 .0245 592348301313844e-31 -1 0 16 297 80 0 ?299 3
00 294 295 0 0 4 30 298 307 0 300 295 301 0 +.01783091837153175 -.05928599038521
42 .0185 -2960594732333745e-30 3552713678800495e-30 1 16 300 83 0 ?302 303 297 2
98 0 0 4 30 301 308 0 303 298 304 0 +-.02215 0 .0185 .559116132172218 -.82908935
0278231 -1490495675222404e-31 16 303 86 0 ?305 306 300 301 0 0 4 30 304 309 0 30
6 301 307 0 +-.02215 0 .0245 0 0 -1 16 306 88 0 ?308 309 303 304 0 0 4 30 307 31
0 0 309 304 310 0 +.0178309183715317 -.0592859903852142 .0245 -.559116132172218
 .829089350278231 0 16 309 90 0 ?311 312 306 307 0 0 4 30 310 311 0 312 307 313
 0 +-.03415 .006 .0245 1 0 0 16 312 93 0 ?314 315 309 310 0 0 4 30 313 312 0 315
 310 316 0 +.03035 .006 -.0255 0 0 1 16 315 96 0 ?317 318 312 313 0 0 4 30 316 3
13 0 318 313 319 0 +-.03415 .006 -.0255 1 0 0 16 318 98 0 ?320 321 315 316 0 0 4
 30 319 314 0 321 316 322 0 +-.03415 .006 .0245 0 0 -1 16 321 100 0 ?323 324 318
 319 0 0 4 31 322 315 0 324 319 325 0 +-.00885 .006 0 0 -1 0 1 0 0 .00425 16 324
 102 0 ?101 326 321 322 0 0 4 31 325 316 0 326 322 327 0 +.01515 .006 .012 0 -1
 0 1 0 0 .006 16 326 105 0 ?98 328 324 325 0 0 4 31 327 317 0 328 325 329 0 +.01
515 .006 -.012 0 -1 0 1 0 0 .006 16 328 108 0 ?95 330 326 327 0 0 4 30 329 318 0
 330 327 331 0 +.03035 -.0621652170456457 -.0484132649146546 0 .999989218778531
 .00464352524525755 16 330 112 0 ?332 333 328 329 0 0 4 30 331 319 0 333 329 334
 0 +.03035 -.061915463532124 -.048412105165406 0 .03286308095306735 .99945986308
1191 16 333 114 0 ?335 336 330 331 0 0 4 30 334 320 0 336 331 337 0 +.03035 -.06
03146498244148 .000273197694982219 0 .999732886039627 -.0231118275105802 16 336
 116 0 ?338 339 333 334 0 0 4 30 337 321 0 339 334 340 0 +.03035 -.0422066410899
0255 -.0001454232989614956 0 -.0231118275105795 -.999732886039627 16 339 118 0 ?
341 342 336 337 0 0 4 30 340 322 0 342 337 343 0 +.03035 0 -.0255 0 -.8788754114
68366 -.477051371569468 16 342 120 0 ?344 345 339 340 0 0 4 30 343 323 0 345 340
 346 0 +.03035 .006 -.0255 0 -1 -592118946466751e-30 16 345 122 0 ?347 348 342 3
43 0 0 4 30 346 324 0 348 343 349 0 +.03035 .006 .0245 0 -1 0 16 348 123 0 ?173
 350 345 346 0 0 4 30 349 325 0 350 346 351 0 +-.03415 0 .0185 1 0 8881784197001
26e-30 16 350 126 0 ?119 352 348 349 0 0 4 30 351 326 0 352 349 353 0 +.01783091
837153175 -.0592859903852142 .0185 .600739114966896 -.799445129917489 0 16 352 1
27 0 ?131 354 350 351 0 0 4 30 353 327 0 354 351 355 0 +.02435 0 .0185 -1 0 0 16
 354 128 0 ?137 356 352 353 0 0 4 30 355 328 0 356 353 357 0 +.02435 0 .0185 -14
83387757327974e-31 -1 -1483387757327974e-31 16 356 130 0 ?358 359 354 355 0 0 4
 30 357 329 0 359 355 360 0 +.02435 -.07185 .0185 -1 -2368475785867e-27 23684757
85867e-27 16 359 132 0 ?161 361 356 357 0 0 4 30 360 330 0 361 357 362 0 +-.0341
5 0 .0245 0 1 0 16 361 135 0 ?113 363 359 360 0 0 4 30 362 331 0 363 360 364 0 +
.01835 -.0599767682446374 .0245 -.600739114966897 .799445129917488 0 16 363 137
 0 ?122 365 361 362 0 0 4 30 364 332 0 365 362 366 0 +-.02215 0 .0245 1 0 0 16 3
65 138 0 ?134 367 363 364 0 0 4 30 366 333 0 367 364 368 0 +.02435 -.07185 .0185
 0 -3229739708000455e-31 -1 16 367 141 0 ?158 369 365 366 0 0 4 30 368 334 0 369
 366 370 0 +-.03415 0 -.0255 0 1 0 16 369 145 0 ?104 371 367 368 0 0 4 30 370 33
5 0 371 368 372 0 +-.03415 0 -.0255 0 0 1 16 371 147 0 ?140 373 369 370 0 0 4 30
 372 336 0 373 370 374 0 +.02435 -.061915463532124 -.048412105165406 -1422472631
561034e-29 -.999989218778531 -.00464352524525755 16 373 152 0 ?149 375 371 372 0
 0 4 30 374 337 0 375 372 376 0 +.03035 -.061915463532124 -.048412105165406 -1 0
 0 16 375 154 0 ?377 378 373 374 0 0 4 30 376 338 0 378 374 379 0 +.02435 -.0433
365929003395 -.0490229940586394 1911200523085595e-31 -.999459863081191 .03286308
09530675 16 378 157 0 ?69 380 375 376 0 0 4 30 379 339 0 380 376 381 0 +.02435 -
.0433365929003395 -.0490229940586394 1 0 0 16 380 159 0 ?382 383 378 379 0 0 4 3
0 381 340 0 383 379 384 0 +.03035 -.0433365929003395 -.0490229940586394 1 0 0 16
 383 160 0 ?385 386 380 381 0 0 4 30 384 341 0 386 381 387 0 +.03935 -.061915463
532124 -.048412105165406 0 .999459863081191 -.0328630809530675 16 386 162 0 ?388
 389 383 384 0 0 4 30 387 342 0 389 384 390 0 +.03935 -.061915463532124 -.048412
105165406 -1 0 0 16 389 164 0 ?92 391 386 387 0 0 4 31 390 343 0 391 387 392 0 +
.03386104415481675 -.051902378265873 -.0487413438310592 0 .0328630809530672 .999
459863081191 -1 0 0 .00255 16 391 166 0 ?57 393 389 390 0 0 4 30 392 344 0 393 3
90 394 0 +.02435 0 .0185 -242230478100034e-30 0 -1 16 393 170 0 ?395 396 391 392
 0 0 4 30 394 345 0 396 392 397 0 +.02435 0 -.0255 0 -.878875411468366 -.4770513
71569468 16 396 172 0 ?66 398 393 394 0 0 4 30 397 346 0 398 394 399 0 +.03935 -
.0611106158364603 -.0239343950913552 0 -.03286308095306705 -.999459863081191 16
 398 175 0 ?60 400 396 397 0 0 4 30 399 347 0 400 397 401 0 +.03035 -.0603146498
244148 .000273197694982219 .348314034789191 -.0308051259122932 -.936871590660322
 16 400 177 0 ?402 403 398 399 0 0 4 30 401 348 0 403 399 404 0 +.03935 -.042766
39852392725 -.02435847675583195 0 -.999732886039627 .0231118275105796 16 403 180
 0 ?51 405 400 401 0 0 4 30 404 349 0 405 401 406 0 +.03035 -.04220664108990255
 -.0001454232989614956 .3483285977109805 -.02166439133912355 -.937122106325855 1
6 405 182 0 ?407 408 403 404 0 0 4 30 406 350 0 408 404 409 0 +.03935 -.04333659
29003395 -.0490229940586394 0 .0231118275105797 .999732886039627 16 408 188 0 ?4
8 410 405 406 0 0 4 30 409 351 0 410 406 411 0 +.02435 0 -.0255 1 0 -59211894646
675e-29 16 410 193 0 ?80 412 408 409 0 0 4 31 411 352 0 412 409 413 0 +.01515 .0
035 -.012 0 -1 0 1 0 0 .006 16 412 196 0 ?43 42 410 411 0 0 4 31 413 353 0 42 41
1 29 0 +.01515 .0035 .012 0 -1 0 1 0 0 .006 16 42 203 0 ?38 33 412 413 0 0 4 31
 29 354 0 33 413 17 0 +-.00885 0 0 0 1 0 1 0 0 .00425 16 33 210 0 ?34 20 42 29 0
 0 4 17 43 0 414 43 43 39 415 412 0 415 +15 414 195 0 43 416 0 17 415 0 417 415
 415 39 43 412 0 0 -15 417 200 0 415 418 0 14 418 199 419 ?416 420 417 15 421 +0
 0 416 420 31 81 1 419 478 422 418 423 0 424 425 426 14 416 194 424 ?427 418 428
 15 429 -0 0 427 418 31 14 420 201 425 ?418 430 431 15 432 -0 0 418 430 31 50 42
1 384 0 418 429 432 0 +.01515 .0035 -.012 0 1 0 0 0 1 13 31 2 0 0 0 0 0 0 19 26
 14 26 216 433 ?434 0 36 15 16 +0 0 434 0 31 81 1 433 493 422 26 435 0 436 0 437
 14 434 213 436 ?438 26 439 15 28 +0 0 438 26 31 15 36 218 0 34 26 440 15 440 21
7 0 290 26 0 17 290 0 440 116 137 132 441 288 0 0 +17 116 0 440 308 290 114 134
 365 0 311 -17 137 0 440 290 77 135 442 354 0 293 +17 441 0 443 444 445 135 290
 288 0 0 -15 443 72 0 441 446 0 17 444 0 443 447 441 129 293 291 0 0 -17 445 0 4
43 441 447 132 299 297 0 290 -17 447 0 443 445 444 126 296 294 0 0 -17 299 0 448
 122 134 126 445 297 0 447 +15 448 136 0 299 449 450 17 122 0 448 311 299 120 12
8 363 0 451 +17 134 0 448 299 311 132 116 365 0 445 +17 311 0 448 134 122 114 45
1 309 0 452 +17 451 0 453 454 452 120 311 309 0 302 -17 452 0 453 451 455 114 30
8 306 0 0 -15 453 82 0 454 456 0 17 455 0 453 452 454 117 305 303 0 0 -17 308 0
 440 457 116 117 452 306 0 455 +17 457 0 440 458 308 138 119 350 0 287 -17 458 0
 440 54 457 70 140 371 0 459 -17 119 0 460 305 287 117 457 350 0 308 +17 287 0 4
60 119 260 138 167 285 0 461 +15 460 125 0 287 462 0 17 260 0 460 287 161 165 21
5 258 0 203 +17 167 0 463 212 461 165 287 285 0 260 -17 461 0 463 167 464 138 28
4 282 0 0 -15 463 65 0 464 465 0 17 464 0 463 461 212 141 170 280 0 0 -17 284 0
 466 113 140 141 461 282 0 464 +15 466 144 0 284 467 0 17 113 0 466 323 284 111
 143 361 0 468 +17 140 0 466 284 459 138 458 371 0 457 +17 459 0 466 140 323 70
 104 369 0 0 -17 323 0 466 459 113 102 468 321 0 469 +17 104 0 439 320 32 102 45
9 369 0 323 +15 439 214 0 347 434 0 17 320 0 439 347 104 105 469 318 0 470 +17 3
2 0 439 104 471 70 54 20 0 458 +17 471 0 439 32 347 52 80 410 0 472 -17 54 0 440
 77 458 52 32 20 0 471 -17 77 0 440 137 54 75 395 393 0 473 -17 395 0 474 66 473
 52 77 393 0 0 +17 473 0 474 395 74 75 358 356 0 442 -15 474 169 0 473 475 0 17
 74 0 474 473 266 72 158 367 0 476 -17 358 0 460 161 442 72 473 356 0 0 +17 442
 0 460 358 293 75 137 354 0 0 -17 293 0 460 442 131 135 444 291 0 441 +17 131 0
 460 293 305 129 125 352 0 296 +17 305 0 460 131 119 123 455 303 0 454 +17 125 0
 477 302 296 123 131 352 0 305 -17 296 0 477 125 128 129 447 294 0 444 +15 477 1
49 0 296 478 0 17 128 0 477 296 302 126 122 363 0 299 -17 302 0 477 128 125 120
 454 300 0 0 +17 454 0 453 455 451 123 302 300 0 0 -14 478 148 479 ?467 480 477
 15 481 +0 0 467 480 31 81 1 479 445 422 478 482 0 483 484 485 14 467 143 483 ?4
86 478 466 15 487 +0 0 486 478 31 14 480 150 484 ?478 488 489 15 490 +0 0 478 48
8 31 50 481 373 0 478 487 490 0 +.02435 -.0679613836292528 .0245 .79944512991748
7 .600739114966898 0 -.600739114966898 .799445129917487 0 50 487 372 0 467 491 4
81 0 +-.03415 0 -.0255 -1 0 0 0 0 1 50 490 374 0 480 481 492 0 +.03035 -.0619154
63532124 -.048412105165406 0 .00464352524526541 -.999989218778531 0 -.9999892187
78531 -.00464352524526541 50 492 375 0 488 490 493 0 +.03035 -.0621596843793689
 -.0484040749785321 0 -.0328630809530672 -.999459863081191 0 .999459863081191 -.
0328630809530672 14 488 155 494 ?480 475 495 15 492 +0 0 480 475 31 50 493 376 0
 475 492 496 0 +.02435 -.035925 -.023 -1 0 0 0 0 1 14 475 168 497 ?488 498 474 1
5 493 +0 0 488 498 31 50 496 377 0 498 493 499 0 +.03969970927672785 -.061915463
532124 -.048412105165406 0 -.999459863081191 .03286308095306725 -1 0 0 14 498 17
3 500 ?475 501 502 15 496 +0 0 475 501 31 50 499 378 0 501 496 503 0 +.03935 -.0
4276639852392725 -.02435847675583195 .937372491604433 .00805051046729826 .348235
5542797345 -.3483285977109805 .02166439133912385 .937122106325855 14 501 178 504
 ?498 505 506 15 499 +0 0 498 505 31 51 503 379 0 505 499 507 0 +.03386104415481
675 -.051902378265873 -.0487413438310592 0 -.03286308095306725 -.999459863081191
 .00255 -1 0 0 14 505 183 508 ?501 509 510 15 503 -0 0 501 509 31 50 507 380 0 5
09 503 511 0 +.02435 -.0433365929003395 -.0490229940586394 0 .999732886039627 -.
02311182751057955 0 .02311182751057955 .999732886039627 14 509 186 512 ?505 513
 514 15 507 +0 0 505 513 31 50 511 381 0 513 507 515 0 +.03935 -.052606472967838
6 -.0426787927820115 1 0 0 0 0 -1 14 513 189 516 ?509 427 517 15 511 +0 0 509 42
7 31 50 515 382 0 427 511 429 0 +.03135 0 -.0255 0 .477051371569468 -.8788754114
68366 0 -.878875411468366 -.477051371569468 14 427 191 518 ?513 416 519 15 515 +
0 0 513 416 31 51 429 383 0 416 515 421 0 +.01515 .006 -.012 0 1 0 .006 1 0 0 81
 1 518 472 422 427 520 0 516 424 521 15 519 192 0 472 427 0 17 472 0 519 80 522
 52 66 396 0 395 -17 80 0 519 344 472 78 471 410 0 347 +17 522 0 519 472 344 64
 382 380 0 523 -17 66 0 474 69 395 64 472 396 0 522 +17 69 0 474 149 66 67 523 3
78 0 377 +17 149 0 474 179 69 147 524 373 0 276 +17 523 0 525 382 377 64 69 378
 0 0 -17 377 0 525 523 92 67 526 375 0 524 +15 525 156 0 377 488 0 17 92 0 525 3
77 527 90 528 389 0 526 +17 526 0 489 146 524 90 377 375 0 529 -17 524 0 489 526
 276 67 149 373 0 0 -15 489 151 0 146 480 0 17 276 0 489 524 146 147 530 274 0 2
73 +17 146 0 489 276 526 144 332 330 0 279 -17 530 0 531 176 273 144 276 274 0 0
 -17 273 0 531 530 532 147 179 271 0 0 +15 531 58 0 273 533 0 17 532 0 531 273 1
76 177 247 245 0 206 -17 179 0 474 534 149 177 273 271 0 532 -17 534 0 474 266 1
79 180 206 243 0 0 -17 266 0 474 74 534 156 182 264 0 535 +17 206 0 200 247 255
 177 534 243 0 0 +17 247 0 200 250 206 174 532 245 0 0 +17 255 0 200 206 208 180
 188 216 0 534 +17 208 0 200 255 201 186 197 236 0 0 +17 188 0 536 242 182 186 2
55 216 0 537 -15 536 44 0 535 538 0 17 242 0 536 535 188 183 537 240 0 539 +17 1
82 0 536 188 535 180 266 264 0 255 -17 537 0 540 197 539 186 242 240 0 208 -15 5
40 14 0 197 541 0 17 197 0 540 230 537 195 208 236 0 228 -17 539 0 540 537 230 1
83 191 238 0 0 -17 230 0 540 539 197 189 228 231 0 225 +17 191 0 542 223 185 189
 539 238 0 230 +15 542 140 0 221 486 0 17 223 0 542 221 191 192 225 226 0 218 +1
7 185 0 542 191 158 183 535 262 0 242 +17 158 0 542 185 476 156 74 367 0 266 +17
 535 0 536 182 242 156 185 262 0 0 -17 476 0 542 158 221 72 161 359 0 358 -17 22
1 0 542 476 223 159 194 222 0 215 +17 161 0 460 260 358 159 476 359 0 221 +17 21
5 0 214 194 203 159 260 258 0 0 -17 225 0 224 228 218 189 223 226 0 0 -14 486 13
9 543 ?449 467 544 15 491 +0 0 449 467 31 81 1 543 439 422 486 545 0 546 483 547
 14 449 133 546 ?462 486 448 15 548 +0 0 462 486 31 15 544 142 0 152 486 542 50
 491 371 0 486 548 487 0 +-.02715 -.07185 -.0645 0 1 0 0 0 1 50 548 370 0 449 54
9 491 0 +-.03415 -.07785 .0245 0 0 1 0 1 0 50 549 369 0 462 550 548 0 +-.02715 0
 .0185 0 0 -1 1 0 0 14 462 124 551 ?552 449 460 15 549 +0 0 552 449 31 50 550 36
8 0 552 553 549 0 +.03035 .006 -.0645 1 0 0 0 -1 0 14 552 110 554 ?555 462 556 1
5 550 +0 0 555 462 31 50 553 367 0 555 557 550 0 +-.03415 .006 -.0645 0 1 0 1 0
 0 14 555 91 558 ?456 552 559 15 553 +0 0 456 552 31 50 557 366 0 456 560 553 0
 +-.02215 2664535259100375e-32 .0245 .829089350278231 .559116132172218 0 .559116
132172218 -.829089350278231 0 14 456 81 561 ?446 555 453 15 557 +0 0 446 555 31
 50 560 365 0 446 562 557 0 +.01835 -.0600557142857143 .0245 -1 0 0 0 1 0 14 446
 71 563 ?465 456 443 15 560 +0 0 465 456 31 50 562 364 0 465 564 560 0 +.01835 -
.07785 .0245 -.829089350278231 -.559116132172218 0 -.559116132172218 .8290893502
78231 0 14 465 64 565 ?533 446 463 15 562 +0 0 533 446 31 50 564 363 0 533 566 5
62 0 +.02432214528160575 -.07785 -.0484132649146546 0 0 -1 1 0 0 14 533 57 567 ?
568 465 531 15 564 +0 0 568 465 31 51 566 362 0 568 569 564 0 +-.01265 -.07785 -
.043 0 -1 0 .0027 1 0 0 14 568 52 570 ?571 533 572 15 566 -0 0 571 533 31 50 569
 361 0 571 573 566 0 +.03386104415481675 -.0512451166468117 -.02875214656943535
 0 -.0328630809530672 -.999459863081191 -1 0 0 14 571 48 574 ?538 568 575 15 569
 +0 0 538 568 31 50 573 360 0 538 576 569 0 +-.00720282537871679 -.07785 -.0607
 .744630371671058 0 -.66747704798369 .66747704798369 0 .744630371671058 14 538 4
3 577 ?220 571 536 15 573 +0 0 220 571 31 50 576 359 0 220 578 573 0 +.01835 -.0
7785 .0185 -.771426745579322 0 .636318140716495 -.636318140716495 0 -.7714267455
79322 14 220 38 579 ?207 538 214 15 576 +0 0 207 538 31 50 578 358 0 207 580 576
 0 +.03035 -.07785 -.0645 0 -1 0 -1 0 0 14 207 20 581 ?541 220 582 15 578 +0 0 5
41 220 31 50 580 357 0 541 583 578 0 +-.00720282537871679 -.07785 -.0607 0 0 -1
 -1 0 0 14 541 13 584 ?229 207 540 15 580 +0 0 229 207 31 50 583 356 0 229 0 580
 0 +-.03035 -.07785 -.0607 -1 0 0 0 0 1 14 229 3 585 ?0 541 224 15 583 +0 0 0 54
1 31 81 1 585 394 422 229 586 0 0 584 587 80 1 422 588 589 8015 0 0 0 0 3 5 0 0
 0 FFFFTFFFFFFFFFFF2 81 2 586 393 588 229 590 585 0 591 592 593 81 1 584 397 422
 541 591 0 585 581 594 83 1 587 0 81 2 591 396 588 541 595 584 586 596 597 598 8
1 1 581 400 422 207 596 0 584 579 599 83 1 594 0 81 2 596 399 588 207 600 581 59
1 601 602 603 81 1 579 403 422 220 601 0 581 577 604 83 1 599 0 81 2 601 402 588
 220 605 579 596 606 607 608 81 1 577 406 422 538 606 0 579 574 609 83 1 604 0 8
1 2 606 405 588 538 610 577 601 611 612 613 81 1 574 409 422 571 611 0 577 570 6
14 83 1 609 0 81 2 611 408 588 571 615 574 606 616 617 618 81 1 570 412 422 568
 616 0 574 567 619 83 1 614 0 81 2 616 411 588 568 620 570 611 621 622 623 81 1
 567 415 422 533 621 0 570 565 624 83 1 619 0 81 2 621 414 588 533 625 567 616 6
26 627 628 81 1 565 418 422 465 626 0 567 563 629 83 1 624 0 81 2 626 417 588 46
5 630 565 621 631 632 633 81 1 563 421 422 446 631 0 565 561 634 83 1 629 0 81 2
 631 420 588 446 635 563 626 636 637 638 81 1 561 424 422 456 636 0 563 558 639
 83 1 634 0 81 2 636 423 588 456 640 561 631 641 642 643 81 1 558 427 422 555 64
1 0 561 554 644 83 1 639 0 81 2 641 426 588 555 645 558 636 646 647 648 81 1 554
 430 422 552 646 0 558 551 649 83 1 644 0 81 2 646 429 588 552 650 554 641 651 6
52 653 81 1 551 433 422 462 651 0 554 546 654 83 1 649 0 81 2 651 432 588 462 65
5 551 646 656 657 658 81 1 546 436 422 449 656 0 551 543 659 83 1 654 0 81 2 656
 435 588 449 660 546 651 545 661 662 83 1 659 0 80 2 588 663 664 8014 0 0 0 0 3
 5 0 0 0 FFFFTFFFFFFFFFFF2 1 81 1 660 434 665 449 0 656 655 666 667 81 2 545 438
 588 486 666 543 656 668 669 670 83 4 661 .99998468160538 0 .99998468160538 .999
98468160538 82 1 662 1 81 1 666 437 665 486 0 545 660 671 672 81 2 668 441 588 4
67 671 483 545 482 673 674 83 4 669 .99998468160538 0 .99998468160538 .999984681
60538 82 1 670 1 81 1 671 440 665 467 0 668 666 675 676 81 1 483 442 422 467 668
 0 543 479 677 81 2 482 444 588 478 675 479 668 678 679 680 83 4 673 .9999846816
0538 0 .99998468160538 .99998468160538 82 1 674 1 81 1 675 443 665 478 0 482 671
 681 682 81 2 678 447 588 480 681 484 482 683 684 685 83 4 679 .99998468160538 0
 .99998468160538 .99998468160538 82 1 680 1 81 1 681 446 665 480 0 678 675 686 6
87 81 1 484 448 422 480 678 0 479 494 688 81 2 683 450 588 488 686 494 678 689 6
90 691 83 4 684 .99998468160538 0 .99998468160538 .99998468160538 82 1 685 1 81
 1 686 449 665 488 0 683 681 692 693 81 1 494 451 422 488 683 0 484 497 694 81 2
 689 453 588 475 692 497 683 695 696 697 83 4 690 .99998468160538 0 .99998468160
538 .99998468160538 82 1 691 1 81 1 692 452 665 475 0 689 686 698 699 81 1 497 4
54 422 475 689 0 494 500 700 81 2 695 456 588 498 698 500 689 701 702 703 83 4 6
96 .99998468160538 0 .99998468160538 .99998468160538 82 1 697 1 81 1 698 455 665
 498 0 695 692 704 705 81 1 500 457 422 498 695 0 497 504 706 81 2 701 459 588 5
01 704 504 695 707 708 709 83 4 702 .99998468160538 0 .99998468160538 .999984681
60538 82 1 703 1 81 1 704 458 665 501 0 701 698 710 711 81 1 504 460 422 501 701
 0 500 508 712 81 2 707 462 588 505 710 508 701 713 714 715 83 4 708 .9999846816
0538 0 .99998468160538 .99998468160538 82 1 709 1 81 1 710 461 665 505 0 707 704
 716 717 81 1 508 463 422 505 707 0 504 512 718 81 2 713 465 588 509 716 512 707
 719 720 721 83 4 714 .99998468160538 0 .99998468160538 .99998468160538 82 1 715
 1 81 1 716 464 665 509 0 713 710 722 723 81 1 512 466 422 509 713 0 508 516 724
 81 2 719 468 588 513 722 516 713 520 725 726 83 4 720 .99998468160538 0 .999984
68160538 .99998468160538 82 1 721 1 81 1 722 467 665 513 0 719 716 727 728 81 1
 516 469 422 513 719 0 512 518 729 81 2 520 471 588 427 727 518 719 730 731 732
 83 4 725 .99998468160538 0 .99998468160538 .99998468160538 82 1 726 1 81 1 727
 470 665 427 0 520 722 733 734 81 2 730 474 588 416 733 424 520 423 735 736 83 4
 731 .99998468160538 0 .99998468160538 .99998468160538 82 1 732 1 81 1 733 473 6
65 416 0 730 727 737 738 81 1 424 475 422 416 730 0 518 419 739 81 2 423 477 588
 418 737 419 730 740 741 742 83 4 735 .99998468160538 0 .99998468160538 .9999846
8160538 82 1 736 1 81 1 737 476 665 418 0 423 733 743 744 81 2 740 480 588 420 7
43 425 423 745 746 747 83 4 741 .99998468160538 0 .99998468160538 .9999846816053
8 82 1 742 1 81 1 743 479 665 420 0 740 737 748 749 81 1 425 481 422 420 740 0 4
19 750 751 81 2 745 483 588 430 748 750 740 752 753 754 83 4 746 .99998468160538
 0 .99998468160538 .99998468160538 82 1 747 1 14 430 206 750 ?420 438 755 15 756
 +0 0 420 438 31 81 1 748 482 665 430 0 745 743 757 758 81 1 750 484 422 430 745
 0 425 759 760 81 2 752 486 588 438 757 759 745 761 762 763 83 4 753 .9999846816
0538 0 .99998468160538 .99998468160538 82 1 754 1 14 438 208 759 ?430 434 764 15
 765 -0 0 430 434 31 81 1 757 485 665 438 0 752 748 766 767 81 1 759 487 422 438
 752 0 750 436 768 81 2 761 489 588 434 766 436 752 435 769 770 83 4 762 .999984
68160538 0 .99998468160538 .99998468160538 82 1 763 1 81 1 766 488 665 434 0 761
 757 771 772 81 1 436 490 422 434 761 0 759 433 773 81 2 435 492 588 26 771 433
 761 0 774 775 83 4 769 .99998468160538 0 .99998468160538 .99998468160538 82 1 7
70 1 81 1 771 491 665 26 0 435 766 0 776 83 4 774 .99998468160538 0 .99998468160
538 .99998468160538 82 1 775 1 80 1 665 0 777 8001 0 0 0 0 3 5 0 0 0 FFFFTFTFFFF
FFFFF2 83 3 776 .996078431372549 .996078431372549 1 79 15 777 SDL/TYSA_COLOUR83
 1 773 0 83 3 772 .996078431372549 .996078431372549 1 83 1 768 0 83 3 767 .99607
8431372549 .996078431372549 1 15 764 212 0 778 438 779 51 765 387 0 438 756 28 0
 +-.00885 .006 0 0 1 0 .00425 1 0 0 50 756 386 0 430 432 765 0 +.01515 .0035 .01
2 0 1 0 0 0 1 50 28 388 0 434 765 16 0 +.03415 0 -.0255 0 0 -1 -1 0 0 51 432 385
 0 420 421 756 0 +.01515 .006 .012 0 1 0 .006 1 0 0 17 778 0 764 778 778 99 101
 324 0 0 -15 779 209 0 37 438 0 17 37 0 779 37 37 21 34 33 0 0 -17 101 0 780 101
 101 99 778 324 0 778 +15 780 101 0 101 555 781 15 781 92 0 314 555 0 17 314 0 7
81 470 468 108 782 312 0 0 +17 470 0 781 469 314 105 317 315 0 0 -17 468 0 781 3
14 469 111 323 321 0 782 -17 782 0 450 143 110 111 314 312 0 0 -15 450 134 0 782
 449 0 17 143 0 450 170 782 141 113 361 0 284 -17 110 0 450 782 783 108 173 348
 0 317 -17 783 0 450 110 170 171 211 251 0 250 -17 173 0 556 784 317 171 110 348
 0 783 +17 317 0 556 173 107 108 470 315 0 314 +15 556 111 0 784 552 0 17 107 0
 556 317 785 105 347 345 0 320 -17 785 0 556 107 341 78 344 342 0 0 -17 347 0 43
9 471 320 78 107 345 0 785 +17 341 0 556 785 338 81 786 339 0 0 +17 344 0 519 52
2 80 81 785 342 0 341 +17 338 0 556 341 335 84 787 336 0 0 +17 786 0 514 407 83
 84 341 339 0 338 -15 514 187 0 786 509 0 17 407 0 514 63 786 44 86 405 0 788 +1
7 83 0 514 786 63 81 385 383 0 382 -17 63 0 514 83 407 61 48 408 0 388 -17 385 0
 525 527 382 61 83 383 0 0 +17 382 0 525 385 523 81 522 380 0 344 +17 527 0 525
 92 385 58 388 386 0 0 -17 388 0 517 48 60 61 527 386 0 385 +15 517 190 0 60 513
 0 17 48 0 517 51 388 44 63 408 0 407 +17 60 0 517 388 51 58 789 398 0 528 +17 5
1 0 517 60 48 49 788 403 0 402 +17 789 0 502 89 528 49 60 398 0 0 -17 528 0 502
 789 529 58 92 389 0 527 -15 502 174 0 789 498 0 17 529 0 502 528 89 90 335 333
 0 332 -17 89 0 502 529 789 87 402 400 0 787 -17 335 0 556 338 332 87 529 333 0
 0 +17 332 0 556 335 279 90 146 330 0 0 +17 279 0 556 332 784 144 176 277 0 530
 +17 784 0 556 279 173 174 250 248 0 247 -17 176 0 531 532 530 174 279 277 0 784
 -17 250 0 200 211 247 171 784 248 0 0 +17 211 0 200 202 250 168 783 251 0 0 +17
 402 0 506 788 787 49 89 400 0 789 +17 787 0 506 402 86 87 338 336 0 335 -15 506
 179 0 402 501 0 17 86 0 506 787 788 84 407 405 0 786 -17 788 0 506 86 402 44 51
 403 0 0 -17 170 0 450 783 143 168 464 280 0 212 +17 212 0 463 464 167 168 202 2
13 0 211 -17 469 0 781 468 470 102 320 318 0 0 -83 1 760 0 83 3 758 .99607843137
2549 .996078431372549 1 15 755 207 0 41 430 0 17 41 0 755 41 41 35 38 42 0 0 -83
 1 751 0 83 3 749 .996078431372549 .996078431372549 1 83 3 744 .996078431372549
 .996078431372549 1 83 1 739 0 83 3 738 .996078431372549 .996078431372549 1 83 3
 734 .996078431372549 .996078431372549 1 83 1 729 0 83 3 728 .996078431372549 .9
96078431372549 1 83 1 724 0 83 3 723 .996078431372549 .996078431372549 1 83 1 71
8 0 83 3 717 .996078431372549 .996078431372549 1 83 1 712 0 83 3 711 .9960784313
72549 .996078431372549 1 83 1 706 0 83 3 705 .996078431372549 .996078431372549 1
 83 1 700 0 83 3 699 .996078431372549 .996078431372549 1 83 1 694 0 83 3 693 .99
6078431372549 .996078431372549 1 83 1 688 0 83 3 687 .996078431372549 .996078431
372549 1 83 3 682 .996078431372549 .996078431372549 1 83 1 677 0 83 3 676 .99607
8431372549 .996078431372549 1 83 3 672 .996078431372549 .996078431372549 1 81 1
 655 431 665 462 0 651 650 660 790 83 3 667 .996078431372549 .996078431372549 1
 81 1 650 428 665 552 0 646 645 655 791 83 3 790 .996078431372549 .9960784313725
49 1 81 1 645 425 665 555 0 641 640 650 792 83 3 791 .996078431372549 .996078431
372549 1 81 1 640 422 665 456 0 636 635 645 793 83 3 792 .996078431372549 .99607
8431372549 1 81 1 635 419 665 446 0 631 630 640 794 83 3 793 .996078431372549 .9
96078431372549 1 81 1 630 416 665 465 0 626 625 635 795 83 3 794 .99607843137254
9 .996078431372549 1 81 1 625 413 665 533 0 621 620 630 796 83 3 795 .9960784313
72549 .996078431372549 1 81 1 620 410 665 568 0 616 615 625 797 83 3 796 .996078
431372549 .996078431372549 1 81 1 615 407 665 571 0 611 610 620 798 83 3 797 .99
6078431372549 .996078431372549 1 81 1 610 404 665 538 0 606 605 615 799 83 3 798
 .996078431372549 .996078431372549 1 81 1 605 401 665 220 0 601 600 610 800 83 3
 799 .996078431372549 .996078431372549 1 81 1 600 398 665 207 0 596 595 605 801
 83 3 800 .996078431372549 .996078431372549 1 81 1 595 395 665 541 0 591 590 600
 802 83 3 801 .996078431372549 .996078431372549 1 81 1 590 392 665 229 0 586 0 5
95 803 83 3 802 .996078431372549 .996078431372549 1 83 3 803 .996078431372549 .9
96078431372549 1 79 21 664 SDL/TYSA_REFLECTIVITY83 4 657 .99998468160538 0 .9999
8468160538 .99998468160538 82 1 658 1 83 4 652 .99998468160538 0 .99998468160538
 .99998468160538 82 1 653 1 83 4 647 .99998468160538 0 .99998468160538 .99998468
160538 82 1 648 1 83 4 642 .99998468160538 0 .99998468160538 .99998468160538 82
 1 643 1 83 4 637 .99998468160538 0 .99998468160538 .99998468160538 82 1 638 1 8
3 4 632 .99998468160538 0 .99998468160538 .99998468160538 82 1 633 1 83 4 627 .9
9998468160538 0 .99998468160538 .99998468160538 82 1 628 1 83 4 622 .99998468160
538 0 .99998468160538 .99998468160538 82 1 623 1 83 4 617 .99998468160538 0 .999
98468160538 .99998468160538 82 1 618 1 83 4 612 .99998468160538 0 .9999846816053
8 .99998468160538 82 1 613 1 83 4 607 .99998468160538 0 .99998468160538 .9999846
8160538 82 1 608 1 83 4 602 .99998468160538 0 .99998468160538 .99998468160538 82
 1 603 1 83 4 597 .99998468160538 0 .99998468160538 .99998468160538 82 1 598 1 8
3 4 592 .99998468160538 0 .99998468160538 .99998468160538 82 1 593 1 79 21 589 S
DL/TYSA_TRANSLUCENCY15 582 35 0 164 207 200 17 164 0 582 164 164 162 804 256 0 8
04 +17 804 0 572 804 804 162 164 256 0 0 -15 572 56 0 804 568 805 15 805 53 0 80
6 568 0 17 806 0 805 806 806 150 152 269 0 0 -17 152 0 544 152 152 150 806 269 0
 806 +15 575 49 0 807 571 0 17 807 0 575 807 807 153 155 267 0 0 -17 155 0 808 1
55 155 153 807 267 0 807 +15 808 184 0 155 505 0 15 559 107 0 95 555 809 17 95 0
 559 95 95 93 810 328 0 810 +15 809 104 0 98 555 780 17 98 0 809 98 98 96 811 32
6 0 811 +17 811 0 431 811 811 96 98 326 0 0 -15 431 205 0 811 420 40 15 40 202 0
 38 420 0 17 810 0 428 810 810 93 95 328 0 0 -15 428 198 0 810 416 414 83 1 547
 0 83 1 521 0 15 510 185 0 812 505 808 17 812 0 510 812 812 55 57 391 0 0 -17 57
 0 495 57 57 55 812 391 0 812 +15 495 165 0 57 488 525 83 1 485 0 83 1 437 0 83
 1 426 0 19 27 219 0 4 0 19 15 0 S0 74 20 25 6 0 0 813 23 771 435 433 13 0 0 0 0
 0 0 0 0 0 0 0 0 0 0 81 1 813 390 814 4 0 23 0 0 815 81 1 23 391 816 4 813 13 0
 0 817 80 1 816 422 818 8041 0 0 0 0 3 5 0 0 0 TTTFFFFFFFFFFFFF2 83 1 817 0 79 2
3 818 SDL/TYSA_TRANSLUCENCY_280 1 814 665 819 8040 0 0 0 0 3 5 0 0 0 TTTFFFFFFFF
FFFFF2 83 3 815 .996078431372549 .996078431372549 1 79 17 819 SDL/TYSA_COLOUR_28
0 1 22 820 821 8017 0 0 0 0 0 0 0 0 0 TTTTTTTTTTTTTFTF3 84 6 24 Solid179 13 821
 SDL/TYSA_NAME13 9 3 0 3 0 0 0 12 11 0 29 10 4 0 12 0 0 0 0 -.0255 19 11 1 0 3 0
 0 9 0 V0 18 12 2 0 0 0 0 10 ?9 13 5 3 0 2 0 0 0 8 7 0 29 6 4 0 8 0 0 0 -.07785
 0 19 7 1 0 2 0 0 5 0 V0 18 8 2 0 0 0 0 6 ?5 1 0 
