**ABCDEFGHIJKLMNOPQRSTUVWXYZabcdefghijklmnopqrstuvwxyz**************************
**PARASOLID !"#$%&'()*+,-./:;<=>?@[\]^_`{|}~0123456789**************************
**PART1;
MC=;
MC_MODEL=;
MC_ID=unknown;
OS=Windows;
OS_RELEASE=;
FRU=;
APPL=Autodesk Inventor 2024;
SITE=unknown;
USER=unknown;
FORMAT=text;
GUISE=transmit;
KEY=DC23[R][F][1];
FILE=C:\Users\juanj\Documents\Documentos\Unisabana\Shell\C23 DESING\A23[F]\PFA23[F]\DC23[R][F][1].x_t;
DATE=2023-Jun-09 11:30:09;
**PART2;
SCH=SCH_3500195_35002;
USFLD_SIZE=0;
**PART3;
**END_OF_HEADER*****************************************************************
T51 : TRANSMIT FILE created by modeller version 350019517 SCH_3500195_350020 176
 25 1 25 0 0 0 0 2 3 4 5 6 7 8 9 10 11 12 13 14 15 16 17 18 19 20 21 22 23 24 25
 26 12 2 4 0 0 0 0 0 0 0 0 0 1e3 1e-8 0 3 0 1 0 2 1 27 0 0 0 28 0 0 29 0 30 0 0
 0 0 0 0 0 12 3 4 0 0 0 0 0 0 0 0 0 1e3 1e-8 0 4 2 1 0 2 1 31 0 0 32 0 0 0 33 0
 0 0 0 0 0 0 0 0 12 4 7 34 35 0 0 0 0 0 0 0 1e3 1e-8 0 5 3 1 0 2 1 36 0 0 37 0 0
 0 38 0 0 0 0 0 0 0 0 0 12 5 12 39 40 0 0 0 0 0 0 0 1e3 1e-8 0 6 4 1 0 2 1 41 0
 0 42 43 0 0 44 0 45 0 0 0 0 0 0 0 12 6 12 46 47 0 0 0 0 0 0 0 1e3 1e-8 0 7 5 1
 0 2 1 48 0 0 49 50 0 0 51 0 52 0 0 0 0 0 0 0 12 7 9 0 0 0 0 0 0 0 0 0 1e3 1e-8
 0 8 6 1 0 2 1 53 0 0 54 55 0 0 56 0 57 0 0 0 0 0 0 0 12 8 12 58 59 0 0 0 0 0 0
 0 1e3 1e-8 0 9 7 1 0 2 1 60 0 0 61 62 0 0 63 0 64 0 0 0 0 0 0 0 12 9 12 65 66 0
 0 0 0 0 0 0 1e3 1e-8 0 10 8 1 0 2 1 67 0 0 68 69 0 0 70 0 71 0 0 0 0 0 0 0 12 1
0 12 72 73 0 0 0 0 0 0 0 1e3 1e-8 0 11 9 1 0 2 1 74 0 0 75 76 0 0 77 0 78 0 0 0
 0 0 0 0 12 11 12 79 80 0 0 0 0 0 0 0 1e3 1e-8 0 12 10 1 0 2 1 81 0 0 82 83 0 0
 84 0 85 0 0 0 0 0 0 0 12 12 12 86 87 0 0 0 0 0 0 0 1e3 1e-8 0 13 11 1 0 2 1 88
 0 0 89 90 0 0 91 0 92 0 0 0 0 0 0 0 12 13 4 0 0 0 0 0 0 0 0 0 1e3 1e-8 0 14 12
 1 0 2 1 93 0 0 0 94 0 0 95 0 96 0 0 0 0 0 0 0 12 14 4 0 0 0 0 0 0 0 0 0 1e3 1e-
8 0 15 13 1 0 2 1 97 0 0 0 98 0 0 99 0 100 0 0 0 0 0 0 0 12 15 4 0 0 0 0 0 0 0 0
 0 1e3 1e-8 0 16 14 1 0 2 1 101 0 0 0 102 0 0 103 0 104 0 0 0 0 0 0 0 12 16 4 0
 0 0 0 0 0 0 0 0 1e3 1e-8 0 17 15 1 0 2 1 105 0 0 0 106 0 0 107 0 108 0 0 0 0 0
 0 0 12 17 4 0 0 0 0 0 0 0 0 0 1e3 1e-8 0 18 16 1 0 2 1 109 0 0 0 110 0 0 111 0
 112 0 0 0 0 0 0 0 12 18 4 0 0 0 0 0 0 0 0 0 1e3 1e-8 0 19 17 1 0 2 1 113 0 0 0
 114 0 0 115 0 116 0 0 0 0 0 0 0 12 19 4 0 0 0 0 0 0 0 0 0 1e3 1e-8 0 20 18 1 0
 2 1 117 0 0 0 118 0 0 119 0 120 0 0 0 0 0 0 0 12 20 4 0 0 0 0 0 0 0 0 0 1e3 1e-
8 0 21 19 1 0 2 1 121 0 0 0 122 0 0 123 0 124 0 0 0 0 0 0 0 12 21 4 0 0 0 0 0 0
 0 0 0 1e3 1e-8 0 22 20 1 0 2 1 125 0 0 0 126 0 0 127 0 128 0 0 0 0 0 0 0 12 22
 4 0 0 0 0 0 0 0 0 0 1e3 1e-8 0 23 21 1 0 2 1 129 0 0 0 130 0 0 131 0 132 0 0 0
 0 0 0 0 12 23 4 0 0 0 0 0 0 0 0 0 1e3 1e-8 0 24 22 1 0 2 1 133 0 0 0 134 0 0 13
5 0 136 0 0 0 0 0 0 0 12 24 4 0 0 0 0 0 0 0 0 0 1e3 1e-8 0 25 23 1 0 2 1 137 0 0
 0 138 0 0 139 0 140 0 0 0 0 0 0 0 12 25 4 0 0 0 0 0 0 0 0 0 1e3 1e-8 0 26 24 1
 0 2 1 141 0 0 0 142 0 0 143 0 144 0 0 0 0 0 0 0 12 26 517 145 146 0 0 0 0 0 0 0
 1e3 1e-8 0 0 25 1 0 1 1 147 0 148 149 150 0 0 151 152 153 0 0 0 0 0 0 0 81 1 14
5 517 154 26 155 0 0 0 156 70 146 0 4 T26 0 0 6 20 1 157 157 13 147 230 0 26 0 1
58 0 0 159 0 50 148 406 0 158 160 0 0 +.03415 0 -.0255 0 0 -1 -1 0 0 30 149 370
 0 152 161 0 0 +-.03315 .006 -.0255 1 552523426556164e-31 0 29 150 287 0 153 162
 0 -.00985 .006 .012 19 151 1 0 26 159 0 163 0 V0 16 152 223 0 ?164 0 165 149 0
 0 26 18 153 214 0 166 0 167 150 ?26 17 166 0 168 166 166 153 169 170 0 169 +18
 167 211 0 171 153 172 162 ?26 17 171 0 173 171 171 167 174 175 0 174 +18 172 20
5 0 176 167 177 178 ?26 29 162 286 0 167 178 150 -.00985 .0035 .012 29 178 285 0
 172 179 162 -.00985 .006 -.012 29 179 284 0 177 180 178 -.00985 .0035 -.012 18
 177 202 0 181 172 182 179 ?26 29 180 283 0 182 183 179 .0124 .006 -520474889637
625e-33 18 182 198 0 184 177 185 180 ?26 29 183 282 0 185 186 180 .0124 11102230
24625156e-33 -520474889637625e-33 18 185 195 0 187 182 188 183 ?26 29 186 281 0
 188 189 183 -.02715 0 -.0255 18 188 183 0 190 185 191 186 ?26 29 189 280 0 191
 192 186 -.02715 -.02849473832287655 -.066526307999292 18 191 181 0 193 188 194
 189 ?26 29 192 279 0 194 195 189 -.04215 -.02849473832287655 -.066526307999292
 18 194 173 0 196 191 197 192 ?26 29 195 278 0 197 198 192 -.04215 -.05548394995
01945 -.0719891111111051 18 197 168 0 199 194 200 195 ?26 29 198 277 0 200 201 1
95 -.04215 -.02849473832287655 -.0413807510772122 18 200 163 0 202 197 203 198 ?
26 29 201 276 0 203 204 198 -.04215 -.0284949499501945 -.04138075107721215 18 20
3 155 0 205 200 206 201 ?26 29 204 275 0 206 207 201 -.04215 -.0554839499501945
 -.0413807510772122 18 206 153 0 208 203 209 204 ?26 29 207 274 0 209 210 204 -.
0392 -.0382766616362856 -.0685062369373393 18 209 147 0 211 206 212 207 ?26 29 2
10 273 0 212 213 207 -.0392 -.04224434072571175 -.0489037492726746 18 212 144 0
 214 209 215 210 ?26 29 213 272 0 215 216 210 -.02715 0 .0185 18 215 138 0 217 2
12 218 213 ?26 29 216 271 0 218 219 213 .0311497836479856 .006 .0255 18 218 129
 0 220 215 221 216 ?26 29 219 270 0 221 222 216 .0311497836479856 .006 -.0255 18
 221 127 0 164 218 223 219 ?26 29 222 269 0 223 224 219 .0311497836479856 0 -.02
55 18 223 125 0 225 221 226 222 ?26 29 224 268 0 226 227 222 .0311497836479856 0
 .0185 18 226 123 0 228 223 229 224 ?26 29 227 267 0 229 230 224 -.02115 -.05766
79778972143 .0255 18 229 114 0 231 226 232 227 ?26 29 230 266 0 232 233 227 -.02
115 -.0576679778972143 .0185 18 232 112 0 234 229 235 230 ?26 29 233 265 0 235 2
36 230 -.02115 -.006 .0255 18 235 107 0 237 232 238 233 ?26 29 236 264 0 238 239
 233 .01632582302291065 -.006 .0255 18 238 105 0 240 235 241 236 ?26 29 239 263
 0 241 242 236 -.02115 -.006 .0185 18 241 103 0 243 238 244 239 ?26 29 242 262 0
 244 245 239 .01632582302291065 -.006 .0185 18 244 102 0 246 241 247 242 ?26 29
 245 261 0 247 248 242 .03114978364798565 -.00600029722547294 .0255 18 247 97 0
 249 244 250 245 ?26 29 248 260 0 250 251 245 .03114978364798565 -.0060002972254
7294 .0185 18 250 95 0 252 247 253 248 ?26 29 251 259 0 253 254 248 -.03315 -.05
54839499501945 -.01818869635879535 18 253 90 0 255 250 256 251 ?26 29 254 258 0
 256 257 251 -.03315 -.0284949499501945 -.0181886963587953 18 256 88 0 258 253 2
59 254 ?26 29 257 257 0 259 260 254 -.03315 -.0284949499501945 -.041380751077212
15 18 259 86 0 261 256 262 257 ?26 29 260 256 0 262 263 257 -.03315 -.0284947383
2287655 -.0413807510772122 18 262 84 0 264 259 265 260 ?26 29 263 255 0 265 266
 260 -.03315 -.02849473832287655 -.066526307999292 18 265 82 0 267 262 268 263 ?
26 29 266 254 0 268 269 263 -.03315 0 -.0255 18 268 80 0 270 265 271 266 ?26 29
 269 253 0 271 272 266 -.03315 .006 -.0255 18 271 78 0 273 268 274 269 ?26 29 27
2 252 0 274 275 269 -.03315 .006 .0255 18 274 76 0 276 271 277 272 ?26 29 275 25
1 0 277 278 272 -.03315 -.0554839499501945 -.0719891111111051 18 277 71 0 279 27
4 280 275 ?26 29 278 250 0 280 281 275 -.02715 -.0554839499501945 -.071989111111
1051 18 280 69 0 282 277 283 278 ?26 29 281 249 0 283 284 278 -.03315 -.07185 -.
0484448878722441 18 283 64 0 285 280 286 281 ?26 29 284 248 0 286 287 281 -.0271
5 -.07185 -.0484448878722441 18 286 62 0 288 283 289 284 ?26 29 287 247 0 289 29
0 284 .0123497836479856 -.07185 -.042 18 289 49 0 291 286 292 287 ?26 29 290 246
 0 292 293 287 -.02115 -.07185 .0185 18 292 45 0 294 289 295 290 ?26 29 293 245
 0 295 296 290 -.02715 -.07185 .0185 18 295 43 0 297 292 298 293 ?26 29 296 244
 0 298 299 293 -.02715 -.07185 -.0255 18 298 41 0 300 295 301 296 ?26 29 299 243
 0 301 302 296 .0123497836479856 -.07785 -.042 18 301 37 0 303 298 304 299 ?26 2
9 302 242 0 304 305 299 -.02715 -.07785 -.0255 18 304 33 0 306 301 307 302 ?26 2
9 305 241 0 307 308 302 -.02715 -.07785 -.0484448878722441 18 307 31 0 309 304 3
10 305 ?26 29 308 240 0 310 311 305 -.03315 -.07785 -.0484448878722441 18 310 29
 0 312 307 313 308 ?26 29 311 239 0 313 314 308 -.03315 -.07785 .0255 18 313 27
 0 315 310 316 311 ?26 29 314 238 0 316 317 311 -.02115 -.07785 .0255 18 316 25
 0 318 313 319 314 ?26 29 317 237 0 319 320 314 -.02115 -.07785 .0185 18 319 23
 0 321 316 322 317 ?26 29 320 236 0 322 323 317 .004202609026702395 -.07185 -.05
97 18 322 18 0 324 319 325 320 ?26 29 323 235 0 325 326 320 .004202609026702395
 -.07785 -.0597 18 325 16 0 327 322 328 323 ?26 29 326 234 0 328 329 323 .027349
7836479856 -.07185 -.0395404077862857 18 328 11 0 330 325 331 326 ?26 29 329 233
 0 331 332 326 .0273497836479856 -.07185 -.0597 18 331 9 0 333 328 334 329 ?26 2
9 332 232 0 334 335 329 .0273497836479856 -.07785 -.0395404077862857 18 334 7 0
 336 331 337 332 ?26 29 335 231 0 337 0 332 .0273497836479856 -.07785 -.0597 18
 337 6 0 338 334 0 335 ?26 17 338 0 339 340 327 337 341 342 0 343 +15 339 21 0 3
44 345 0 17 340 0 339 344 338 334 346 347 0 0 +17 327 0 339 338 348 325 349 350
 0 351 +17 341 0 352 353 343 325 338 342 0 0 -16 342 15 0 ?338 354 355 356 0 0 2
6 17 343 0 352 341 333 337 357 358 0 346 -15 352 14 0 341 359 0 17 333 0 352 343
 353 331 360 361 0 362 -17 357 0 363 364 346 331 343 358 0 0 +16 358 8 0 ?357 36
5 347 366 0 0 26 17 346 0 363 357 367 337 340 347 0 0 -15 363 4 0 346 368 0 17 3
67 0 363 346 364 334 369 355 0 340 -16 347 5 0 ?340 358 0 370 0 0 26 30 370 288
 0 347 0 366 0 +.0273497836479856 -.07785 -.0597 0 -704917766418636e-30 1 30 366
 289 0 358 370 371 0 +.0273497836479856 -.07785 -.0597 0 1 0 30 371 290 0 365 36
6 372 0 +.0273497836479856 -.07185 -.0395404077862857 0 0 -1 16 365 10 0 ?362 35
5 358 371 0 0 26 30 372 291 0 355 371 356 0 +.0273497836479856 -.07785 -.0395404
077862857 0 1 2368475785867e-27 16 355 12 0 ?369 342 365 372 0 0 26 30 356 292 0
 342 372 373 0 +.004202609026702395 -.07785 -.0597 1 0 0 30 373 293 0 354 356 37
4 0 +.004202609026702395 -.07185 -.0597 0 -1 0 16 354 17 0 ?351 361 342 373 0 0
 26 30 374 294 0 361 373 375 0 +.0273497836479856 -.07185 -.0597 -1 0 0 16 361 1
9 0 ?360 376 354 374 0 0 26 30 375 295 0 376 374 377 0 +.0273497836479856 -.0778
5 -.0395404077862857 -.641219825690486 1878829367473505e-31 .767357240886839 16
 376 22 0 ?344 378 361 375 0 0 26 30 377 296 0 378 375 379 0 +-.02115 -.07785 .0
185 -1015061051085856e-30 0 1 16 378 24 0 ?380 381 376 377 0 0 26 30 379 297 0 3
81 377 382 0 +-.03315 -.07785 .0255 1 0 0 16 381 26 0 ?383 384 378 379 0 0 26 30
 382 298 0 384 379 385 0 +-.03315 -.07785 -.0484448878722441 0 0 1 16 384 28 0 ?
386 387 381 382 0 0 26 30 385 299 0 387 382 388 0 +-.03315 -.07785 -.04844488787
22441 1 0 0 16 387 30 0 ?389 390 384 385 0 0 26 30 388 300 0 390 385 391 0 +-.02
715 -.07785 -.0484448878722441 0 0 1 16 390 32 0 ?348 350 387 388 0 0 26 30 391
 301 0 350 388 392 0 +-.02715 -.07785 -.0255 .675755184945783 0 -.73712612897582
9 16 350 34 0 ?327 393 390 391 0 0 26 31 392 302 0 393 391 394 0 +.0096497836479
856 -.07785 -.042 1377020805736628e-31 1 0 1 -2220446049250315e-31 0 .0027 16 39
3 36 0 ?303 395 350 392 0 0 26 30 394 303 0 395 392 396 0 +.004202609026702395 -
.07185 -.0597 -.675755184945783 306292173264759e-30 .737126128975829 16 395 40 0
 ?397 398 393 394 0 0 26 30 396 304 0 398 394 399 0 +-.02715 -.07185 .0185 -8074
34927000114e-31 0 -1 16 398 42 0 ?400 401 395 396 0 0 26 30 399 305 0 401 396 40
2 0 +-.02715 -.07185 .0185 1 0 0 16 401 44 0 ?403 404 398 399 0 0 26 30 402 306
 0 404 399 405 0 +-.02115 -.07185 .0185 .641219825690486 -1878829367473505e-31 -
.767357240886839 16 404 46 0 ?330 406 401 402 0 0 26 31 405 307 0 406 402 407 0
 +.0096497836479856 -.07185 -.042 0 -1 0 1 -2220446049250315e-31 0 .0027 16 406
 48 0 ?291 408 404 405 0 0 26 30 407 308 0 408 405 409 0 +-.02715 -.07785 -.0255
 59211894646675e-29 1 -59211894646675e-29 16 408 52 0 ?300 410 406 407 0 0 26 30
 409 309 0 410 407 411 0 +-.02115 -.07785 .0185 0 1 0 16 410 55 0 ?294 412 408 4
09 0 0 26 30 411 310 0 412 409 413 0 +-.02715 -.07185 -.0484448878722441 -118423
78929335e-28 -1 -2368475785867e-27 16 412 61 0 ?309 414 410 411 0 0 26 30 413 31
1 0 414 411 415 0 +-.03315 -.07185 -.0484448878722441 0 -1 0 16 414 63 0 ?312 41
6 412 413 0 0 26 30 415 312 0 416 413 417 0 +-.02715 -.07185 -.0484448878722441
 -1 0 -2368475785867e-27 16 416 65 0 ?418 419 414 415 0 0 26 30 417 313 0 419 41
5 420 0 +-.02715 -.07185 -.0484448878722441 0 .57076973680873 -.821110167726166
 16 419 68 0 ?421 422 416 417 0 0 26 30 420 314 0 422 417 423 0 +-.03315 -.05548
39499501945 -.0719891111111051 0 -.57076973680873 .821110167726166 16 422 70 0 ?
285 424 419 420 0 0 26 30 423 315 0 424 420 425 0 +-.03315 -.0554839499501945 -.
0719891111111051 1 0 0 16 424 72 0 ?426 427 422 423 0 0 26 30 425 316 0 427 423
 428 0 +-.03315 .006 .0255 847397418914848e-31 -1 0 16 427 75 0 ?315 429 424 425
 0 0 26 30 428 317 0 429 425 430 0 +-.03315 .006 .0255 0 0 -1 16 429 77 0 ?431 4
32 427 428 0 0 26 30 430 318 0 432 428 433 0 +-.03315 0 -.0255 0 1 0 16 432 79 0
 ?434 435 429 430 0 0 26 30 433 319 0 435 430 436 0 +-.03315 0 -.0255 0 -.570453
16427043 -.821330133000034 16 435 81 0 ?437 438 432 433 0 0 26 30 436 320 0 438
 433 439 0 +-.03315 -.02849473832287655 -.066526307999292 0 0 1 16 438 83 0 ?440
 441 435 436 0 0 26 30 439 321 0 441 436 442 0 +-.03315 -.02849473832287655 -.04
13807510772122 3357518975559345e-26 -1 1343007590223738e-25 16 441 85 0 ?443 444
 438 439 0 0 26 30 442 322 0 444 439 445 0 +-.03315 -.0284949499501945 -.0413807
5107721215 0 -76593335992332e-29 1 16 444 87 0 ?446 447 441 442 0 0 26 30 445 32
3 0 447 442 448 0 +-.03315 -.0284949499501945 -.0181886963587953 0 -1 -105308493
9434732e-30 16 447 89 0 ?449 450 444 445 0 0 26 30 448 324 0 450 445 451 0 +-.03
315 -.0554839499501945 -.01818869635879535 0 792420733964244e-30 -1 16 450 91 0
 ?452 453 447 448 0 0 26 30 451 325 0 453 448 454 0 +-.02115 -.07785 .0185 .5885
06181383994 .808492717637475 0 16 453 94 0 ?455 456 450 451 0 0 26 30 454 326 0
 456 451 457 0 +.03114978364798565 -.00600029722547294 .0255 0 0 -1 16 456 96 0
 ?458 459 453 454 0 0 26 30 457 327 0 459 454 460 0 +-.02115 -.07785 .0255 .5885
06181383994 .808492717637475 0 16 459 98 0 ?461 462 456 457 0 0 26 30 460 328 0
 462 457 463 0 +.01632582302291065 -.006 .0185 -1 474000754650348e-30 0 16 462 1
01 0 ?464 465 459 460 0 0 26 30 463 329 0 465 460 466 0 +.01632582302291065 -.00
6 .0255 0 0 -1 16 465 104 0 ?467 468 462 463 0 0 26 30 466 330 0 468 463 469 0 +
-.02115 -.006 .0255 1 -474000754650348e-30 0 16 468 106 0 ?470 471 465 466 0 0 2
6 30 469 331 0 471 466 472 0 +-.02115 -.006 .0255 0 0 -1 16 471 108 0 ?473 474 4
68 469 0 0 26 30 472 332 0 474 469 475 0 +-.02115 -.006 .0185 -4125627311215575e
-31 -1 0 16 474 111 0 ?476 477 471 472 0 0 26 30 475 333 0 477 472 478 0 +-.0211
5 -.0576679778972143 .0255 4125627311215575e-31 1 0 16 477 113 0 ?237 479 474 47
5 0 0 26 30 478 334 0 479 475 480 0 +-.02115 -.0576679778972143 .0255 0 0 -1 16
 479 115 0 ?481 482 477 478 0 0 26 30 480 335 0 482 478 483 0 +-.02115 -.0576679
778972143 .0185 .587137402957216 .809487288379908 0 16 482 118 0 ?246 484 479 48
0 0 0 26 30 483 336 0 484 480 485 0 +.01632582302291065 -.006 .0255 -.5871374029
57216 -.809487288379908 0 16 484 119 0 ?231 486 482 483 0 0 26 30 485 337 0 486
 483 487 0 +.0311497836479856 0 .0185 710507538936885e-29 -1 0 16 486 122 0 ?252
 488 484 485 0 0 26 30 487 338 0 488 485 489 0 +.0311497836479856 0 -.0255 0 0 1
 16 488 124 0 ?490 491 486 487 0 0 26 30 489 339 0 491 487 492 0 +.0311497836479
856 .006 -.0255 0 -1 0 16 491 126 0 ?493 494 488 489 0 0 26 30 492 340 0 494 489
 495 0 +.0311497836479856 .006 .0255 0 0 -1 16 494 128 0 ?496 497 491 492 0 0 26
 30 495 341 0 497 492 498 0 +.03114978364798565 -.00600029722547294 .0255 -35526
2568456306e-29 1 0 16 497 130 0 ?499 500 494 495 0 0 26 30 498 342 0 500 495 501
 0 +.0311497836479856 .006 .0255 -1 -552523426556164e-31 0 16 500 133 0 ?276 502
 497 498 0 0 26 30 501 343 0 502 498 503 0 +-.02715 0 .0185 0 -1 0 16 502 137 0
 ?297 504 500 501 0 0 26 30 503 344 0 504 501 505 0 +.0311497836479856 0 .0185 -
1 0 0 16 504 139 0 ?506 507 502 503 0 0 26 31 505 345 0 507 503 508 0 +-.03665 -
.04224434072571175 -.0489037492726746 0 -.198383954471308 .980124383233233 -1 0
 0 .00255 16 507 143 0 ?214 509 504 505 0 0 26 31 508 346 0 509 505 510 0 +-.036
65 -.0382766616362856 -.0685062369373393 0 -.198383954471308 .980124383233233 -1
 0 0 .00255 16 509 146 0 ?211 511 507 508 0 0 26 30 510 347 0 511 508 512 0 +-.0
3315 -.0554839499501945 -.01818869635879535 -.3617781238318365 571241817434732e-
30 -.932264227092682 16 511 152 0 ?513 514 509 510 0 0 26 30 512 348 0 514 510 5
15 0 +-.04215 -.0284949499501945 -.04138075107721215 .3617781238318365 -71405227
1793415e-30 .932264227092682 16 514 154 0 ?258 516 511 512 0 0 26 30 515 349 0 5
16 512 517 0 +-.04215 -.0554839499501945 -.0413807510772122 0 1 1053084939434732
e-30 16 516 156 0 ?518 519 514 515 0 0 26 30 517 350 0 519 515 520 0 +-.04215 -.
0284949499501945 -.04138075107721215 1 0 0 16 519 159 0 ?261 521 516 517 0 0 26
 30 520 351 0 521 517 522 0 +-.03315 -.02849473832287655 -.0413807510772122 -1 0
 0 16 521 162 0 ?523 524 519 520 0 0 26 30 522 352 0 524 520 525 0 +-.04215 -.02
84949499501945 -.04138075107721215 0 1 -1343007590223738e-25 16 524 164 0 ?526 5
27 521 522 0 0 26 30 525 353 0 527 522 528 0 +-.04215 -.0554839499501945 -.07198
91111111051 0 -928560347530297e-30 1 16 527 167 0 ?208 529 524 525 0 0 26 30 528
 354 0 529 525 530 0 +-.03315 -.0554839499501945 -.0719891111111051 -1 0 0 16 52
9 169 0 ?531 532 527 528 0 0 26 30 530 355 0 532 528 533 0 +-.03315 -.0284947383
2287655 -.066526307999292 -1 0 0 16 532 172 0 ?534 535 529 530 0 0 26 30 533 356
 0 535 530 536 0 +-.04215 -.02849473832287655 -.0413807510772122 0 0 -1 16 535 1
74 0 ?537 538 532 533 0 0 26 30 536 357 0 538 533 539 0 +-.04215 -.0284947383228
7655 -.066526307999292 0 -.980124383233233 -.1983839544713085 16 538 177 0 ?199
 540 535 536 0 0 26 30 539 358 0 540 536 541 0 +-.02715 -.0554839499501945 -.071
9891111111051 -129018266680828e-30 .980124383233233 .1983839544713085 16 540 180
 0 ?542 543 538 539 0 0 26 30 541 359 0 543 539 544 0 +-.02715 -.028494738322876
55 -.066526307999292 711238944135703e-31 .57045316427043 .821330133000035 16 543
 182 0 ?545 546 540 541 0 0 26 30 544 360 0 546 541 547 0 +-.02715 0 .0185 0 0 -
1 16 546 184 0 ?548 549 543 544 0 0 26 30 547 361 0 549 544 550 0 +-.02715 0 -.0
255 -1 0 0 16 549 187 0 ?270 551 546 547 0 0 26 30 550 362 0 551 547 552 0 +-.03
315 -.02849473832287655 -.066526307999292 1 59211894646675e-29 0 16 551 188 0 ?1
93 553 549 550 0 0 26 31 552 363 0 553 550 554 0 +.00815 1110223024625156e-33 0
 0 1 0 -1 0 0 .00425 16 553 194 0 ?187 555 551 552 0 0 26 31 554 364 0 555 552 5
56 0 +.00815 .006 0 0 -1 0 -1 0 0 .00425 16 555 197 0 ?184 557 553 554 0 0 26 31
 556 365 0 557 554 558 0 +-.01585 .0035 -.012 0 -1 0 1 0 0 .006 16 557 201 0 ?18
1 559 555 556 0 0 26 31 558 366 0 559 556 560 0 +-.01585 .006 -.012 0 -1 0 1 0 0
 .006 16 559 204 0 ?176 175 557 558 0 0 26 31 560 367 0 175 558 561 0 +-.01585 .
0035 .012 0 -1 0 1 0 0 .006 16 175 210 0 ?171 170 559 560 0 0 26 31 561 368 0 17
0 560 161 0 +-.01585 .006 .012 0 -1 0 1 0 0 .006 16 170 213 0 ?166 165 175 561 0
 0 26 30 161 369 0 165 561 149 0 +.0311497836479856 0 -.0255 -1 0 0 16 165 219 0
 ?190 152 170 161 0 0 26 17 190 0 562 270 493 188 225 165 0 563 +15 562 228 0 49
3 158 0 17 270 0 562 434 190 268 563 549 0 564 +17 493 0 562 190 164 223 565 491
 0 566 +17 225 0 567 490 548 223 190 165 0 493 -17 563 0 568 569 564 188 270 549
 0 548 -15 568 186 0 564 570 0 17 569 0 568 267 563 191 545 543 0 542 -17 564 0
 568 563 267 268 437 435 0 571 -17 548 0 567 225 506 188 217 546 0 545 +15 567 2
18 0 490 572 0 17 506 0 567 548 490 215 228 504 0 573 +17 217 0 574 297 545 215
 548 546 0 506 -17 545 0 574 217 542 188 569 543 0 0 +15 574 179 0 421 575 0 17
 542 0 574 545 421 191 282 540 0 0 +17 421 0 574 542 576 280 288 419 0 0 +17 282
 0 577 578 193 280 542 540 0 426 -15 577 190 0 193 579 0 17 578 0 577 531 282 27
7 426 424 0 580 -17 193 0 577 282 581 191 267 551 0 569 +17 426 0 582 288 580 28
0 578 424 0 421 +15 582 67 0 288 583 0 17 288 0 582 418 426 286 421 419 0 584 -1
7 580 0 582 426 418 277 285 422 0 0 -17 418 0 582 580 288 283 584 416 0 585 +17
 285 0 586 312 452 283 580 422 0 418 +15 586 74 0 285 587 0 17 312 0 586 386 285
 310 585 414 0 588 +17 452 0 586 285 449 277 589 450 0 578 +17 449 0 586 452 446
 253 590 447 0 0 +17 589 0 591 513 279 253 452 450 0 449 -15 591 166 0 589 592 0
 17 513 0 591 593 589 206 255 511 0 0 +17 279 0 591 589 593 277 531 529 0 452 -1
7 593 0 591 279 513 197 208 527 0 0 -17 531 0 577 196 578 197 279 529 0 593 +17
 196 0 577 581 531 194 199 538 0 537 -17 581 0 577 193 196 265 534 532 0 594 -17
 199 0 595 208 537 197 196 538 0 531 +17 537 0 595 199 526 194 202 535 0 534 +15
 595 176 0 518 596 0 17 526 0 595 537 518 200 205 524 0 523 +17 202 0 597 264 53
4 200 537 535 0 526 -17 534 0 597 202 594 194 581 532 0 0 +15 597 171 0 594 598
 0 17 594 0 597 534 264 265 440 438 0 437 -17 264 0 597 594 202 262 523 521 0 59
9 -17 440 0 586 443 437 262 594 438 0 0 +17 437 0 586 440 571 265 564 435 0 0 +1
7 571 0 586 437 431 268 434 432 0 0 -17 431 0 586 571 600 271 601 429 0 0 +17 43
4 0 562 164 270 271 571 432 0 431 +17 164 0 562 493 434 221 273 152 0 496 +17 27
3 0 602 601 496 271 164 152 0 434 -17 496 0 602 273 220 221 603 494 0 565 +15 60
2 222 0 496 604 0 17 220 0 602 496 601 218 276 500 0 499 -17 603 0 605 249 565 2
18 496 494 0 0 -17 565 0 605 603 566 221 493 491 0 0 -15 605 121 0 458 606 0 17
 566 0 605 565 607 223 490 488 0 0 -17 607 0 605 566 458 226 252 486 0 0 -17 490
 0 567 506 225 226 566 488 0 607 +17 458 0 605 607 249 250 608 456 0 455 +17 252
 0 609 321 228 250 607 486 0 458 +15 609 136 0 321 610 0 17 321 0 609 294 252 31
9 455 453 0 611 -17 228 0 609 252 573 226 506 504 0 490 -17 573 0 609 228 612 21
5 297 502 0 0 -17 612 0 609 573 294 295 403 401 0 613 -17 297 0 574 400 217 295
 573 502 0 612 +17 400 0 574 306 297 298 613 398 0 397 +17 306 0 574 614 400 304
 300 408 0 349 -17 613 0 615 403 397 295 400 398 0 0 -17 397 0 615 613 360 298 3
24 395 0 0 +15 615 39 0 360 616 0 17 360 0 615 397 362 322 333 361 0 353 +17 324
 0 617 351 300 322 397 395 0 360 -15 617 51 0 351 618 0 17 351 0 617 349 324 325
 353 354 0 341 +17 300 0 617 324 349 298 306 408 0 400 +17 349 0 617 300 351 304
 327 350 0 348 -17 348 0 339 327 389 304 614 390 0 0 +17 389 0 339 348 619 307 5
88 387 0 0 +17 614 0 574 576 306 307 348 390 0 389 -17 576 0 574 421 614 286 309
 412 0 0 -17 309 0 620 588 584 307 576 412 0 614 +15 620 60 0 309 621 0 17 588 0
 620 585 309 310 389 387 0 619 -17 584 0 620 309 585 286 418 416 0 576 -17 585 0
 620 584 588 283 312 414 0 0 -17 619 0 339 389 622 310 386 384 0 0 -17 622 0 339
 619 380 313 383 381 0 0 -17 386 0 586 600 312 313 619 384 0 622 +17 600 0 586 4
31 386 274 315 427 0 0 -17 315 0 623 383 276 313 600 427 0 386 +15 623 132 0 461
 624 0 17 383 0 623 461 315 316 622 381 0 380 +17 276 0 623 315 499 274 220 500
 0 601 +17 499 0 623 276 461 218 249 497 0 603 +17 601 0 602 220 273 274 431 429
 0 600 -17 461 0 623 499 383 247 318 459 0 608 +17 249 0 605 458 603 247 499 497
 0 461 -17 318 0 625 626 608 316 461 459 0 383 -17 608 0 625 318 455 247 458 456
 0 0 -15 625 93 0 455 627 0 17 455 0 625 608 626 250 321 453 0 0 +17 626 0 625 4
55 318 319 380 378 0 344 -17 380 0 339 622 344 316 626 378 0 0 +17 344 0 339 380
 340 319 336 376 0 0 +17 336 0 628 369 611 334 344 376 0 367 -15 628 54 0 629 63
0 0 17 369 0 628 629 336 328 367 355 0 364 +17 611 0 628 336 629 319 294 410 0 6
26 -17 629 0 628 611 369 292 330 404 0 403 -17 294 0 609 612 321 292 611 410 0 6
29 +17 330 0 615 362 403 328 629 404 0 369 +17 403 0 615 330 613 292 612 401 0 0
 +17 362 0 615 360 330 331 364 365 0 357 +17 364 0 363 367 357 328 362 365 0 0 -
14 630 53 631 ?618 632 628 147 633 +0 0 618 632 163 81 1 631 426 634 630 635 0 6
36 637 638 14 618 50 636 ?616 630 617 147 639 +0 0 616 630 163 14 632 56 637 ?63
0 621 640 147 641 -0 0 630 621 163 50 633 376 0 630 639 641 0 +.0314957860761861
 -.07785 -.0445019901587399 .767357240886839 0 .641219825690486 -.64121982569048
6 882973041026614e-31 .767357240886839 13 163 2 0 0 0 0 0 0 151 158 14 158 227 6
42 ?604 0 562 147 148 +0 0 604 0 163 81 1 642 516 634 158 643 0 644 0 645 14 604
 221 644 ?572 158 168 147 160 +0 0 572 158 163 81 1 644 513 634 604 646 0 647 64
2 648 14 572 217 647 ?649 604 650 147 651 +0 0 649 604 163 15 168 226 0 166 604
 652 50 160 405 0 604 651 148 0 +.0313777836479856 .006 -.0255 0 1 0 -1 0 0 50 6
51 404 0 572 653 160 0 +0 0 0 0 -1 0 0 0 1 50 653 403 0 649 654 651 0 +-.01585 .
0035 .012 0 1 0 0 0 1 14 649 215 655 ?656 572 657 147 653 +0 0 656 572 163 51 65
4 402 0 656 658 653 0 +-.01585 .006 .012 0 1 0 .006 1 0 0 14 656 208 659 ?660 64
9 661 147 654 -0 0 660 649 163 50 658 401 0 660 662 654 0 +-.01585 .0035 -.012 0
 1 0 0 0 1 14 660 206 663 ?664 656 665 147 658 +0 0 664 656 163 51 662 400 0 664
 666 658 0 +-.01585 .006 -.012 0 1 0 .006 1 0 0 14 664 199 667 ?668 660 669 147
 662 -0 0 668 660 163 51 666 399 0 668 670 662 0 +.00815 .006 0 0 1 0 .00425 -1
 0 0 14 668 192 671 ?579 664 672 147 666 -0 0 579 664 163 50 670 398 0 579 673 6
66 0 +-.03315 -.0437797503463089 -.0696201001559028 0 .198383954471308 -.9801243
83233233 -389322596515945e-31 .980124383233233 .198383954471308 14 579 189 674 ?
570 668 675 147 670 +0 0 570 668 163 50 673 397 0 570 676 670 0 +-.03315 -.02849
473832287655 -.066526307999292 0 .821330133000034 -.57045316427043 -226594002663
0795e-32 .57045316427043 .821330133000034 14 570 185 677 ?575 579 568 147 673 +0
 0 575 579 163 50 676 396 0 575 678 673 0 +-.02715 -.039425 -.0195 1 0 0 0 0 -1
 14 575 178 679 ?596 570 574 147 676 +0 0 596 570 163 50 678 395 0 596 680 676 0
 +-.04215 -.0419893441365355 -.0566849310941586 -1 0 0 0 0 1 14 596 175 681 ?598
 575 595 147 678 +0 0 598 575 163 50 680 394 0 598 682 678 0 +-.03315 -.02849473
832287655 -.0413807510772122 0 1 0 0 0 -1 14 598 170 683 ?592 596 597 147 680 +0
 0 592 596 163 50 682 393 0 592 684 680 0 +-.03315 -.0554839499501945 -.07198911
11111051 0 -1 -870525325809653e-30 3457879285270815e-47 -870525325809653e-30 1 1
4 592 165 685 ?686 598 591 147 682 +0 0 686 598 163 50 684 392 0 686 687 682 0 +
-.03315 -.0554839499501945 -.0413807510772122 0 -2468148473447245e-31 1 -3972175
40116335e-31 1 2468148473447245e-31 14 686 160 688 ?689 592 690 147 684 +0 0 689
 592 163 50 687 391 0 689 691 684 0 +-.03765 -.0284949499501945 -.02978472371800
37 0 1 987267130720062e-30 0 -987267130720062e-30 1 14 689 157 692 ?693 686 694
 147 687 +0 0 693 686 163 50 691 390 0 693 695 687 0 +-.04215 -.0554839499501945
 -.0413807510772122 -.932264227092682 -3571716502727445e-31 .3617781238318365 .3
617781238318365 -811559620030542e-30 .932264227092682 14 693 150 696 ?697 689 69
8 147 691 +0 0 697 689 163 50 695 389 0 697 699 691 0 +-.03665 -.042244340725711
75 -.0489037492726746 0 .198383954471308 -.980124383233233 -1 0 0 14 697 148 700
 ?701 693 702 147 695 +0 0 701 693 163 51 699 388 0 701 703 695 0 +-.03665 -.038
2766616362856 -.0685062369373393 0 .198383954471308 -.980124383233233 .00255 -1
 0 0 14 701 141 704 ?610 697 705 147 699 -0 0 610 697 163 50 703 387 0 610 706 6
99 0 +-.02715 0 .0185 0 0 -1 1 0 0 14 610 135 707 ?624 701 708 147 703 +0 0 624
 701 163 50 706 386 0 624 709 703 0 +-.03415 0 .0255 0 0 1 1 0 0 14 624 131 710
 ?606 610 711 147 706 +0 0 606 610 163 50 709 385 0 606 712 706 0 +.031149783647
9856 -.07785 -.0255 1 0 0 0 1 0 14 606 120 713 ?714 624 605 147 709 +0 0 714 624
 163 50 712 384 0 714 715 709 0 +.01632582302291065 -.006 .0255 -.80948728837990
8 .587137402957216 0 -.587137402957216 -.809487288379908 0 14 714 116 716 ?717 6
06 718 147 712 +0 0 717 606 163 50 715 383 0 717 719 712 0 +-.02115 -.0576679778
972143 .0255 1 -471700650989287e-30 0 471700650989287e-30 1 0 14 717 109 720 ?72
1 714 722 147 715 +0 0 721 714 163 50 719 382 0 721 723 715 0 +-.02115 -.006 .02
55 -471700650989287e-30 -1 0 1 -471700650989287e-30 0 14 721 99 724 ?627 717 725
 147 719 +0 0 627 717 163 50 723 381 0 627 726 719 0 +-.02115 -.07785 .0255 .808
492717637475 -.588506181383994 0 .588506181383994 .808492717637475 0 14 627 92 7
27 ?587 721 625 147 723 +0 0 587 721 163 50 726 380 0 587 728 723 0 +-.03315 .00
6 -.0255 -1 -397217540116335e-31 0 397217540116335e-31 -1 0 14 587 73 729 ?583 6
27 586 147 726 +0 0 583 627 163 50 728 379 0 583 730 726 0 +-.02715 -.0554839499
501945 -.0719891111111051 0 -.821110167726166 -.57076973680873 0 -.5707697368087
3 .821110167726166 14 583 66 731 ?621 587 582 147 728 +0 0 621 587 163 50 730 37
8 0 621 641 728 0 +-.02715 -.07185 -.0484448878722441 0 0 -1 0 -1 0 14 621 59 73
2 ?632 583 620 147 730 +0 0 632 583 163 51 641 377 0 632 633 730 0 +.00964978364
79856 -.07785 -.042 -2220446049250315e-31 -1 0 .0027 1 -2220446049250315e-31 0 8
1 1 732 432 634 621 733 0 637 731 734 80 1 634 735 736 8015 0 0 0 0 3 5 0 0 0 FF
FFTFFFFFFFFFFF2 81 2 733 431 735 621 737 732 738 739 740 741 81 1 637 429 634 63
2 738 0 631 732 742 81 1 731 435 634 583 739 0 732 729 743 83 1 734 0 81 2 739 4
34 735 583 744 731 733 745 746 747 81 1 729 438 634 587 745 0 731 727 748 83 1 7
43 0 81 2 745 437 735 587 749 729 739 750 751 752 81 1 727 441 634 627 750 0 729
 724 753 83 1 748 0 81 2 750 440 735 627 754 727 745 755 756 757 81 1 724 444 63
4 721 755 0 727 720 758 83 1 753 0 81 2 755 443 735 721 759 724 750 760 761 762
 81 1 720 447 634 717 760 0 724 716 763 83 1 758 0 81 2 760 446 735 717 764 720
 755 765 766 767 81 1 716 450 634 714 765 0 720 713 768 83 1 763 0 81 2 765 449
 735 714 769 716 760 770 771 772 81 1 713 453 634 606 770 0 716 710 773 83 1 768
 0 81 2 770 452 735 606 774 713 765 775 776 777 81 1 710 456 634 624 775 0 713 7
07 778 83 1 773 0 81 2 775 455 735 624 779 710 770 780 781 782 81 1 707 459 634
 610 780 0 710 704 783 83 1 778 0 81 2 780 458 735 610 784 707 775 785 786 787 8
1 1 704 462 634 701 785 0 707 700 788 83 1 783 0 81 2 785 461 735 701 789 704 78
0 790 791 792 81 1 700 465 634 697 790 0 704 696 793 83 1 788 0 81 2 790 464 735
 697 794 700 785 795 796 797 81 1 696 468 634 693 795 0 700 692 798 83 1 793 0 8
1 2 795 467 735 693 799 696 790 800 801 802 81 1 692 471 634 689 800 0 696 688 8
03 83 1 798 0 81 2 800 470 735 689 804 692 795 805 806 807 81 1 688 474 634 686
 805 0 692 685 808 83 1 803 0 81 2 805 473 735 686 809 688 800 810 811 812 81 1
 685 477 634 592 810 0 688 683 813 83 1 808 0 81 2 810 476 735 592 814 685 805 8
15 816 817 81 1 683 480 634 598 815 0 685 681 818 83 1 813 0 81 2 815 479 735 59
8 819 683 810 820 821 822 81 1 681 483 634 596 820 0 683 679 823 83 1 818 0 81 2
 820 482 735 596 824 681 815 825 826 827 81 1 679 486 634 575 825 0 681 677 828
 83 1 823 0 81 2 825 485 735 575 829 679 820 830 831 832 81 1 677 489 634 570 83
0 0 679 674 833 83 1 828 0 81 2 830 488 735 570 834 677 825 835 836 837 81 1 674
 492 634 579 835 0 677 671 838 83 1 833 0 81 2 835 491 735 579 839 674 830 840 8
41 842 81 1 671 495 634 668 840 0 674 667 843 83 1 838 0 81 2 840 494 735 668 84
4 671 835 845 846 847 81 1 667 498 634 664 845 0 671 663 848 83 1 843 0 81 2 845
 497 735 664 849 667 840 850 851 852 81 1 663 501 634 660 850 0 667 659 853 83 1
 848 0 81 2 850 500 735 660 854 663 845 855 856 857 81 1 659 504 634 656 855 0 6
63 655 858 83 1 853 0 81 2 855 503 735 656 859 659 850 860 861 862 81 1 655 507
 634 649 860 0 659 647 863 83 1 858 0 81 2 860 506 735 649 864 655 855 865 866 8
67 81 1 647 510 634 572 865 0 655 644 868 83 1 863 0 81 2 865 509 735 572 869 64
7 860 646 870 871 83 1 868 0 80 2 735 872 873 8014 0 0 0 0 3 5 0 0 0 FFFFTFFFFFF
FFFFF2 1 81 1 869 508 874 572 0 865 864 875 876 81 2 646 512 735 604 875 644 865
 643 877 878 83 4 870 .99998468160538 0 .99998468160538 .99998468160538 82 1 871
 1 81 1 875 511 874 604 0 646 869 879 880 81 2 643 515 735 158 879 642 646 0 881
 882 83 4 877 .99998468160538 0 .99998468160538 .99998468160538 82 1 878 1 81 1
 879 514 874 158 0 643 875 0 883 83 4 881 .99998468160538 0 .99998468160538 .999
98468160538 82 1 882 1 80 1 874 0 884 8001 0 0 0 0 3 5 0 0 0 FFFFTFTFFFFFFFFF2 8
3 3 883 .996078431372549 .996078431372549 1 79 15 884 SDL/TYSA_COLOUR83 3 880 .9
96078431372549 .996078431372549 1 81 1 864 505 874 649 0 860 859 869 885 83 3 87
6 .996078431372549 .996078431372549 1 81 1 859 502 874 656 0 855 854 864 886 83
 3 885 .996078431372549 .996078431372549 1 81 1 854 499 874 660 0 850 849 859 88
7 83 3 886 .996078431372549 .996078431372549 1 81 1 849 496 874 664 0 845 844 85
4 888 83 3 887 .996078431372549 .996078431372549 1 81 1 844 493 874 668 0 840 83
9 849 889 83 3 888 .996078431372549 .996078431372549 1 81 1 839 490 874 579 0 83
5 834 844 890 83 3 889 .996078431372549 .996078431372549 1 81 1 834 487 874 570
 0 830 829 839 891 83 3 890 .996078431372549 .996078431372549 1 81 1 829 484 874
 575 0 825 824 834 892 83 3 891 .996078431372549 .996078431372549 1 81 1 824 481
 874 596 0 820 819 829 893 83 3 892 .996078431372549 .996078431372549 1 81 1 819
 478 874 598 0 815 814 824 894 83 3 893 .996078431372549 .996078431372549 1 81 1
 814 475 874 592 0 810 809 819 895 83 3 894 .996078431372549 .996078431372549 1
 81 1 809 472 874 686 0 805 804 814 896 83 3 895 .996078431372549 .9960784313725
49 1 81 1 804 469 874 689 0 800 799 809 897 83 3 896 .996078431372549 .996078431
372549 1 81 1 799 466 874 693 0 795 794 804 898 83 3 897 .996078431372549 .99607
8431372549 1 81 1 794 463 874 697 0 790 789 799 899 83 3 898 .996078431372549 .9
96078431372549 1 81 1 789 460 874 701 0 785 784 794 900 83 3 899 .99607843137254
9 .996078431372549 1 81 1 784 457 874 610 0 780 779 789 901 83 3 900 .9960784313
72549 .996078431372549 1 81 1 779 454 874 624 0 775 774 784 902 83 3 901 .996078
431372549 .996078431372549 1 81 1 774 451 874 606 0 770 769 779 903 83 3 902 .99
6078431372549 .996078431372549 1 81 1 769 448 874 714 0 765 764 774 904 83 3 903
 .996078431372549 .996078431372549 1 81 1 764 445 874 717 0 760 759 769 905 83 3
 904 .996078431372549 .996078431372549 1 81 1 759 442 874 721 0 755 754 764 906
 83 3 905 .996078431372549 .996078431372549 1 81 1 754 439 874 627 0 750 749 759
 907 83 3 906 .996078431372549 .996078431372549 1 81 1 749 436 874 587 0 745 744
 754 908 83 3 907 .996078431372549 .996078431372549 1 81 1 744 433 874 583 0 739
 737 749 909 83 3 908 .996078431372549 .996078431372549 1 81 1 737 430 874 621 0
 733 910 744 911 83 3 909 .996078431372549 .996078431372549 1 81 1 910 427 874 6
32 0 738 912 737 913 83 3 911 .996078431372549 .996078431372549 1 81 2 738 428 7
35 632 910 637 635 733 914 915 81 1 912 424 874 630 0 635 916 910 917 83 3 913 .
996078431372549 .996078431372549 1 81 2 635 425 735 630 912 631 918 738 919 920
 81 1 916 421 874 618 0 918 921 912 922 83 3 917 .996078431372549 .9960784313725
49 1 81 2 918 422 735 618 916 636 923 635 924 925 81 1 921 418 874 616 0 923 926
 916 927 83 3 922 .996078431372549 .996078431372549 1 14 616 38 928 ?345 618 929
 147 930 +0 0 345 618 163 81 2 923 419 735 616 921 928 931 918 932 933 81 1 926
 415 874 345 0 931 934 921 935 83 3 927 .996078431372549 .996078431372549 1 14 3
45 20 936 ?359 616 937 147 938 +0 0 359 616 163 81 2 931 416 735 345 926 936 939
 923 940 941 81 1 934 412 874 359 0 939 942 926 943 83 3 935 .996078431372549 .9
96078431372549 1 14 359 13 944 ?368 345 352 147 945 +0 0 368 345 163 81 2 939 41
3 735 359 934 944 946 931 947 948 81 1 942 409 874 368 0 946 0 934 949 83 3 943
 .996078431372549 .996078431372549 1 14 368 3 950 ?0 359 363 147 951 +0 0 0 359
 163 81 2 946 410 735 368 942 950 0 939 952 953 83 3 949 .996078431372549 .99607
8431372549 1 81 1 950 411 634 368 946 0 0 944 954 83 4 952 .99998468160538 0 .99
998468160538 .99998468160538 82 1 953 1 81 1 944 414 634 359 939 0 950 936 955 8
3 1 954 0 81 1 936 417 634 345 931 0 944 928 956 83 1 955 0 81 1 928 420 634 616
 923 0 936 636 957 83 1 956 0 81 1 636 423 634 618 918 0 928 631 958 83 1 957 0
 83 1 958 0 50 951 371 0 368 0 945 0 +.0273497836479856 -.07785 -.03954040778628
57 1 -1850371707708595e-31 0 0 0 -1 50 945 372 0 359 951 938 0 +.004202788673415
845 -.07785 -.0597 0 0 -1 1 -1377020805736628e-31 0 50 938 373 0 345 945 930 0 +
-.03315 -.07785 -.0255 -1377020805736628e-31 -1 0 1 -1377020805736628e-31 0 50 9
30 374 0 616 938 639 0 +-.02715 -.07185 -.0645 0 1 0 0 0 1 50 639 375 0 618 930
 633 0 +-.02715 -.07785 -.0255 -.737126128975829 0 -.675755184945783 .6757551849
45783 -930528949254746e-31 -.737126128975829 83 4 947 .99998468160538 0 .9999846
8160538 .99998468160538 82 1 948 1 83 4 940 .99998468160538 0 .99998468160538 .9
9998468160538 82 1 941 1 15 937 35 0 303 345 339 17 303 0 937 303 303 301 959 39
3 0 959 +17 959 0 640 959 959 301 303 393 0 0 -15 640 58 0 959 632 960 15 960 57
 0 961 632 0 17 961 0 960 961 961 289 291 406 0 0 -17 291 0 929 291 291 289 961
 406 0 961 +15 929 47 0 291 616 615 83 4 932 .99998468160538 0 .99998468160538 .
99998468160538 82 1 933 1 83 4 924 .99998468160538 0 .99998468160538 .9999846816
0538 82 1 925 1 83 4 919 .99998468160538 0 .99998468160538 .99998468160538 82 1
 920 1 83 4 914 .99998468160538 0 .99998468160538 .99998468160538 82 1 915 1 79
 21 873 SDL/TYSA_REFLECTIVITY83 4 866 .99998468160538 0 .99998468160538 .9999846
8160538 82 1 867 1 83 4 861 .99998468160538 0 .99998468160538 .99998468160538 82
 1 862 1 83 4 856 .99998468160538 0 .99998468160538 .99998468160538 82 1 857 1 8
3 4 851 .99998468160538 0 .99998468160538 .99998468160538 82 1 852 1 83 4 846 .9
9998468160538 0 .99998468160538 .99998468160538 82 1 847 1 83 4 841 .99998468160
538 0 .99998468160538 .99998468160538 82 1 842 1 83 4 836 .99998468160538 0 .999
98468160538 .99998468160538 82 1 837 1 83 4 831 .99998468160538 0 .9999846816053
8 .99998468160538 82 1 832 1 83 4 826 .99998468160538 0 .99998468160538 .9999846
8160538 82 1 827 1 83 4 821 .99998468160538 0 .99998468160538 .99998468160538 82
 1 822 1 83 4 816 .99998468160538 0 .99998468160538 .99998468160538 82 1 817 1 8
3 4 811 .99998468160538 0 .99998468160538 .99998468160538 82 1 812 1 83 4 806 .9
9998468160538 0 .99998468160538 .99998468160538 82 1 807 1 83 4 801 .99998468160
538 0 .99998468160538 .99998468160538 82 1 802 1 83 4 796 .99998468160538 0 .999
98468160538 .99998468160538 82 1 797 1 83 4 791 .99998468160538 0 .9999846816053
8 .99998468160538 82 1 792 1 83 4 786 .99998468160538 0 .99998468160538 .9999846
8160538 82 1 787 1 83 4 781 .99998468160538 0 .99998468160538 .99998468160538 82
 1 782 1 83 4 776 .99998468160538 0 .99998468160538 .99998468160538 82 1 777 1 8
3 4 771 .99998468160538 0 .99998468160538 .99998468160538 82 1 772 1 83 4 766 .9
9998468160538 0 .99998468160538 .99998468160538 82 1 767 1 83 4 761 .99998468160
538 0 .99998468160538 .99998468160538 82 1 762 1 83 4 756 .99998468160538 0 .999
98468160538 .99998468160538 82 1 757 1 83 4 751 .99998468160538 0 .9999846816053
8 .99998468160538 82 1 752 1 83 4 746 .99998468160538 0 .99998468160538 .9999846
8160538 82 1 747 1 83 1 742 0 83 4 740 .99998468160538 0 .99998468160538 .999984
68160538 82 1 741 1 79 21 736 SDL/TYSA_TRANSLUCENCY15 725 100 0 962 721 0 17 962
 0 725 963 473 244 464 462 0 0 -17 963 0 725 964 962 238 467 465 0 0 -17 473 0 7
25 962 964 241 965 471 0 464 +17 464 0 708 476 246 241 962 462 0 0 +15 708 140 0
 476 610 609 17 476 0 708 246 464 232 243 474 0 0 +17 246 0 708 464 476 244 234
 482 0 467 +17 234 0 718 966 467 232 246 482 0 481 -17 467 0 718 234 240 244 963
 465 0 962 +15 718 117 0 234 714 0 17 240 0 718 467 966 238 231 484 0 470 -17 96
6 0 718 240 234 229 481 479 0 967 -17 231 0 711 237 470 229 240 484 0 966 +17 47
0 0 711 231 237 238 964 468 0 963 +15 711 134 0 237 624 623 17 237 0 711 470 231
 235 967 477 0 965 +17 964 0 725 473 963 235 470 468 0 0 -17 967 0 722 481 965 2
29 237 477 0 0 -17 965 0 722 967 243 235 473 471 0 964 -15 722 110 0 243 717 0 1
7 243 0 722 965 481 241 476 474 0 473 -17 481 0 722 243 967 232 966 479 0 476 +1
5 705 145 0 968 701 969 17 968 0 705 968 968 209 211 509 0 0 -15 969 142 0 214 7
01 0 17 214 0 969 214 214 212 970 507 0 970 +17 970 0 702 970 970 212 214 507 0
 0 -15 702 149 0 970 697 0 17 211 0 675 211 211 209 968 509 0 968 +15 675 191 0
 211 579 577 15 698 151 0 255 693 0 17 255 0 698 590 971 253 513 511 0 589 -17 5
90 0 698 972 255 256 449 447 0 446 -17 971 0 698 255 972 206 518 516 0 513 -17 9
72 0 698 971 590 203 258 514 0 0 -17 518 0 595 526 208 203 971 516 0 972 +17 208
 0 595 518 199 206 593 527 0 971 +17 258 0 694 973 974 256 972 514 0 590 +15 694
 158 0 973 689 0 17 973 0 694 974 258 259 446 444 0 443 -17 974 0 694 258 973 20
3 261 519 0 518 -17 261 0 690 599 205 259 974 519 0 973 +15 690 161 0 261 686 0
 17 599 0 690 523 261 262 443 441 0 440 -17 205 0 690 261 523 203 526 524 0 974
 -17 523 0 690 205 599 200 264 521 0 0 +17 443 0 586 446 440 259 599 441 0 0 +17
 446 0 586 449 443 256 973 444 0 0 +15 672 196 0 975 668 976 17 975 0 672 975 97
5 182 184 555 0 0 -15 976 193 0 977 668 0 17 977 0 976 977 977 185 187 553 0 0 -
17 187 0 650 187 187 185 977 553 0 977 +15 650 220 0 187 572 567 17 184 0 978 18
4 184 182 975 555 0 975 +15 978 224 0 184 604 602 15 669 203 0 979 664 980 17 97
9 0 669 979 979 172 176 559 0 0 -15 980 200 0 181 664 0 17 181 0 980 181 181 177
 981 557 0 981 +17 981 0 665 981 981 177 181 557 0 0 -15 665 207 0 981 660 0 17
 176 0 652 176 176 172 979 559 0 979 +15 652 225 0 176 604 978 15 661 212 0 169
 656 173 17 169 0 661 169 169 153 166 170 0 0 -15 173 209 0 171 656 0 15 657 216
 0 174 649 0 17 174 0 657 174 174 167 171 175 0 0 -83 1 648 0 83 1 645 0 83 1 63
8 0 17 353 0 352 333 341 322 351 354 0 0 -17 267 0 568 564 569 265 193 551 0 581
 -19 159 229 0 26 0 151 147 0 S0 74 20 157 6 0 0 982 155 879 643 642 145 0 0 0 0
 0 0 0 0 0 0 0 0 0 0 81 1 982 407 983 26 0 155 0 0 984 81 1 155 408 985 26 982 1
45 0 0 986 80 1 985 634 987 8041 0 0 0 0 3 5 0 0 0 TTTFFFFFFFFFFFFF2 83 1 986 0
 79 23 987 SDL/TYSA_TRANSLUCENCY_280 1 983 874 988 8040 0 0 0 0 3 5 0 0 0 TTTFFF
FFFFFFFFFF2 83 3 984 .996078431372549 .996078431372549 1 79 17 988 SDL/TYSA_COLO
UR_280 1 154 989 990 8017 0 0 0 0 0 0 0 0 0 TTTTTTTTTTTTTFTF3 84 6 156 Solid179
 13 990 SDL/TYSA_NAME13 141 3 0 25 0 0 0 144 143 0 29 142 4 0 144 0 0 0 .007 0 1
9 143 1 0 25 0 0 141 0 V0 18 144 2 0 0 0 0 142 ?141 13 137 3 0 24 0 0 0 140 139
 0 29 138 4 0 140 0 0 0 0 .0255 19 139 1 0 24 0 0 137 0 V0 18 140 2 0 0 0 0 138
 ?137 13 133 3 0 23 0 0 0 136 135 0 29 134 4 0 136 0 0 0 .01069135237223144 -.01
96967607165341 19 135 1 0 23 0 0 133 0 V0 18 136 2 0 0 0 0 134 ?133 13 129 3 0 2
2 0 0 0 132 131 0 29 130 4 0 132 0 0 0 0 -.0645 19 131 1 0 22 0 0 129 0 V0 18 13
2 2 0 0 0 0 130 ?129 13 125 3 0 21 0 0 0 128 127 0 29 126 4 0 128 0 0 -.03315 -1
31677614548565e-32 0 19 127 1 0 21 0 0 125 0 V0 18 128 2 0 0 0 0 126 ?125 13 121
 3 0 20 0 0 0 124 123 0 29 122 4 0 124 0 0 -.03315 -131677614548565e-32 0 19 123
 1 0 20 0 0 121 0 V0 18 124 2 0 0 0 0 122 ?121 13 117 3 0 19 0 0 0 120 119 0 29
 118 4 0 120 0 0 -.03315 -131677614548565e-32 0 19 119 1 0 19 0 0 117 0 V0 18 12
0 2 0 0 0 0 118 ?117 13 113 3 0 18 0 0 0 116 115 0 29 114 4 0 116 0 0 -.03315 -1
110223024625156e-33 0 19 115 1 0 18 0 0 113 0 V0 18 116 2 0 0 0 0 114 ?113 13 10
9 3 0 17 0 0 0 112 111 0 29 110 4 0 112 0 0 -.03315 -1110223024625156e-33 0 19 1
11 1 0 17 0 0 109 0 V0 18 112 2 0 0 0 0 110 ?109 13 105 3 0 16 0 0 0 108 107 0 2
9 106 4 0 108 0 0 -.02267666232549735 -888178419700125e-32 .0087999948002627 19
 107 1 0 16 0 0 105 0 V0 18 108 2 0 0 0 0 106 ?105 13 101 3 0 15 0 0 0 104 103 0
 29 102 4 0 104 0 0 -888178419700125e-32 -.07785 0 19 103 1 0 15 0 0 101 0 V0 18
 104 2 0 0 0 0 102 ?101 13 97 3 0 14 0 0 0 100 99 0 29 98 4 0 100 0 0 0 .0118139
9416312226 -.0583675417374842 19 99 1 0 14 0 0 97 0 V0 18 100 2 0 0 0 0 98 ?97 1
3 93 3 0 13 0 0 0 96 95 0 29 94 4 0 96 0 0 -888178419700125e-32 -.07785 0 19 95
 1 0 13 0 0 93 0 V0 18 96 2 0 0 0 0 94 ?93 81 1 86 11 985 12 991 0 0 0 992 70 87
 0 4 T12 0 0 3 20 1 993 993 13 88 3 0 12 0 0 994 0 91 0 30 89 9 0 994 0 0 0 +.02
73497836479856 -.07785 -.0395404077862857 0 0 -1 29 90 7 0 92 995 0 .02734978364
79856 -.07785 -.0597 19 91 1 0 12 0 0 88 0 V0 18 92 5 0 996 0 997 90 ?12 17 996
 0 0 0 0 92 998 994 0 0 +18 997 2 0 998 92 0 995 ?12 17 998 0 0 0 0 997 996 994
 0 0 -29 995 4 0 997 0 90 .0273497836479856 -.07785 -.0395404077862857 16 994 6
 999 ?996 0 0 89 0 0 88 81 1 999 12 874 994 0 0 0 0 1000 83 3 1000 .913725490196
078 .913725490196078 0 74 20 993 3 0 0 991 86 999 0 0 0 0 0 0 0 0 0 0 0 0 0 0 0
 0 0 81 1 991 10 983 12 0 86 0 0 1001 83 3 1001 .913725490196078 .91372549019607
8 0 83 1 992 0 81 1 79 11 985 11 1002 0 0 0 1003 70 80 0 4 T11 0 0 3 20 1 1004 1
004 13 81 3 0 11 0 0 1005 0 84 0 30 82 9 0 1005 0 0 0 +.0273497836479856 -.07785
 -.0597 -1 0 0 29 83 7 0 85 1006 0 .004202609026702395 -.07785 -.0597 19 84 1 0
 11 0 0 81 0 V0 18 85 5 0 1007 0 1008 83 ?11 17 1007 0 0 0 0 85 1009 1005 0 0 +1
8 1008 2 0 1009 85 0 1006 ?11 17 1009 0 0 0 0 1008 1007 1005 0 0 -29 1006 4 0 10
08 0 83 .0273497836479856 -.07785 -.0597 16 1005 6 1010 ?1007 0 0 82 0 0 81 81 1
 1010 12 874 1005 0 0 0 0 1011 83 3 1011 .913725490196078 .913725490196078 0 74
 20 1004 3 0 0 1002 79 1010 0 0 0 0 0 0 0 0 0 0 0 0 0 0 0 0 0 81 1 1002 10 983 1
1 0 79 0 0 1012 83 3 1012 .913725490196078 .913725490196078 0 83 1 1003 0 81 1 7
2 11 985 10 1013 0 0 0 1014 70 73 0 4 T10 0 0 3 20 1 1015 1015 13 74 3 0 10 0 0
 1016 0 77 0 30 75 9 0 1016 0 0 0 +.0273497836479856 -.07785 -.0597 -1 0 0 29 76
 7 0 78 1017 0 .004202609026702395 -.07785 -.0597 19 77 1 0 10 0 0 74 0 V0 18 78
 5 0 1018 0 1019 76 ?10 17 1018 0 0 0 0 78 1020 1016 0 0 +18 1019 2 0 1020 78 0
 1017 ?10 17 1020 0 0 0 0 1019 1018 1016 0 0 -29 1017 4 0 1019 0 76 .02734978364
79856 -.07785 -.0597 16 1016 6 1021 ?1018 0 0 75 0 0 74 81 1 1021 12 874 1016 0
 0 0 0 1022 83 3 1022 1 1 1 74 20 1015 3 0 0 1013 72 1021 0 0 0 0 0 0 0 0 0 0 0
 0 0 0 0 0 0 81 1 1013 10 983 10 0 72 0 0 1023 83 3 1023 1 1 1 83 1 1014 0 81 1
 65 11 985 9 1024 0 0 0 1025 70 66 0 4 T9 0 0 3 20 1 1026 1026 13 67 3 0 9 0 0 1
027 0 70 0 30 68 9 0 1027 0 0 0 +.004202609026702395 -.07785 -.0597 -.6757551849
45783 306292173264759e-30 .737126128975829 29 69 7 0 71 1028 0 -.02715 -.07785 -
.0255 19 70 1 0 9 0 0 67 0 V0 18 71 5 0 1029 0 1030 69 ?9 17 1029 0 0 0 0 71 103
1 1027 0 0 +18 1030 2 0 1031 71 0 1028 ?9 17 1031 0 0 0 0 1030 1029 1027 0 0 -29
 1028 4 0 1030 0 69 .004202609026702395 -.07785 -.0597 16 1027 6 1032 ?1029 0 0
 68 0 0 67 81 1 1032 12 874 1027 0 0 0 0 1033 83 3 1033 1 1 1 74 20 1026 3 0 0 1
024 65 1032 0 0 0 0 0 0 0 0 0 0 0 0 0 0 0 0 0 81 1 1024 10 983 9 0 65 0 0 1034 8
3 3 1034 1 1 1 83 1 1025 0 81 1 58 11 985 8 1035 0 0 0 1036 70 59 0 4 T8 0 0 3 2
0 1 1037 1037 13 60 3 0 8 0 0 1038 0 63 0 30 61 9 0 1038 0 0 0 +-.02715 -.07785
 -.0255 0 0 1 29 62 7 0 64 1039 0 -.02715 -.07785 .0185 19 63 1 0 8 0 0 60 0 V0
 18 64 5 0 1040 0 1041 62 ?8 17 1040 0 0 0 0 64 1042 1038 0 0 +18 1041 2 0 1042
 64 0 1039 ?8 17 1042 0 0 0 0 1041 1040 1038 0 0 -29 1039 4 0 1041 0 62 -.02715
 -.07785 -.0255 16 1038 6 1043 ?1040 0 0 61 0 0 60 81 1 1043 12 874 1038 0 0 0 0
 1044 83 3 1044 1 1 1 74 20 1037 3 0 0 1035 58 1043 0 0 0 0 0 0 0 0 0 0 0 0 0 0
 0 0 0 81 1 1035 10 983 8 0 58 0 0 1045 83 3 1045 1 1 1 83 1 1036 0 13 53 3 0 7
 0 0 1046 0 56 0 30 54 9 0 1046 0 0 0 +-.02715 -.07785 .0185 1 0 0 29 55 7 0 57
 1047 0 -.0208831762000973 -.07785 .0185 19 56 1 0 7 0 0 53 0 V0 18 57 5 0 1048
 0 1049 55 ?7 17 1048 0 0 0 0 57 1050 1046 0 0 +18 1049 2 0 1050 57 0 1047 ?7 17
 1050 0 0 0 0 1049 1048 1046 0 0 -29 1047 4 0 1049 0 55 -.02715 -.07785 .0185 16
 1046 6 0 ?1048 0 0 54 0 0 53 81 1 46 11 985 6 1051 0 0 0 1052 70 47 0 4 T6 0 0
 3 20 1 1053 1053 13 48 3 0 6 0 0 1054 0 51 0 30 49 9 0 1054 0 0 0 +-.02115 -.07
785 .0185 .641219825690486 -1878829367473505e-31 -.767357240886839 29 50 7 0 52
 1055 0 .0273497836479856 -.07785 -.0395404077862857 19 51 1 0 6 0 0 48 0 V0 18
 52 5 0 1056 0 1057 50 ?6 17 1056 0 0 0 0 52 1058 1054 0 0 +18 1057 2 0 1058 52
 0 1055 ?6 17 1058 0 0 0 0 1057 1056 1054 0 0 -29 1055 4 0 1057 0 50 -.02115 -.0
7785 .0185 16 1054 6 1059 ?1056 0 0 49 0 0 48 81 1 1059 12 874 1054 0 0 0 0 1060
 83 3 1060 .913725490196078 .913725490196078 0 74 20 1053 3 0 0 1051 46 1059 0 0
 0 0 0 0 0 0 0 0 0 0 0 0 0 0 0 81 1 1051 10 983 6 0 46 0 0 1061 83 3 1061 .91372
5490196078 .913725490196078 0 83 1 1052 0 81 1 39 11 985 5 1062 0 0 0 1063 70 40
 0 4 T5 0 0 3 20 1 1064 1064 13 41 3 0 5 0 0 1065 0 44 0 30 42 9 0 1065 0 0 0 +.
0273497836479856 -.07785 -.0395404077862857 -.641219825690486 1878829367473505e-
31 .767357240886839 29 43 7 0 45 1066 0 -.02115 -.07785 .0185 19 44 1 0 5 0 0 41
 0 V0 18 45 5 0 1067 0 1068 43 ?5 17 1067 0 0 0 0 45 1069 1065 0 0 +18 1068 2 0
 1069 45 0 1066 ?5 17 1069 0 0 0 0 1068 1067 1065 0 0 -29 1066 4 0 1068 0 43 .02
73497836479856 -.07785 -.0395404077862857 16 1065 6 1070 ?1067 0 0 42 0 0 41 81
 1 1070 12 874 1065 0 0 0 0 1071 83 3 1071 1 1 1 74 20 1064 3 0 0 1062 39 1070 0
 0 0 0 0 0 0 0 0 0 0 0 0 0 0 0 0 81 1 1062 10 983 5 0 39 0 0 1072 83 3 1072 1 1
 1 83 1 1063 0 81 1 34 6 985 4 1073 0 0 0 1074 70 35 0 4 T4 0 0 3 20 1 1075 1075
 13 36 3 0 4 0 0 1076 0 38 0 31 37 4 0 1076 0 0 0 +.0096497836479856 -.07785 -.0
42 -1377020805736628e-31 -1 0 1 -1377020805736628e-31 0 .0027 19 38 1 0 4 0 0 36
 0 V0 16 1076 2 1077 ?1078 0 0 37 0 0 36 81 1 1077 7 874 1076 0 0 0 0 1079 17 10
78 0 0 0 0 0 1080 1076 0 0 +17 1080 0 0 0 0 0 1078 1076 0 0 -83 3 1079 .91372549
0196078 .913725490196078 0 74 20 1075 3 0 0 1073 34 1077 0 0 0 0 0 0 0 0 0 0 0 0
 0 0 0 0 0 81 1 1073 5 983 4 0 34 0 0 1081 83 3 1081 .913725490196078 .913725490
196078 0 83 1 1074 0 13 31 3 0 3 0 0 1082 0 33 0 31 32 4 0 1082 0 0 0 +.00964978
36479856 -.07785 -.042 -1377020805736628e-31 -1 0 1 -1377020805736628e-31 0 .002
7 19 33 1 0 3 0 0 31 0 V0 16 1082 2 0 ?1083 0 0 32 0 0 31 17 1083 0 0 0 0 0 1084
 1082 0 0 +17 1084 0 0 0 0 0 1083 1082 0 0 -13 27 3 0 2 0 0 0 30 29 0 29 28 4 0
 30 0 0 -888178419700125e-32 -.07785 0 19 29 1 0 2 0 0 27 0 V0 18 30 2 0 0 0 0 2
8 ?27 1 0 
